<?xml version="1.0" encoding="utf-8" ?>
<svg xmlns="http://www.w3.org/2000/svg" xmlns:xlink="http://www.w3.org/1999/xlink" width="1024" height="1024">
	<path fill="#FEFEFE" d="M0 0L1024 0L1024 1024L778.972 1024L777.887 1024L0 1024L0 0Z"/>
	<path fill="#010101" d="M907.803 645.665C913.54 644.921 919.912 645.289 925.589 646.434Q926.948 646.706 928.292 647.045Q929.636 647.384 930.961 647.789Q932.286 648.194 933.59 648.663Q934.894 649.133 936.173 649.667Q937.452 650.2 938.703 650.796Q939.954 651.392 941.175 652.049Q942.395 652.707 943.581 653.423Q944.767 654.14 945.917 654.914Q947.066 655.688 948.176 656.518Q949.286 657.348 950.354 658.232Q951.421 659.115 952.444 660.051Q953.466 660.986 954.441 661.971Q955.417 662.956 956.342 663.987Q957.267 665.019 958.141 666.095Q959.014 667.171 959.833 668.289Q960.652 669.407 961.415 670.564Q962.179 671.737 962.884 672.946Q963.59 674.155 964.235 675.397Q964.881 676.639 965.465 677.912Q966.049 679.184 966.57 680.483Q967.091 681.782 967.548 683.105Q968.005 684.428 968.397 685.772Q968.788 687.116 969.114 688.478Q969.439 689.839 969.698 691.215Q969.957 692.591 970.148 693.977Q970.339 695.364 970.461 696.759Q970.584 698.153 970.639 699.552Q970.694 700.95 970.68 702.35Q970.666 703.75 970.584 705.147Q970.501 706.545 970.351 707.937Q970.2 709.328 969.982 710.711Q969.764 712.094 969.478 713.464C966.242 728.429 957.56 740.708 944.622 748.876C942.168 750.426 935.49 754.613 932.817 754.011L932.906 753.214C934.773 750.664 944.934 746.761 948.52 743.862Q949.556 743.032 950.549 742.152Q951.542 741.271 952.49 740.342Q953.438 739.413 954.337 738.438Q955.237 737.462 956.087 736.443Q956.937 735.423 957.735 734.362Q958.532 733.302 959.276 732.202Q960.02 731.103 960.707 729.968Q961.394 728.832 962.024 727.664Q962.654 726.496 963.224 725.297Q963.794 724.099 964.304 722.873Q964.813 721.648 965.261 720.398Q965.708 719.149 966.092 717.878Q966.477 716.608 966.797 715.32Q967.117 714.032 967.372 712.729Q967.627 711.427 967.816 710.113Q968.006 708.799 968.129 707.478C968.772 701.848 968.357 695.855 967.221 690.313Q966.964 689.013 966.643 687.728Q966.322 686.442 965.937 685.174Q965.552 683.906 965.105 682.66Q964.657 681.413 964.147 680.19Q963.638 678.967 963.068 677.77Q962.498 676.574 961.869 675.408Q961.24 674.242 960.553 673.109Q959.866 671.976 959.124 670.879Q958.382 669.781 957.585 668.722Q956.789 667.663 955.941 666.645Q955.093 665.627 954.195 664.653Q953.297 663.679 952.351 662.751Q951.406 661.823 950.415 660.943Q949.424 660.063 948.391 659.234Q947.357 658.405 946.284 657.629Q945.21 656.853 944.099 656.131Q942.959 655.39 941.783 654.707Q940.607 654.024 939.399 653.399Q938.19 652.775 936.953 652.212Q935.715 651.649 934.451 651.147Q933.186 650.646 931.899 650.208Q930.611 649.77 929.304 649.397Q927.996 649.023 926.672 648.715Q925.347 648.407 924.009 648.165Q922.67 647.923 921.322 647.748Q919.973 647.572 918.618 647.464Q917.262 647.356 915.903 647.315Q914.543 647.275 913.184 647.301Q911.824 647.328 910.467 647.422Q909.111 647.516 907.76 647.678Q906.41 647.839 905.069 648.067Q903.729 648.296 902.401 648.59C887.239 652.036 874.999 660.808 866.652 673.905C864.487 677.303 863.067 681.044 860.958 684.415L860.176 684.379C860.13 684.235 860.063 684.097 860.039 683.948C859.458 680.327 865.762 671.586 868.065 668.546C877.982 655.46 891.605 647.914 907.803 645.665Z"/>
	<path fill="#010101" d="M101.761 441.169C111.019 439.906 122.1 443.083 129.825 448.158C139.756 454.682 146.361 464.892 148.646 476.504Q148.868 477.613 149.035 478.731Q149.202 479.85 149.314 480.975Q149.425 482.1 149.481 483.23Q149.536 484.359 149.536 485.49Q149.535 486.621 149.479 487.751Q149.422 488.88 149.31 490.005Q149.197 491.13 149.029 492.249Q148.861 493.367 148.638 494.476Q148.415 495.584 148.137 496.68Q147.859 497.777 147.527 498.858Q147.195 499.939 146.811 501.002Q146.425 502.065 145.988 503.108Q145.551 504.151 145.063 505.171Q144.574 506.191 144.036 507.186Q143.498 508.18 142.911 509.147Q142.324 510.114 141.69 511.05C134.079 522.14 123.017 527.51 110.091 529.94Q109.041 530.064 107.987 530.139Q106.933 530.214 105.876 530.238Q104.819 530.262 103.762 530.237Q102.706 530.211 101.651 530.136Q100.597 530.06 99.5476 529.934Q98.4981 529.809 97.4557 529.634Q96.4133 529.459 95.3804 529.234Q94.3475 529.01 93.3263 528.737Q92.3052 528.464 91.2981 528.143Q90.2911 527.822 89.3004 527.453Q88.3097 527.085 87.3375 526.67Q86.3654 526.255 85.414 525.794Q84.4626 525.334 83.5342 524.829Q82.6057 524.323 81.7022 523.775Q80.7987 523.226 79.9222 522.635Q79.0457 522.045 78.1982 521.413Q77.3463 520.762 76.5273 520.07Q75.7083 519.378 74.9241 518.647Q74.1399 517.916 73.3924 517.147Q72.645 516.379 71.936 515.574Q71.2271 514.77 70.5584 513.932Q69.8896 513.094 69.2627 512.224Q68.6358 511.354 68.0522 510.455Q67.4686 509.556 66.9297 508.629Q66.3908 507.702 65.8979 506.75Q65.405 505.798 64.9593 504.822Q64.5136 503.847 64.1162 502.852Q63.7188 501.856 63.3705 500.842Q63.0223 499.828 62.7241 498.798Q62.4259 497.768 62.1785 496.725Q61.931 495.682 61.735 494.628Q61.5389 493.573 61.3946 492.511C59.7778 480.642 62.8294 468.103 70.174 458.575C78.2203 448.137 88.9341 442.917 101.761 441.169Z"/>
	<path fill="#FEFEFE" d="M102.378 443.202Q103.304 443.132 104.232 443.104Q105.16 443.075 106.088 443.087Q107.016 443.1 107.943 443.153Q108.87 443.206 109.793 443.301Q110.717 443.395 111.636 443.53Q112.554 443.665 113.466 443.84Q114.377 444.015 115.28 444.231Q116.183 444.446 117.076 444.702Q117.969 444.957 118.849 445.251Q119.73 445.545 120.596 445.878Q121.463 446.211 122.314 446.582Q123.165 446.953 123.999 447.361Q124.833 447.77 125.648 448.214Q126.463 448.659 127.257 449.139Q128.052 449.619 128.824 450.134Q129.597 450.649 130.346 451.197Q131.172 451.817 131.966 452.476Q132.76 453.135 133.522 453.833Q134.283 454.53 135.009 455.264Q135.735 455.997 136.425 456.766Q137.114 457.534 137.766 458.335Q138.417 459.136 139.028 459.968Q139.639 460.8 140.209 461.661Q140.779 462.521 141.306 463.409Q141.834 464.297 142.317 465.209Q142.8 466.121 143.238 467.056Q143.676 467.991 144.068 468.946Q144.46 469.901 144.805 470.874Q145.15 471.847 145.446 472.836Q145.743 473.824 145.992 474.826Q146.24 475.829 146.439 476.842Q146.638 477.855 146.787 478.876C148.471 490.294 146.034 501.58 139.045 510.841C131.243 521.18 121.151 526.388 108.449 528.142Q107.479 528.218 106.506 528.25Q105.533 528.283 104.56 528.27Q103.587 528.258 102.615 528.202Q101.644 528.145 100.676 528.045Q99.7076 527.944 98.7451 527.799Q97.7827 527.655 96.8278 527.466Q95.8729 527.278 94.9276 527.046Q93.9823 526.815 93.0485 526.54Q92.1148 526.266 91.1945 525.949Q90.2742 525.633 89.3692 525.274Q88.4643 524.916 87.5766 524.517Q86.6889 524.118 85.8203 523.679Q84.9517 523.24 84.104 522.761Q83.2563 522.283 82.4313 521.767Q81.6062 521.251 80.8055 520.698Q80.0049 520.144 79.2302 519.555Q78.4164 518.921 77.635 518.248Q76.8535 517.575 76.1064 516.864Q75.3593 516.152 74.6484 515.405Q73.9374 514.658 73.2644 513.876Q72.5913 513.095 71.9578 512.281Q71.3244 511.467 70.732 510.622Q70.1396 509.778 69.5898 508.905Q69.0399 508.033 68.534 507.134Q68.0282 506.235 67.5674 505.312Q67.1067 504.389 66.6922 503.445Q66.2778 502.5 65.9106 501.536Q65.5435 500.572 65.2246 499.591Q64.9056 498.61 64.6357 497.615Q64.3658 496.619 64.1455 495.612Q63.9252 494.604 63.7551 493.587Q63.5851 492.57 63.4656 491.545Q63.3327 490.475 63.2529 489.399Q63.173 488.323 63.1464 487.245Q63.1197 486.167 63.1463 485.089Q63.1729 484.01 63.2527 482.935Q63.3326 481.859 63.4654 480.789Q63.5982 479.718 63.7837 478.656Q63.9692 477.593 64.2069 476.541Q64.4447 475.489 64.7341 474.45Q65.0234 473.411 65.3638 472.388Q65.7041 471.364 66.0945 470.359Q66.485 469.353 66.9246 468.369Q67.3642 467.384 67.8519 466.422Q68.3396 465.46 68.8742 464.523Q69.4088 463.586 69.989 462.677Q70.5692 461.768 71.1936 460.888Q71.818 460.009 72.485 459.161C80.0113 449.773 90.533 444.439 102.378 443.202Z"/>
	<path fill="#010101" d="M838.988 108.929C845.563 113.915 853.836 124.204 859.757 130.473L896.165 168.531C889.961 175.365 882.425 181.575 875.724 187.97Q855.951 206.794 836.715 226.167L835.458 227.057C834.639 226.915 834.281 226.729 833.683 226.14C824.19 216.798 815.444 206.339 806.386 196.547C798.019 187.502 787.185 176.984 779.972 167.286C786.313 159.459 797.038 150.286 804.523 142.945C816.007 131.681 827.101 119.73 838.988 108.929Z"/>
	<path fill="#FEFEFE" d="M838.969 111.898C844.527 116.065 856.125 129.628 861.506 135.301L880.156 154.851C884.377 159.254 889.641 163.871 892.848 169.059C873.164 186.459 854.471 205.467 835.963 224.118L835.316 224.304C830.034 220.511 822.855 211.14 818.064 205.951C806.304 193.215 793.785 180.813 782.709 167.501C789.124 160.074 797.001 153.406 804.012 146.523C815.714 135.035 827.136 123.248 838.969 111.898Z"/>
	<path fill="#010101" d="M888.667 451.666C895.186 450.831 902.211 451.388 908.589 452.929C923.629 456.564 935.274 466.36 943.186 479.512Q943.858 480.628 944.473 481.777Q945.088 482.925 945.646 484.102Q946.203 485.28 946.701 486.484Q947.199 487.687 947.637 488.914Q948.075 490.141 948.451 491.389Q948.827 492.636 949.14 493.9Q949.454 495.165 949.704 496.443Q949.954 497.722 950.141 499.011Q950.327 500.301 950.449 501.598Q950.571 502.895 950.629 504.196Q950.686 505.498 950.679 506.8Q950.671 508.103 950.599 509.404Q950.527 510.705 950.39 512Q950.253 513.296 950.052 514.583Q949.851 515.87 949.586 517.146Q949.321 518.421 948.993 519.682Q948.665 521.013 948.271 522.325Q947.877 523.638 947.418 524.93Q946.959 526.221 946.436 527.488Q945.913 528.755 945.328 529.994Q944.742 531.234 944.096 532.442Q943.45 533.651 942.744 534.825Q942.038 536 941.274 537.138Q940.51 538.276 939.691 539.375Q938.872 540.474 937.998 541.53Q937.125 542.586 936.2 543.598Q935.276 544.609 934.302 545.574Q933.327 546.538 932.306 547.452Q931.285 548.367 930.22 549.229Q929.155 550.091 928.048 550.899Q926.941 551.707 925.795 552.459Q924.649 553.211 923.467 553.905C909.669 562.064 894.658 563.592 879.302 559.649C876.922 558.817 874.575 557.948 872.286 556.885C856.304 549.46 847.884 536.536 842.07 520.471C835.165 519.909 823.435 522.208 818.07 517.425C816.277 515.827 815.233 513.68 815.202 511.268C815.173 509.035 815.937 506.705 817.571 505.136C822.299 500.595 833.791 502.462 839.836 502.485Q840.059 500.5 840.412 498.535Q840.766 496.569 841.248 494.631Q841.731 492.694 842.34 490.792Q842.95 488.89 843.684 487.033Q844.417 485.175 845.272 483.371Q846.127 481.566 847.099 479.821Q848.072 478.077 849.157 476.4Q850.242 474.724 851.436 473.123C860.543 461.049 873.806 453.732 888.667 451.666Z"/>
	<path fill="#FEFEFE" d="M889.507 453.668C895.806 452.925 902.508 453.563 908.636 455.15C922.866 458.837 934.604 468.827 941.894 481.464Q942.522 482.552 943.094 483.67Q943.667 484.788 944.182 485.933Q944.698 487.078 945.156 488.247Q945.614 489.417 946.013 490.607Q946.412 491.798 946.751 493.008Q947.09 494.217 947.368 495.442Q947.646 496.667 947.862 497.904Q948.079 499.141 948.233 500.387Q948.388 501.634 948.479 502.886Q948.571 504.139 948.6 505.394Q948.63 506.65 948.596 507.905Q948.562 509.161 948.466 510.413Q948.369 511.665 948.21 512.911Q948.051 514.157 947.83 515.393Q947.609 516.63 947.327 517.853Q947.044 519.077 946.701 520.285C942.797 534.407 934.062 545.653 921.233 552.767C908.395 559.886 894.488 561.664 880.375 557.7Q876.198 556.377 872.254 554.467C856.893 546.888 848.738 534.078 843.457 518.282C836.876 517.825 824.455 520.003 819.293 515.627C818.022 514.549 817.363 513.009 817.3 511.358C817.229 509.505 817.756 507.958 819.044 506.594C822.787 502.626 836.369 504.623 841.739 504.501C842.854 493.738 846.207 483.817 852.714 475.077C861.8 462.872 874.614 455.926 889.507 453.668Z"/>
	<path fill="#010101" d="M891.345 464.69C900.777 463.69 911.247 466.263 919.062 471.651C928.271 477.999 934.782 488.726 936.797 499.67Q936.973 500.68 937.1 501.698Q937.227 502.715 937.304 503.738Q937.382 504.761 937.409 505.786Q937.437 506.811 937.414 507.836Q937.392 508.861 937.32 509.884Q937.248 510.907 937.126 511.925Q937.004 512.943 936.833 513.955Q936.661 514.966 936.441 515.967Q936.221 516.969 935.952 517.958Q935.684 518.948 935.367 519.924Q935.051 520.899 934.687 521.858Q934.324 522.817 933.914 523.757Q933.505 524.697 933.05 525.616Q932.595 526.535 932.096 527.431Q931.597 528.327 931.055 529.197Q930.513 530.068 929.929 530.911C922.934 540.979 912.245 546.453 900.414 548.583C889.196 549.639 878.408 546.768 869.443 539.816C860.314 532.738 854.694 521.918 853.395 510.502C852.155 499.61 855.46 489.004 862.325 480.496C869.871 471.146 879.457 465.999 891.345 464.69Z"/>
	<path fill="#ED3434" d="M889.744 467.114C899.12 466.188 908.302 467.759 916.366 472.804C925.137 478.292 931.868 488.062 934.175 498.12C936.585 508.629 934.277 519.481 928.486 528.495C922.249 538.205 912.242 543.896 901.158 546.281Q900.27 546.393 899.377 546.465Q898.485 546.537 897.59 546.57Q896.696 546.602 895.8 546.594Q894.905 546.587 894.011 546.54Q893.117 546.492 892.226 546.405Q891.335 546.318 890.449 546.191Q889.562 546.064 888.683 545.898Q887.803 545.732 886.931 545.527Q886.06 545.322 885.198 545.078Q884.337 544.834 883.487 544.552Q882.637 544.27 881.801 543.951Q880.965 543.631 880.143 543.275Q879.322 542.918 878.517 542.526Q877.713 542.133 876.926 541.705Q876.14 541.277 875.374 540.814Q874.607 540.351 873.862 539.855Q873.024 539.307 872.215 538.718Q871.405 538.129 870.625 537.501Q869.845 536.873 869.097 536.207Q868.349 535.542 867.635 534.84Q866.92 534.139 866.241 533.403Q865.562 532.667 864.92 531.899Q864.278 531.131 863.675 530.332Q863.071 529.533 862.508 528.705Q861.944 527.878 861.422 527.023Q860.9 526.169 860.421 525.29Q859.941 524.411 859.505 523.51Q859.069 522.608 858.679 521.687Q858.288 520.765 857.943 519.825Q857.598 518.885 857.299 517.93Q857 516.974 856.749 516.005Q856.498 515.035 856.295 514.055Q856.108 513.112 855.968 512.161Q855.828 511.211 855.735 510.254Q855.642 509.297 855.597 508.337Q855.551 507.377 855.554 506.416Q855.556 505.455 855.606 504.495Q855.656 503.535 855.754 502.579Q855.852 501.623 855.997 500.673Q856.142 499.722 856.334 498.781Q856.526 497.839 856.764 496.908Q857.002 495.977 857.287 495.058Q857.571 494.14 857.9 493.237Q858.23 492.334 858.604 491.449Q858.978 490.564 859.395 489.698Q859.812 488.832 860.272 487.988Q860.732 487.144 861.233 486.324Q861.734 485.503 862.275 484.709C869.021 474.829 878.142 469.365 889.744 467.114Z"/>
	<path fill="#010101" d="M167.626 608.417L168.508 608.472C169.469 609.139 169.855 609.963 170.308 611.011C174.798 621.381 178.479 633.295 182.473 643.972C193.872 674.443 204.775 705.125 216.603 735.429C206.221 740.681 194.525 744.578 183.707 748.902Q153.528 761.174 123.172 773C122.352 773.252 121.611 773.397 120.768 773.535C118.229 770.979 78.1834 658.244 74.4043 645.458C83.8194 640.988 94.1169 637.556 103.825 633.733Q135.855 621.401 167.626 608.417Z"/>
	<path fill="#5C6FB5" d="M167.022 610.974L167.483 611.086C168.982 612.511 209.621 723.8 213.708 734.393C204.749 737.357 196.04 741.686 187.246 745.178Q155.06 757.901 123.117 771.223C122.377 771.547 122.824 771.472 121.762 771.095C112.026 747.513 104.03 723.005 95.4486 698.98C89.2461 681.614 82.0396 664.181 76.89 646.481C94.0976 640.262 110.979 633.192 127.942 626.353L167.022 610.974Z"/>
	<path fill="#010101" d="M261.941 466.718C258.099 453.763 253.227 441.107 249.009 428.266L211.458 317.24C207.107 304.662 203.024 291.975 198.597 279.429C195.965 271.969 192.092 263.814 190.677 256.041C189.873 251.627 191.242 247.729 193.322 243.888C195.726 239.451 199.32 236.385 204.182 234.908C211.304 232.746 220.642 233.998 228.065 234.01L261.081 234.012L385.024 233.91L663.758 233.955L767.011 234.004C781.864 234.021 796.815 233.578 811.654 233.888C815.651 233.972 819.695 234.626 823.251 236.539C827.978 239.081 831.431 244.002 832.86 249.117C833.929 252.946 833.658 256.609 832.711 260.411C830.689 268.534 827.447 276.567 824.701 284.483Q817.568 305.426 810.17 326.277Q792.621 377.154 775.761 428.264C771.554 440.936 766.719 453.361 762.745 466.116C769.572 472.56 771.454 477.869 771.706 487.178C772.446 514.538 771.807 542.097 771.794 569.477L771.679 718.713L771.743 789.821C771.717 800.36 772.682 812.747 771.166 823.109C770.626 826.798 767.954 831.073 765.474 833.708C760.092 839.427 752.995 840.951 745.461 841.045Q738.765 841.121 732.097 840.499L731.977 874.306C731.955 881.523 730.959 890.285 732.77 897.238C734.573 904.16 739.524 911.166 742.848 917.504L764.322 958.819C769 967.695 776.363 979.182 779.05 988.719C780.538 994 780.508 1018.37 778.972 1024L777.887 1024L777.556 1022.37C736.213 1021.81 694.779 1022.46 653.425 1022.38L610.955 1022.18C603.114 1022.13 594.891 1021.61 587.102 1022.41L586.272 1021.95C585.472 1021 585.527 1020.05 585.463 1018.86C584.908 1008.64 585.478 998.154 585.398 987.899C585.277 972.391 584.628 956.667 585.294 941.179Q585.637 933.643 587.24 926.272C588.63 920.156 591.049 914.097 593.708 908.433C596.114 903.31 600.166 897.261 600.912 891.662C601.685 885.851 601.252 879.565 601.241 873.702Q601.151 857.719 601.348 841.737L509.267 841.638Q472.429 842.049 435.592 841.486C435.631 851.692 434.222 889.289 436.269 896.369C437.397 900.267 439.585 903.97 441.264 907.67C444.504 914.811 447.174 922.306 448.618 930.029Q449.722 936.106 449.912 942.279C450.45 957.711 450 973.305 449.995 988.753C449.992 999.092 450.613 1009.69 450.097 1019.99C450.045 1021.02 450.014 1021.65 449.421 1022.52L448.09 1022.56C441.441 1021.24 262.178 1021.77 257.834 1022.8L256.615 1022.67C255.529 1021.11 255.708 993.246 256.29 989.865C257.464 983.048 262.85 975.232 266.104 969.039C275.813 950.564 286.128 932.439 296.156 914.141C299.162 908.656 303.944 901.815 305.407 895.77C306.832 889.88 305.882 882.081 305.812 875.994C305.681 864.547 305.434 853.042 305.709 841.597C296.502 841.563 276.12 842.773 268.392 840.67Q266.963 840.279 265.6 839.698Q264.237 839.117 262.965 838.357Q261.693 837.596 260.536 836.671Q259.378 835.746 258.357 834.672C254.458 830.617 252.453 825.602 251.934 820.039C251.345 813.732 251.797 807.032 251.82 800.692L251.845 766.516Q251.548 710.893 251.808 655.272L251.684 535.62C251.674 519.421 250.867 502.826 251.565 486.665C251.869 479.611 253.713 474 259.093 469.121Q260.473 467.867 261.941 466.718Z"/>
	<path fill="#5C6FB5" d="M425.977 592.47L430.989 592.283C425.525 598.436 424.798 603.642 422.065 611.143C421.568 608.304 425.129 596.085 425.977 592.47Z"/>
	<path fill="#5C6FB5" d="M649.83 592.479C653 592.366 656.373 592.01 659.523 592.276C656.174 594.91 654.268 597.511 652.273 601.195L649.83 592.479Z"/>
	<path fill="#FEFEFE" d="M374.379 590.262C378.711 589.678 385.473 588.948 389.645 590.21C389.514 590.46 389.396 590.716 389.254 590.959C388.371 592.478 387.336 592.643 385.752 593.09L385.292 593.216C384.252 594.7 384.339 596.302 384.142 598.075C381.163 594.748 378.237 592.489 374.379 590.262Z"/>
	<path fill="#5C6FB5" d="M679.854 592.252Q690.417 592.115 700.98 592.144C700.964 596.093 700.116 615.86 701.495 618.366C697.662 621.133 695.537 623.125 693.438 627.33C690.321 615.497 688.949 601.09 679.854 592.252Z"/>
	<path fill="#5C6FB5" d="M600.929 559.401L631.839 559.44L631.863 571.51C627.089 571.453 622.97 573.25 619.529 576.562C615.619 580.325 613.434 584.851 613.302 590.262C613.327 590.46 613.35 590.658 613.377 590.856C615.08 603.401 631.915 661.285 630.439 666.936C628.826 657.091 625.108 647.245 622.569 637.561C619.151 624.52 616.797 610.696 612.243 598.023C611.168 595.032 610.109 592.931 607.886 590.612C605.706 588.977 603.428 588.09 600.905 587.164C601.23 577.944 600.944 568.631 600.929 559.401Z"/>
	<path fill="#FEFEFE" d="M573.598 690.948C576.848 689.395 594.614 690.444 599.368 690.496C601.531 699.293 606.703 713.862 606.958 722.206C605.619 725.085 604.141 728.121 600.976 729.347C599.407 729.954 597.694 729.72 596.202 729.022C585.702 724.115 577.537 701.45 573.598 690.948Z"/>
	<path fill="#FEFEFE" d="M438.893 688.686C447.589 688.556 456.568 688.069 465.244 688.679C459.511 700.274 454.406 719.952 443.897 727.816C442.019 729.221 439.746 730.092 437.38 729.68C435.732 729.394 434.399 728.626 433.442 727.212C428.353 719.694 436.981 697.156 438.893 688.686Z"/>
	<path fill="#FEFEFE" d="M496.803 688.01C511.556 687.838 526.533 687.186 541.263 687.834C540.271 689.822 539.267 692.089 538.748 694.25C536.223 704.775 546.418 717.422 551.519 726.184L485.455 726.4C489.991 719.303 495.878 710.857 498.354 702.791C500.074 697.188 499.444 693.141 496.803 688.01Z"/>
	<path fill="#FEFEFE" d="M585.081 780.912C585.175 781.002 585.276 781.086 585.365 781.182C587.53 783.505 589.521 787.314 591.104 790.107C600.047 805.883 602.602 821.433 601.642 839.468C546.301 840.016 490.813 840.113 435.473 839.472C435.353 832.767 434.59 825.429 435.66 818.814C437.99 807.952 443.182 797.15 448.876 787.655C448.987 800.41 449.98 813.37 450.934 826.094C495.482 825.143 540.183 826.22 584.747 826.022C584.886 811.009 584.184 795.906 585.081 780.912Z"/>
	<path fill="#5C6FB5" d="M447.709 656.651C447.973 656.911 448.163 657.28 448.503 657.43C449.526 657.881 576.535 657.582 589.238 657.461Q589.951 657.453 590.663 657.429C593.496 668.312 597.383 679.471 599.368 690.496C594.614 690.444 576.848 689.395 573.598 690.948C572.238 688.009 570.664 685.373 568.097 683.326C564.21 680.227 559.392 679.165 554.501 679.804C548.78 680.551 544.743 683.429 541.263 687.834C526.533 687.186 511.556 687.838 496.803 688.01C493.191 683.148 489.058 679.147 482.741 678.292C478.201 677.678 474.223 678.988 470.661 681.797C468.259 683.69 466.82 686.118 465.244 688.679C456.568 688.069 447.589 688.556 438.893 688.686C441.692 678.097 444 666.937 447.709 656.651Z"/>
	<path fill="#FEFEFE" d="M484.261 728.457C507.047 728.676 530.017 727.41 552.771 728.569C562.671 744.833 573.639 760.846 582.742 777.551C582.055 792.9 582.562 808.446 582.632 823.816C571.978 824.055 561.265 823.854 550.606 823.851L452.647 823.979C452.322 810.522 451.557 797.055 451.115 783.597C457.462 774.188 463.003 764.121 468.803 754.358C473.93 745.728 479.414 737.244 484.261 728.457Z"/>
	<path fill="#ED3434" d="M308.009 852.102C349.815 852.241 391.648 852.788 433.452 852.401Q433.637 866.193 433.423 879.985C433.378 885.509 432.565 892.458 433.916 897.833C434.669 900.825 436.99 903.527 438.318 906.303C442.708 915.481 446.27 925.97 447.223 936.122C447.978 944.155 447.621 952.445 447.629 960.513L447.662 1001.6C447.678 1008.51 447.333 1015.7 448.09 1022.56C441.441 1021.24 262.178 1021.77 257.834 1022.8C259.843 1011.95 256.411 1000.03 258.698 989.173C260.111 982.459 271.82 962.9 275.789 955.681C286.421 936.348 297.309 917.101 307.413 897.486L365.868 897.469C372.975 897.462 395.836 898.504 401.077 896.68L401.225 896.01C399.807 895.073 398.454 894.849 396.783 894.742C387.679 894.155 378.014 894.844 368.861 894.872L308.006 895.037Q307.893 873.569 308.009 852.102Z"/>
	<path fill="#ED3434" d="M603.536 850.214L729.582 850.153L729.685 894.64L664.715 894.467C654.655 894.421 643.991 893.646 633.984 894.429C633.275 894.484 632.798 894.709 632.215 895.096L632.031 895.98C632.93 896.76 633.835 896.85 634.986 896.942C641.543 897.466 648.613 896.926 655.224 896.933L703.235 896.991C711.859 896.994 720.716 896.534 729.306 897.14C732.997 902.473 735.774 908.683 738.769 914.447L753.175 942.16L766.973 968.82C770.408 975.404 775.218 982.777 777.025 989.996C778.772 996.977 777.399 1014.21 777.556 1022.37C736.213 1021.81 694.779 1022.46 653.425 1022.38L610.955 1022.18C603.114 1022.13 594.891 1021.61 587.102 1022.41C588.651 1015.3 587.625 1006.12 587.598 998.806L587.451 959.732C587.418 950.222 586.847 940.397 588.459 930.991C589.878 922.713 592.914 914.846 596.706 907.381C598.725 903.406 601.247 899.329 602.517 895.046C604.871 887.11 603.369 860.197 603.536 850.214Z"/>
	<path fill="#FEFEFE" d="M629.964 573.59C635.09 573.176 640.052 574.87 643.182 579.11C647.464 584.908 650.057 601.466 651.897 609.017L663.047 653.586C665.077 661.641 666.839 670.468 669.542 678.284C669.983 679.556 670.173 680.253 671.273 681.043C671.883 679.877 671.717 679.101 671.495 677.843C670.406 671.67 668.215 665.648 666.701 659.575C662.227 641.63 657.262 623.676 653.352 605.608C654.78 601.273 656.812 597.274 660.62 594.532C664.216 591.942 668.594 591.499 672.862 592.346C676.296 593.027 680.243 594.781 682.323 597.728C686.933 604.258 690.508 625.634 692.757 634.356L701.443 667.09C702.956 672.78 703.595 679.31 706.848 684.315L707.269 684.156C707.105 676.078 703.45 667.34 701.354 659.512Q697.761 645.821 694.632 632.016C695.621 628.971 696.601 625.924 698.896 623.583Q699.415 623.058 699.982 622.586Q700.549 622.114 701.16 621.699Q701.77 621.284 702.418 620.93Q703.065 620.576 703.744 620.286Q704.423 619.997 705.127 619.774Q705.831 619.552 706.553 619.399Q707.275 619.246 708.009 619.163Q708.742 619.081 709.48 619.07C713.734 619.033 718.071 620.852 721.071 623.848C723.151 625.926 724.636 628.509 725.743 631.215C729.062 639.33 730.753 648.378 733.169 656.821C735.376 664.533 739.457 673.174 739.932 681.133C740.31 687.46 738.653 694.174 737.576 700.399C735.411 712.917 732.592 725.618 731.571 738.278C728.649 774.484 730.018 811.374 729.777 847.703C698.126 848.23 666.408 847.834 634.75 847.832L603.876 847.929C603.974 835.453 604.592 822.544 601.721 810.322C597.363 791.773 583.258 773.85 573.213 757.857Q562.493 740.56 552.152 723.034C548.637 717.094 544.517 711.023 541.884 704.653C539.881 699.808 540.007 696.121 542.108 691.302C543.877 687.246 546.956 684.174 551.184 682.738C557.776 680.499 565.17 682.117 569.415 687.836C571.604 690.786 572.726 694.983 574.108 698.41C578.153 708.442 585.32 726.543 595.635 731.224C597.732 732.176 600.037 732.433 602.174 731.456C606.023 729.695 607.994 725.261 609.361 721.522C608.6 716.487 607.033 711.592 605.721 706.68L599.07 681.93C594.134 663.725 589.77 645.423 585.346 627.093C583.617 619.927 580.096 611.599 580.162 604.22C580.198 600.126 581.736 596.57 584.715 593.753C588.184 590.473 592.925 588.526 597.727 588.843C601.692 589.106 605.587 591.055 607.872 594.363C613.433 602.414 618.712 630.571 621.526 641.258C624.611 652.977 628.021 664.638 631.245 676.322C632.237 679.92 633.409 687.83 635.843 690.557L636.759 690.238C638.44 685.886 630.065 652.1 628.375 645.871C625.314 634.59 622.802 623.096 620.136 611.715C618.426 604.412 615.182 595.37 615.412 587.936C615.472 585.962 616.402 583.945 617.41 582.283C620.293 577.531 624.712 574.943 629.964 573.59Z"/>
	<path fill="#FEFEFE" d="M342.86 631.257C340.245 643.863 327.788 679.423 328.588 689.277C328.594 689.269 328.6 689.259 328.607 689.252L329.003 688.887L328.61 688.754L329.199 688.481C332.326 680.718 333.937 671.915 336.114 663.811C339.864 649.849 343.851 635.994 347.366 621.966C349.163 614.793 350.404 605.683 353.634 599.067C355.1 596.066 357.829 593.718 360.851 592.361C365.036 590.482 371.271 591.005 375.421 592.743C378.833 594.171 381.24 596.695 382.571 600.146C383.572 602.741 383.838 605.464 383.523 608.218C382.696 615.464 379.708 622.889 377.735 629.895Q372.283 648.715 367.638 667.75C366.763 671.225 364.572 676.372 364.88 679.863L365.528 680.144C366.44 679.397 366.925 678.724 367.302 677.593C369.625 670.618 371.289 661.627 373.226 654.34Q379.556 630.824 386.305 607.424C388.664 599.191 390.964 586.409 396.138 579.726C399.526 575.35 404.935 573.257 410.395 573.714C414.457 574.055 418.087 575.84 420.673 579.016C423.769 582.819 424.643 587.342 424.086 592.127C422.965 601.746 419.201 611.681 416.818 621.101C412.621 637.696 408.876 654.411 404.802 671.038C403.424 676.662 400.202 684.278 400.706 689.996L401.295 690.451C403.409 688.112 404.137 682.177 404.924 679.035Q413.286 646.413 423.575 614.347C425.299 608.802 426.171 601.454 429.603 596.71C432.664 592.479 437.891 590.069 443.048 589.892C446.995 589.757 451.507 590.963 454.421 593.723C456.951 596.12 459.418 600.228 459.476 603.818C459.594 611.015 455.462 621.637 453.436 628.744Q444.002 661.672 435.272 694.794C433.502 701.481 429.719 712.023 429.431 718.516C429.261 722.372 430.023 726.35 432.798 729.211C434.404 730.868 436.571 731.857 438.892 731.845C442.696 731.824 445.805 729.276 448.267 726.628C455.619 718.722 459.632 706.823 463.845 697.017C465.559 693.028 467.204 688.669 470.043 685.32C472.557 682.354 475.782 680.478 479.721 680.344C484.009 680.197 488.589 682.19 491.679 685.106C494.766 688.021 496.921 692.27 497.057 696.551C497.154 699.605 496.162 702.485 494.962 705.248C490.928 714.534 485.037 723.278 479.811 731.938Q467.316 752.537 455.11 773.308C451.307 779.703 447.078 785.842 443.604 792.428C439.878 799.491 436.493 806.791 434.52 814.559C431.616 825.989 433.264 840.578 433.452 852.401C391.648 852.788 349.815 852.241 308.009 852.102C308.279 814.431 309.744 776.183 306.63 738.623C305.611 726.333 302.409 713.596 300.111 701.425C299.322 697.245 297.742 692.387 297.898 688.156C298.171 680.766 304.034 663.393 306.133 655.438C308.088 648.029 309.466 640.15 311.979 632.929C312.954 630.124 314.166 627.146 316.298 625.029C319.513 621.838 323.642 620.35 328.145 620.47C332.286 620.58 336.053 621.432 338.949 624.556C340.776 626.528 341.79 628.837 342.86 631.257Z"/>
	<path fill="#FEFEFE" d="M305.955 839.442C296.587 839.545 278.065 840.881 269.728 838.841C266.508 838.053 263.512 836.619 261.011 834.425C256.247 830.246 254.455 824.981 253.999 818.848C253.515 812.339 253.818 805.643 253.844 799.111L253.909 763.38Q253.509 694.275 253.9 625.172L253.758 528.533L253.667 500.057C253.648 494.61 253.346 488.949 253.836 483.524C254.239 479.066 256.025 475.69 258.965 472.357C263.716 466.971 269.491 465.232 276.436 464.938C286.935 464.492 297.613 464.902 308.133 464.926L365.945 464.983L542.039 464.965L683.29 465.011L725.502 464.918C733.286 464.864 741.371 464.354 749.129 464.854C754.464 465.197 759.775 467.004 763.69 470.749C769.078 475.905 769.562 481.062 769.752 488.068C770.332 509.441 769.703 531.016 769.706 552.412L769.678 691.3L769.68 775.979C769.676 789.541 770.6 805.3 769.406 818.566C768.899 824.192 767.84 828.329 763.698 832.508C755.549 840.733 742.604 839.058 732.074 838.882C731.72 825.744 732.017 812.519 732.012 799.372C732.004 778.001 731.896 756.664 734.055 735.37C735.251 723.572 737.672 711.844 739.695 700.164C740.74 694.13 742.23 687.659 742.154 681.53C742.051 673.282 736.058 665.756 735.794 657.61C735.785 657.328 735.788 657.047 735.785 656.765C734.17 653.75 733.492 650.045 732.576 646.756C730.459 639.154 728.514 631.695 724.88 624.64L722.393 622.142C721.82 621.604 721.23 621.115 720.591 620.656C715.297 616.85 710.252 616.365 704.018 617.417L701.495 618.366C700.116 615.86 700.964 596.093 700.98 592.144Q690.417 592.115 679.854 592.252L674.646 590.291L669.067 589.545L665.989 590.2L664.965 590.171L659.523 592.276C656.373 592.01 653 592.366 649.83 592.479L649.099 589.569C649.346 586.601 647.834 582.516 646.349 579.989C643.553 575.23 639.737 572.808 634.51 571.442L631.863 571.51L631.839 559.44L600.929 559.401C600.944 568.631 601.23 577.944 600.905 587.164L599.065 586.908C594.354 586.854 590.639 587.37 586.418 589.66L583.258 592.091C579.565 596.752 577.678 600.695 578.313 606.84C578.849 612.036 580.772 617.456 582.146 622.507L582.704 625.322Q586.171 639.938 589.839 654.506L590.663 657.429Q589.951 657.453 589.238 657.461C576.535 657.582 449.526 657.881 448.503 657.43C448.163 657.28 447.973 656.911 447.709 656.651L448.256 654.515C449.72 650.99 450.45 646.888 451.424 643.184Q453.85 633.84 456.599 624.586C458.994 618.486 460.208 611.824 461.703 605.451C461.528 604.555 461.666 603.97 461.812 603.08C459.792 596.372 457.71 592.914 451.505 589.546C445.918 587.562 441.355 586.896 435.776 589.548C434.861 589.983 433.961 590.423 433.102 590.962L430.989 592.283L425.977 592.47L425.898 590.493C426.449 588.187 426.944 586.293 426.18 583.985L424.541 579.965Q423.423 578.703 422.24 577.501C418.649 573.894 413.567 571.425 408.419 571.533C401.937 571.669 397.302 575.189 392.957 579.581L391.235 583.091C390.646 585.218 389.475 588.02 389.645 590.21C385.473 588.948 378.711 589.678 374.379 590.262C368.978 588.864 363.987 588.8 358.836 591.211L356.346 592.721C348.355 602.068 349.109 612.118 344.823 622.853C344.552 624.112 344.431 625.357 343.543 626.348L342.401 625.963C341.011 624.189 339.497 622.734 337.844 621.215C332.832 618.557 328.413 617.249 322.763 618.91C320.17 619.673 318.036 620.951 315.865 622.525L313.093 625.325C308.093 635.215 307.316 646.272 303.716 656.595L303.318 658.554C300.913 668.098 298.274 677.698 295.466 687.133C295.351 691.968 297.231 697.347 298.163 702.11C300.341 713.236 302.796 724.731 304.036 735.996C306.096 754.71 306.104 773.594 306.16 792.396Q306.395 815.921 305.955 839.442Z"/>
	<path fill="#5C6FB5" d="M724.88 624.64L735.896 624.578C735.889 631.801 736.853 651.04 735.785 656.765C734.17 653.75 733.492 650.045 732.576 646.756C730.459 639.154 728.514 631.695 724.88 624.64Z"/>
	<path fill="#5C6FB5" d="M456.599 624.586C458.007 625.019 458.957 624.965 459.771 626.254C460.655 635.477 459.903 645.241 459.796 654.52L448.256 654.515C449.72 650.99 450.45 646.888 451.424 643.184Q453.85 633.84 456.599 624.586Z"/>
	<path fill="#5C6FB5" d="M341.032 592.762L356.346 592.721C348.355 602.068 349.109 612.118 344.823 622.853L344.172 622.119C342.983 622.091 342.242 622.171 341.228 621.468C340.127 612.226 340.991 602.101 341.032 592.762Z"/>
	<path fill="#5C6FB5" d="M303.318 658.554C300.913 668.098 298.274 677.698 295.466 687.133C293.347 687.072 291.467 687.09 289.481 686.229C287.274 683.637 288.384 663.195 288.397 658.592L303.318 658.554Z"/>
	<path fill="#5C6FB5" d="M565.456 592.066Q574.357 592.158 583.258 592.091C579.565 596.752 577.678 600.695 578.313 606.84C578.849 612.036 580.772 617.456 582.146 622.507L565.386 622.501L565.456 592.066Z"/>
	<path fill="#5C6FB5" d="M392.934 559.321L424.483 559.401C424.492 566.248 424.382 573.12 424.541 579.965Q423.423 578.703 422.24 577.501C418.649 573.894 413.567 571.425 408.419 571.533C401.937 571.669 397.302 575.189 392.957 579.581L392.934 559.321Z"/>
	<path fill="#5C6FB5" d="M288.211 625.272L313.093 625.325C308.093 635.215 307.316 646.272 303.716 656.595C301.181 654.701 291.751 655.781 288.34 655.85L288.211 625.272Z"/>
	<path fill="#5C6FB5" d="M582.704 625.322Q586.171 639.938 589.839 654.506L565.472 654.498L565.458 625.344Q574.081 625.462 582.704 625.322Z"/>
	<path fill="#5C6FB5" d="M634.515 559.383L666.008 559.447L665.989 590.2L664.965 590.171L659.523 592.276C656.373 592.01 653 592.366 649.83 592.479L649.099 589.569C649.346 586.601 647.834 582.516 646.349 579.989C643.553 575.23 639.737 572.808 634.51 571.442L634.515 559.383Z"/>
	<path fill="#FEFEFE" d="M649.099 589.569C652.812 589.503 661.949 588.357 664.965 590.171L659.523 592.276C656.373 592.01 653 592.366 649.83 592.479L649.099 589.569Z"/>
	<path fill="#5C6FB5" d="M704.078 592.133L735.849 592.123L735.91 621.705C731.504 621.71 726.727 621.339 722.393 622.142C721.82 621.604 721.23 621.115 720.591 620.656C715.297 616.85 710.252 616.365 704.018 617.417L704.078 592.133Z"/>
	<path fill="#5C6FB5" d="M531.762 625.213C541.961 625.517 552.208 625.328 562.412 625.34L562.44 654.511L531.669 654.492Q531.548 639.852 531.762 625.213Z"/>
	<path fill="#5C6FB5" d="M497.325 625.213C507.754 625.46 518.217 625.309 528.65 625.327Q528.77 639.913 528.698 654.499L497.35 654.497C497.16 644.748 497.325 634.966 497.325 625.213Z"/>
	<path fill="#5C6FB5" d="M600.641 494.347L631.699 494.291L631.621 523.894C621.325 524.103 610.981 523.914 600.681 523.907L600.641 494.347Z"/>
	<path fill="#5C6FB5" d="M559.696 494.248C560.625 494.2 561.331 494.304 562.234 494.521C563.562 497.987 562.626 518.759 562.593 523.873C553.365 524.058 544.106 523.907 534.875 523.911C533.533 523.885 532.827 524.124 531.727 523.274C530.598 513.982 531.504 503.707 531.558 494.297Q545.627 494.398 559.696 494.248Z"/>
	<path fill="#5C6FB5" d="M462.846 625.082L494.199 625.238L494.21 654.533L462.788 654.52L462.846 625.082Z"/>
	<path fill="#5C6FB5" d="M531.828 559.244C542.044 559.42 552.276 559.32 562.494 559.336L562.417 589.346Q547.023 589.163 531.627 589.186C531.612 579.31 531.12 569.085 531.828 559.244Z"/>
	<path fill="#5C6FB5" d="M354.972 494.254L355.225 494.495C356.446 499.684 355.523 517.459 355.507 523.956L325.087 523.96C325.031 523.917 324.964 523.885 324.919 523.831C323.637 522.283 324.29 498.051 324.282 494.335L354.972 494.254Z"/>
	<path fill="#5C6FB5" d="M358.719 494.231C369.041 494.396 379.389 494.271 389.714 494.274L389.623 523.99L358.532 523.95C358.491 514.256 357.673 503.82 358.719 494.231Z"/>
	<path fill="#5C6FB5" d="M531.816 592.033L562.327 592.043L562.212 622.5L531.735 622.446L531.816 592.033Z"/>
	<path fill="#5C6FB5" d="M531.616 526.534L562.53 526.512L562.517 556.565L531.563 556.525L531.616 526.534Z"/>
	<path fill="#5C6FB5" d="M462.868 526.755L493.9 526.643L493.906 555.125L493.739 556.148C490.247 557.736 468.083 556.689 462.775 556.676L462.868 526.755Z"/>
	<path fill="#5C6FB5" d="M658.457 494.245L666.003 494.265L666.009 523.929L642.75 523.93L634.599 523.903L634.64 494.275L658.457 494.245Z"/>
	<path fill="#5C6FB5" d="M462.58 494.297L494 494.289L493.963 524.017L462.59 523.998L462.58 494.297Z"/>
	<path fill="#5C6FB5" d="M600.789 526.509L631.785 526.587C631.936 536.509 631.772 546.451 631.737 556.375C625.982 557.643 607.944 556.695 600.796 556.673L600.789 526.509Z"/>
	<path fill="#5C6FB5" d="M393.344 494.249L424.422 494.28L424.371 523.974C413.923 524.22 403.403 523.988 392.948 523.98C393.074 516.412 391.817 500.853 393.344 494.249Z"/>
	<path fill="#5C6FB5" d="M669.685 494.249L700.565 494.191L700.551 524.01L669.071 523.966C669.125 519.398 668.334 496.59 669.685 494.249Z"/>
	<path fill="#5C6FB5" d="M358.622 526.518L389.624 526.535L389.679 556.663L358.583 556.694L358.622 526.518Z"/>
	<path fill="#5C6FB5" d="M462.675 559.418L493.975 559.416L494.018 589.252L462.56 589.172L462.675 559.418Z"/>
	<path fill="#5C6FB5" d="M634.86 526.753L665.989 526.734L665.987 555.934L665.574 556.391C658.922 557.597 642.171 556.66 634.572 556.638C634.62 546.771 634.069 536.573 634.86 526.753Z"/>
	<path fill="#5C6FB5" d="M527.974 526.767C529.169 527.988 528.516 552.867 528.503 556.547L497.583 556.554C496.173 554.998 496.958 530.704 496.969 526.754C507.297 526.913 517.643 526.779 527.974 526.767Z"/>
	<path fill="#5C6FB5" d="M324.398 526.495L355.57 526.491C355.69 536.555 355.599 546.635 355.607 556.701L324.449 556.676L324.398 526.495Z"/>
	<path fill="#5C6FB5" d="M392.998 526.583C403.467 526.755 413.954 526.627 424.424 526.624L424.418 556.598L392.978 556.617L392.998 526.583Z"/>
	<path fill="#5C6FB5" d="M565.59 494.329L597.536 494.353L597.516 523.87C586.879 524.032 576.211 523.876 565.571 523.87L565.59 494.329Z"/>
	<path fill="#5C6FB5" d="M507.439 559.25L528.497 559.227L528.501 589.273L518.594 589.223L497.06 589.236L497.011 559.269L507.439 559.25Z"/>
	<path fill="#5C6FB5" d="M516.841 494.248L528.764 494.231L528.573 523.975L510.471 523.996L496.931 524.001L496.896 494.263L516.841 494.248Z"/>
	<path fill="#5C6FB5" d="M669.005 526.843L700.603 526.871C700.657 535.96 701.651 548.065 700.375 556.73C689.936 556.975 679.431 556.767 668.989 556.717L669.005 526.843Z"/>
	<path fill="#5C6FB5" d="M497.459 592.031L528.603 592.061Q528.713 607.246 528.651 622.432C518.331 622.424 507.718 622.946 497.435 622.22L497.459 592.031Z"/>
	<path fill="#5C6FB5" d="M565.505 559.382L597.706 559.453C597.675 567.622 597.211 576.098 597.796 584.242C597.895 585.61 597.998 586.056 599.065 586.908C594.354 586.854 590.639 587.37 586.418 589.66C579.657 588.885 572.31 589.412 565.485 589.436L565.505 559.382Z"/>
	<path fill="#5C6FB5" d="M427.428 494.357C438.122 494.456 448.824 494.324 459.519 494.28L459.506 524.048L427.433 524.124L427.428 494.357Z"/>
	<path fill="#5C6FB5" d="M324.854 559.247C335.091 559.451 345.366 559.327 355.607 559.359C355.718 569.56 355.579 579.782 355.559 589.984L324.49 589.985C324.433 582.799 323.328 565.171 324.854 559.247Z"/>
	<path fill="#5C6FB5" d="M703.586 526.979L735.694 526.992C735.962 536.887 735.748 546.833 735.742 556.734C725.04 556.929 714.295 556.731 703.589 556.721L703.586 526.979Z"/>
	<path fill="#5C6FB5" d="M703.573 494.12C714.217 494.32 724.893 494.16 735.54 494.154L735.7 524.111L703.571 524.029L703.573 494.12Z"/>
	<path fill="#5C6FB5" d="M669.006 559.376L700.712 559.416L700.861 589.495C692.331 589.497 683.745 589.294 675.222 589.574C674.635 590.166 674.719 589.871 674.646 590.291L669.067 589.545L669.006 559.376Z"/>
	<path fill="#5C6FB5" d="M703.798 559.398L735.772 559.43L735.828 589.471L703.902 589.425L703.798 559.398Z"/>
	<path fill="#5C6FB5" d="M427.4 526.787L459.524 526.768L459.516 556.677L427.364 556.698L427.4 526.787Z"/>
	<path fill="#5C6FB5" d="M358.631 559.315L390.052 559.372C390.103 564.933 388.746 578.691 391.235 583.091C390.646 585.218 389.475 588.02 389.645 590.21C385.473 588.948 378.711 589.678 374.379 590.262C368.978 588.864 363.987 588.8 358.836 591.211C357.67 583.379 358.609 567.87 358.631 559.315Z"/>
	<path fill="#5C6FB5" d="M565.62 526.498L597.513 526.504L597.535 556.66Q581.533 556.744 565.53 556.657L565.62 526.498Z"/>
	<path fill="#5C6FB5" d="M288.578 494.576L321.24 494.462L321.272 523.923C310.414 524.374 299.353 523.964 288.475 523.965L288.578 494.576Z"/>
	<path fill="#5C6FB5" d="M462.455 592.068L494.252 592.044C494.235 602.162 494.335 612.299 494.189 622.415L462.631 622.23C462.644 618.252 463.708 608.67 461.703 605.451C461.528 604.555 461.666 603.97 461.812 603.08C462.64 599.564 462.411 595.673 462.455 592.068Z"/>
	<path fill="#5C6FB5" d="M427.321 559.413L459.515 559.439L459.518 589.199C456.897 589.262 454.09 589.124 451.505 589.546C445.918 587.562 441.355 586.896 435.776 589.548C434.861 589.983 433.961 590.423 433.102 590.962L430.989 592.283L425.977 592.47L425.898 590.493C426.449 588.187 426.944 586.293 426.18 583.985L426.87 583.503C428.102 575.869 427.361 567.147 427.321 559.413Z"/>
	<path fill="#FEFEFE" d="M425.898 590.493L426.829 589.61C429.039 589.69 431 590.338 433.102 590.962L430.989 592.283L425.977 592.47L425.898 590.493Z"/>
	<path fill="#5C6FB5" d="M288.44 526.502L321.342 526.505L321.394 556.568C310.419 556.824 299.406 556.612 288.427 556.587L288.44 526.502Z"/>
	<path fill="#5C6FB5" d="M288.842 559.249C299.69 559.384 310.555 559.28 321.404 559.294L321.413 589.984L288.301 589.991C288.371 583.126 287.262 564.704 288.842 559.249Z"/>
	<path fill="#010101" d="M365.426 485.748L609.957 485.849L686.526 485.852L708.834 485.828C712.725 485.806 716.928 485.482 720.794 485.9C722.052 486.036 723.261 486.219 724.11 487.228C723.123 488.182 722.341 488.219 721.016 488.335C714.58 488.898 707.635 488.395 701.152 488.393L660.75 488.373L422.94 488.371L341.19 488.398C329.652 488.405 317.998 488.859 306.483 488.588C304.623 488.545 303.037 488.131 301.415 487.234L301.353 486.587C306.041 484.671 356.592 485.749 365.426 485.748Z"/>
	<path fill="#5C6FB5" d="M288.286 592.605Q313.099 592.859 337.913 592.704Q337.951 606.96 337.844 621.215C332.832 618.557 328.413 617.249 322.763 618.91C320.17 619.673 318.036 620.951 315.865 622.525C306.674 622.188 297.373 622.481 288.17 622.479L288.286 592.605Z"/>
	<path fill="#FEFEFE" d="M208.513 246.575C224.735 245.879 241.262 246.507 257.51 246.504L355.417 246.511L641.421 246.483L763.933 246.49L797.858 246.451C803.066 246.447 809.299 245.802 814.407 246.759C816.258 247.106 818.557 248.529 819.403 250.269C820.342 252.201 820.201 254.292 819.72 256.33C817.772 264.589 814.492 272.827 811.766 280.87L797.652 322.239C787.979 349.738 779.028 377.506 769.454 405.046C764.549 420.595 759.294 436.278 753.287 451.434L270.42 451.505C264.614 436.833 259.935 421.666 254.871 406.723L230.709 335.488L212.667 283.258C209.842 274.976 206.746 266.685 204.358 258.267C203.75 256.123 203.119 253.627 203.729 251.414C204.397 248.994 206.456 247.72 208.513 246.575Z"/>
	<path fill="#F7C11B" d="M307.746 251.747L642.259 251.744L753.82 251.585C772.1 251.553 790.505 251.08 808.773 251.544C810.948 251.599 813.418 251.593 815.397 252.553C815.629 257.335 804.74 287.435 802.607 293.776Q788.358 336.748 773.522 379.521C765.685 401.813 757.156 423.971 749.99 446.481C739.266 446.23 728.48 446.425 717.75 446.417L274.016 446.356C268.941 434.055 265.332 421.245 260.984 408.69L237.903 342.269Q227.378 311.976 217.335 281.519C214.164 271.76 210.563 261.968 208.305 251.958C220.031 251.362 231.953 251.817 243.703 251.825L307.746 251.747Z"/>
</svg>
