<?xml version="1.0" encoding="utf-8" ?>
<svg xmlns="http://www.w3.org/2000/svg" xmlns:xlink="http://www.w3.org/1999/xlink" width="1024" height="1024">
	<path fill="white" d="M0 0L1024 0L1024 1024L0 1024L0 0Z"/>
	<path fill="#28266C" d="M912.732 511.001C915.835 508.317 919.013 505.257 922.593 503.246L924.825 504.437C920.045 507.9 916.218 511.258 912.609 515.929L911.169 514.675C911.847 513.499 912.273 512.272 912.732 511.001Z"/>
	<path fill="#28266C" d="M502.315 975.515C503.661 974.468 505.121 973.726 506.628 972.934C510.734 973.889 557.261 973.972 562.68 973.198C564.287 973.766 565.388 974.501 566.741 975.529C545.336 976.102 523.734 975.679 502.315 975.515Z"/>
	<path fill="#6375B7" d="M955.747 722.789C966.294 716.488 1012.39 686.694 1019.81 685.446L1019.13 687.802C1001.83 697.553 985.02 708.295 967.913 718.409C962.623 721.537 957.109 725.752 951.571 728.219C951.439 727.924 951.498 727.576 951.481 727.253C954.772 725.908 958.016 723.272 960.997 721.296L960.361 721.058Q958.49 722.047 956.655 723.1L955.747 722.789Z"/>
	<path fill="#6375B7" d="M909.703 558.309C909.917 558.496 910.138 558.677 910.347 558.871C912.203 560.595 933.34 605.405 933.366 607.63C933.37 607.985 933.318 608.339 933.297 608.694C933.231 609.832 933.12 610.859 933.754 611.86C942.338 608.283 950.274 601.529 958.392 596.839L959.165 597.334Q946.954 605.309 934.509 612.913C927.678 637.378 918.702 661.274 912.574 685.923C933.666 673.453 954.298 660.062 975.025 646.991C983.739 641.496 995.626 635.562 1003.08 628.889L1004.38 631.126C988.666 642.13 972.11 652.099 955.801 662.189C940.842 671.444 926.084 680.916 910.993 689.968L909.415 689.494L908.637 688.004L908.649 687.574C904.314 677.029 899.049 666.745 894.251 656.398C887.328 641.468 880.853 626.342 874.051 611.358C869.157 600.576 863.83 590.038 859.241 579.111C860.414 579.024 860.442 578.878 861.327 578.074C866.521 587.267 870.453 597.848 874.883 607.491C886.402 632.572 897.421 658.117 909.751 682.798C910.832 682.346 910.812 681.92 911.373 680.933C912.365 673.36 915.657 665.282 917.949 657.952C923.004 641.793 928.42 625.726 933.206 609.486C927.843 593.169 916.585 574.784 909.703 558.309Z"/>
	<path fill="#28266C" d="M611.328 975.578C612.336 974.745 613.434 974.07 614.535 973.37C625.196 973.772 635.954 973.454 646.624 973.421L704.286 973.245L854.539 973.423C855.637 973.444 856.754 973.516 857.849 973.439L953.656 973.159C968.99 973.161 984.628 972.56 999.932 973.308C1001.3 973.374 1002.48 973.491 1003.67 974.217C1003.11 975.078 1002.73 975.051 1001.75 975.265C996.101 976.512 980.552 975.531 973.659 975.543L899.461 975.626L712.367 975.618C678.714 975.628 644.97 976.189 611.328 975.578Z"/>
	<path fill="#28266C" d="M158.188 878.205C159.443 885.166 158.445 893.54 158.464 900.657L158.52 955.52C158.523 961.262 157.667 969.609 158.885 975.017C159.296 974.903 159.749 974.606 160.13 974.408C161.403 971.088 160.5 960.694 160.504 956.763L160.508 913.629C160.507 905.252 160.09 896.58 160.896 888.242C161.349 916.625 160.937 945.067 160.937 973.458L353.761 973.232L420.697 973.378C431.713 973.392 443.034 974.029 454.009 973.333C455.986 973.842 457.353 974.315 459.023 975.511C446.457 975.998 433.787 975.657 421.21 975.625L355.698 975.495L159.094 975.863C126.086 975.08 92.9245 975.682 59.9019 975.692C52.3388 975.694 20.4609 976.803 16.0024 975.077L15.7172 974.33C16.6729 973.401 17.929 973.334 19.2061 973.265C33.8473 972.474 50.5819 973.227 65.4894 973.221L158.11 973.427L158.041 911.999C158.028 900.774 157.603 889.403 158.188 878.205Z"/>
	<path fill="#343D95" d="M866.928 493.71L907.734 476.982C912.722 474.979 917.702 472.628 922.783 470.904C921.054 478.898 918.978 486.772 916.786 494.65C915.353 499.799 913.131 505.679 912.732 511.001C912.273 512.272 911.847 513.499 911.169 514.675L912.609 515.929C908.293 523.234 905.737 528.838 904.983 537.324C907.639 552.074 915.701 564.915 922.006 578.363C926.05 586.987 929.63 596.082 934.445 604.297C941.258 585.576 946.671 565.417 952.613 546.346C954.63 539.872 956.066 532.531 958.761 526.36C958.293 530.625 958.31 535.108 957.463 539.299C955.999 546.541 952.929 553.813 950.711 560.874Q943.141 584.809 935.845 608.829C940.302 606.259 967.853 587.824 969.692 587.716C969.989 587.699 970.271 587.86 970.56 587.931L971.557 589.487C967.52 592.078 963.421 595.156 959.165 597.334L958.392 596.839C950.274 601.529 942.338 608.283 933.754 611.86C933.12 610.859 933.231 609.832 933.297 608.694C933.318 608.339 933.37 607.985 933.366 607.63C933.34 605.405 912.203 560.595 910.347 558.871C910.138 558.677 909.917 558.496 909.703 558.309C907.917 555.81 906.659 552.37 905.303 549.581L903.027 554.43C899.979 552.488 896.788 550.727 893.646 548.941C893.242 547.806 891.323 547.166 890.217 546.649C883.411 543.47 875.762 542.242 868.62 545.067C863.181 547.218 858.171 551.364 855.816 556.807C854.469 559.918 853.967 563.593 854.752 566.914C850.971 568.932 847.16 570.92 843.128 572.401C844.593 567.035 851.004 558.674 854.048 553.599Q858.812 545.737 862.895 537.501C876.721 532.367 890.861 528.082 904.803 523.275L905.84 522.394C901.894 522.082 868.431 534.298 863.211 536.55C869.116 522.165 872.628 508.77 866.928 493.71Z"/>
	<defs>
		<linearGradient id="gradient_0" gradientUnits="userSpaceOnUse" x1="808.27155" y1="817.99689" x2="982.42096" y2="764.59015">
			<stop offset="0" stop-color="#33409C"/>
			<stop offset="1" stop-color="#6573BD"/>
		</linearGradient>
	</defs>
	<path fill="url(#gradient_0)" d="M828.941 641.111L885.381 760.925C891.098 745.727 895.602 729.954 900.607 714.509C903.098 706.822 907.934 695.704 908.637 688.004L909.415 689.494L910.993 689.968C909.977 696.156 907.034 702.88 905.133 708.919C899.538 726.697 893.374 744.375 888.071 762.229C896.784 758.233 904.887 752.973 913.093 748.051L941.994 730.904C946.512 728.213 951.057 725.131 955.747 722.789L956.655 723.1Q958.49 722.047 960.361 721.058L960.997 721.296C958.016 723.272 954.772 725.908 951.481 727.253C951.498 727.576 951.439 727.924 951.571 728.219L951.199 728.48C944.689 732.974 937.583 736.821 930.751 740.812L901.534 757.948C897.315 760.401 890.507 763.007 887.109 766.424C884.93 768.616 864.157 833.969 862.353 841.212L938.993 798.393Q954.381 789.871 969.488 780.861C974.731 777.752 980.264 774.807 985.152 771.157C981.737 764.654 977.695 759.658 971.925 755.075C970.064 753.597 967.609 752.15 966.129 750.298C974.947 753.916 983.192 763.626 986.717 772.34C987.52 774.324 988.056 776.568 988.19 778.7C987.178 777.585 987.012 775.616 986.71 774.175C944.618 797.193 903.753 822.575 861.189 844.759C859.724 848.26 858.542 851.724 857.995 855.495C856.868 863.257 856.912 885.845 857.925 893.671C857.394 907.579 857.827 921.642 857.833 935.566C857.839 948.151 857.38 960.876 857.849 973.439C856.754 973.516 855.637 973.444 854.539 973.423C855.122 963.808 854.607 953.831 854.595 944.174L854.521 886.119L854.603 707.472C854.251 706.849 853.889 706.221 853.351 705.732C850.358 703.014 828.37 704.238 823.209 704.094C822.223 703.155 821.116 702.503 819.963 701.796C816.608 702.044 813.302 701.985 809.941 701.9Q814.128 695.487 818.601 689.271C817.667 672.439 818.61 659.284 827.179 644.445C827.662 643.304 828.35 642.203 828.941 641.111Z"/>
	<path fill="white" d="M827.179 644.445C832.173 652.76 854.554 697.039 856.221 704.123C856.453 705.361 856.665 706.137 857.367 707.189L857.64 710.234C856.748 710.172 856.26 710.071 855.436 709.798L854.603 707.472C854.251 706.849 853.889 706.221 853.351 705.732C850.358 703.014 828.37 704.238 823.209 704.094C822.223 703.155 821.116 702.503 819.963 701.796C816.608 702.044 813.302 701.985 809.941 701.9Q814.128 695.487 818.601 689.271C817.667 672.439 818.61 659.284 827.179 644.445Z"/>
	<path fill="#28266C" d="M809.941 701.9Q814.128 695.487 818.601 689.271C819.318 693.346 819.918 697.471 821.262 701.397C829.225 701.61 845.383 700.178 852.279 701.988C853.746 702.373 855.001 703.255 856.221 704.123C856.453 705.361 856.665 706.137 857.367 707.189L857.64 710.234C856.748 710.172 856.26 710.071 855.436 709.798L854.603 707.472C854.251 706.849 853.889 706.221 853.351 705.732C850.358 703.014 828.37 704.238 823.209 704.094C822.223 703.155 821.116 702.503 819.963 701.796C816.608 702.044 813.302 701.985 809.941 701.9Z"/>
	<path fill="white" d="M857.367 707.189C857.69 707.391 858.081 707.512 858.335 707.795C860.7 710.434 881.855 758.986 883.931 764.593C881.355 775.683 876.847 786.652 873.388 797.517C868.395 813.193 864.104 829.679 857.954 844.927C856.375 811.469 857.796 777.631 857.737 744.128L857.76 721.088C857.757 717.567 858.054 713.721 857.64 710.234L857.367 707.189Z"/>
	<path fill="white" d="M854.752 566.914C853.967 563.593 854.469 559.918 855.816 556.807C858.171 551.364 863.181 547.218 868.62 545.067C875.762 542.242 883.411 543.47 890.217 546.649C891.323 547.166 893.242 547.806 893.646 548.941C896.788 550.727 899.979 552.488 903.027 554.43L905.303 549.581C906.659 552.37 907.917 555.81 909.703 558.309C916.585 574.784 927.843 593.169 933.206 609.486C928.42 625.726 923.004 641.793 917.949 657.952C915.657 665.282 912.365 673.36 911.373 680.933C910.812 681.92 910.832 682.346 909.751 682.798C897.421 658.117 886.402 632.572 874.883 607.491C870.453 597.848 866.521 587.267 861.327 578.074C860.442 578.878 860.414 579.024 859.241 579.111C857.904 576.164 856.705 573.185 855.541 570.166C855.542 568.848 855.249 568.104 854.752 566.914Z"/>
	<path fill="#28266C" d="M854.752 566.914C853.967 563.593 854.469 559.918 855.816 556.807C858.171 551.364 863.181 547.218 868.62 545.067C875.762 542.242 883.411 543.47 890.217 546.649C891.323 547.166 893.242 547.806 893.646 548.941C885.102 545.734 876.846 544.03 868.066 547.907C863.685 549.841 860.011 552.949 858.356 557.547C857.124 560.973 857.041 565.251 857.736 568.823C858.88 571.926 859.979 575.051 861.327 578.074C860.442 578.878 860.414 579.024 859.241 579.111C857.904 576.164 856.705 573.185 855.541 570.166C855.542 568.848 855.249 568.104 854.752 566.914Z"/>
	<path fill="white" d="M854.752 566.914C855.249 568.104 855.542 568.848 855.541 570.166C856.705 573.185 857.904 576.164 859.241 579.111C863.83 590.038 869.157 600.576 874.051 611.358C880.853 626.342 887.328 641.468 894.251 656.398C899.049 666.745 904.314 677.029 908.649 687.574L908.637 688.004C907.934 695.704 903.098 706.822 900.607 714.509C895.602 729.954 891.098 745.727 885.381 760.925L828.941 641.111C837.861 629.012 849.97 617.968 855.03 603.511C857.242 597.193 858.446 588.098 855.281 581.99C852.522 576.665 848.592 576.504 843.572 574.695C842.514 574.314 842.926 574.645 842.396 573.519L843.128 572.401C847.16 570.92 850.971 568.932 854.752 566.914Z"/>
	<path fill="#2A2626" d="M355.465 34.9524C355.731 34.942 355.997 34.9359 356.263 34.9212C361.442 34.6345 367.692 31.9878 372.856 30.7911Q388.874 27.129 405.122 24.6775C425.189 21.6253 445.171 20.1325 465.425 19.1788C509.26 17.1147 575.539 17.0097 610.731 46.9846C624.368 58.6002 634.956 72.3487 645.642 86.5856C676.289 127.416 698.253 154.695 752.921 159.751L756.336 160.299C785.577 163.94 815.113 164.8 844.542 165.898C854.166 166.257 863.798 166.287 873.411 166.914Q886.535 167.777 899.488 170.059C906.137 171.18 912.883 172.655 919.607 173.209L922.244 174.181C948.242 180.328 973.287 197.155 987.405 220.001C1018.6 270.474 994.951 364.522 981.997 418.256C977.043 438.806 971.525 459.206 966.36 479.699C964.94 485.332 964.725 492.768 962.689 497.935L962.25 498.224C958.776 497.484 955.111 497.354 951.571 497.064C941.472 497.168 933.397 498.847 924.825 504.437L922.593 503.246C919.013 505.257 915.835 508.317 912.732 511.001C913.131 505.679 915.353 499.799 916.786 494.65C918.978 486.772 921.054 478.898 922.783 470.904C917.702 472.628 912.722 474.979 907.734 476.982L866.928 493.71C872.628 508.77 869.116 522.165 863.211 536.55C868.431 534.298 901.894 522.082 905.84 522.394L904.803 523.275C890.861 528.082 876.721 532.367 862.895 537.501Q858.812 545.737 854.048 553.599C851.004 558.674 844.593 567.035 843.128 572.401L842.396 573.519C842.926 574.645 842.514 574.314 843.572 574.695C848.592 576.504 852.522 576.665 855.281 581.99C858.446 588.098 857.242 597.193 855.03 603.511C849.97 617.968 837.861 629.012 828.941 641.111C828.35 642.203 827.662 643.304 827.179 644.445C818.61 659.284 817.667 672.439 818.601 689.271Q814.128 695.487 809.941 701.9C813.302 701.985 816.608 702.044 819.963 701.796C821.116 702.503 822.223 703.155 823.209 704.094C828.37 704.238 850.358 703.014 853.351 705.732C853.889 706.221 854.251 706.849 854.603 707.472L854.521 886.119L854.595 944.174C854.607 953.831 855.122 963.808 854.539 973.423L704.286 973.245L646.624 973.421C635.954 973.454 625.196 973.772 614.535 973.37C613.434 974.07 612.336 974.745 611.328 975.578L566.741 975.529C565.388 974.501 564.287 973.766 562.68 973.198C557.261 973.972 510.734 973.889 506.628 972.934C505.121 973.726 503.661 974.468 502.315 975.515L459.023 975.511C457.353 974.315 455.986 973.842 454.009 973.333C443.034 974.029 431.713 973.392 420.697 973.378L353.761 973.232L160.937 973.458C160.937 945.067 161.349 916.625 160.896 888.242C160.09 896.58 160.507 905.252 160.508 913.629L160.504 956.763C160.5 960.694 161.403 971.088 160.13 974.408C159.749 974.606 159.296 974.903 158.885 975.017C157.667 969.609 158.523 961.262 158.52 955.52L158.464 900.657C158.445 893.54 159.443 885.166 158.188 878.205C153.561 877.452 149.139 876.317 144.713 874.762C103.079 860.133 72.5877 823.293 54.1602 784.575C52.6901 782.951 52.0326 780.98 51.2117 778.981C40.1223 754.356 32.5393 730.039 27.3628 703.552L26.8033 699.251C25.0928 678.783 22.77 652.444 27.1301 632.319C26.9514 631.982 26.6795 631.518 26.5543 631.135C24.8093 625.79 26.1157 592.449 26.124 584.022L26.3818 481.626C26.4813 454.485 26.1648 427.05 28.7326 400.011C30.8532 377.682 37.9167 322.924 47.9924 303.915C48.2412 302.99 48.5307 302.402 49.0766 301.615L49.6722 301.75L59.3766 326.312C61.4274 331.528 63.2339 337.251 66.0593 342.089C77.3493 328.673 89.7146 311.304 99.6248 296.847C85.2161 295.37 69.8956 296.57 55.735 293.136C54.3126 292.791 53.3218 292.763 52.5268 291.507L52.9525 289.755C55.4864 286.304 57.3437 281.966 59.5012 278.241C64.0102 270.456 69.2868 262.741 75.1615 255.931Q77.169 253.646 79.3054 251.481Q81.4418 249.317 83.6999 247.279Q85.9581 245.242 88.3304 243.339Q90.7027 241.435 93.1812 239.673Q95.6597 237.91 98.2362 236.294Q100.813 234.677 103.478 233.213Q106.144 231.749 108.89 230.441Q111.636 229.133 114.453 227.987C124.703 223.812 135.79 221.469 146.559 219.056C168.508 214.136 190.999 210.381 212.187 202.636C238.784 192.914 260.543 175.71 273.792 150.328C278.877 140.587 282.659 130.032 286.336 119.699C290.648 107.577 294.445 95.1515 299.899 83.4809C311.139 59.4257 328.553 45.5052 353.311 36.5548L355.465 34.9524Z"/>
	<path fill="white" d="M377.513 516.64L378.811 516.981C380.949 519.493 380.64 536.675 380.931 541.24C380.884 541.205 380.831 541.176 380.789 541.134C378.232 538.568 377.825 520.918 377.513 516.64Z"/>
	<path fill="#6375B7" d="M586.715 667.897C587.932 669.006 599.22 697.623 601.036 701.678L586.573 701.587Q586.494 684.741 586.715 667.897Z"/>
	<path fill="#F28A20" d="M157.73 730.332C158.968 734.845 158.011 778.54 158.081 786.406L155.696 780.375C153.457 775.182 151.039 770.005 149.354 764.601C152.369 753.266 155.028 741.75 157.73 730.332Z"/>
	<path fill="#F28A20" d="M558.836 445.125C560.654 444.995 562.46 445.064 564.203 445.657Q564.811 445.865 565.395 446.135Q565.979 446.405 566.532 446.734Q567.084 447.062 567.6 447.446Q568.116 447.83 568.59 448.266Q569.063 448.701 569.489 449.182Q569.916 449.664 570.29 450.187Q570.664 450.71 570.982 451.269Q571.3 451.828 571.559 452.417Q571.83 453.019 572.04 453.645Q572.25 454.27 572.397 454.914Q572.544 455.557 572.627 456.212Q572.709 456.867 572.727 457.527Q572.745 458.187 572.697 458.845Q572.65 459.503 572.537 460.154Q572.425 460.804 572.248 461.44Q572.072 462.076 571.834 462.692C570.363 466.467 567.792 468.625 564.186 470.243C562.225 470.418 560.225 470.273 558.259 470.212C555.965 463.878 553.357 459.324 548.829 454.338C549.439 452.924 550.084 451.513 550.874 450.188C552.795 446.962 555.343 446.007 558.836 445.125Z"/>
	<path fill="white" d="M504.734 471.02L505.81 471.543L505.977 472.07C506.288 472.998 506.599 473.999 507.193 474.789C510.314 478.941 516.039 476.517 520.299 477.546C521.656 477.874 522.11 478.363 522.864 479.479C523.492 484.464 520.466 489.367 517.943 493.426C518.982 495.831 520.517 498.105 521.86 500.352C521.536 501.237 521.614 501.35 520.808 501.967C518.569 503.681 514.411 504.762 511.617 504.311C509.267 503.932 507.352 502.624 505.983 500.695C500.265 492.638 502.971 480.093 504.734 471.02Z"/>
	<path fill="white" d="M522.821 500.784C523.116 501.004 523.409 501.228 523.714 501.432C530.172 505.742 535.615 506.266 543.079 504.733L543.098 523.314L537.625 523.326L515.09 523.438L514.83 507.992C518.962 506.269 520.699 504.794 522.821 500.784Z"/>
	<path fill="white" d="M627.383 700.22L627.66 700.415C628.743 702.487 628.959 705.077 629.38 707.361C630.972 715.984 632.621 725.366 629.73 733.928C629.046 735.957 627.975 738.477 625.95 739.441C621.48 737.569 623.079 721.495 620.173 716.678C619.587 715.706 619.943 715.993 618.913 715.704C618.218 716.921 618.33 717.577 618.305 718.959Q619.37 727.095 620.689 735.194C618.716 733.646 616.822 732.084 615.098 730.255C607.94 722.663 605.84 714.449 606.199 704.234C612.939 702.21 620.393 700.969 627.383 700.22Z"/>
	<path fill="white" d="M647.47 748.689C648.765 748.479 649.529 748.273 650.786 748.779C653.454 752.088 653.427 759.76 653.984 763.919C640.409 766.578 626.634 768.358 612.945 770.342L607.336 770.836C606.768 767.666 604.406 758.664 606.042 755.803C607.602 753.073 641.881 749.396 647.47 748.689Z"/>
	<path fill="white" d="M387.918 541.199C389.407 541.484 390.48 542.591 391.269 543.83C393.326 547.055 394.399 551.267 396.042 554.758C398.502 559.985 402.024 564.664 405.481 569.263C401.342 576.158 396.687 580.115 389.87 584.233C381.18 575.551 373.711 565.556 373.411 552.749C373.352 550.22 373.894 547.745 375.803 545.961C376.911 544.924 377.925 544.437 379.474 544.521C380.815 545.268 381.793 545.945 383.392 545.814C385.498 544.937 386.601 542.978 387.918 541.199Z"/>
	<path fill="white" d="M358.897 493.185L402.069 493.225C402.092 499.199 403.317 507.793 401.044 513.35C400.788 513.434 400.534 513.525 400.275 513.601C395.727 514.942 363.751 514.706 359.652 512.614C357.827 509.341 358.854 497.444 358.897 493.185Z"/>
	<path fill="white" d="M457.011 955.605C462.896 955.045 469.03 955.421 474.941 955.454Q491.3 955.503 507.655 955.895C507.754 959.696 508.745 966.045 506.672 969.403C505.495 971.311 503.544 971.866 501.51 972.456C493.731 973.344 468.027 973.722 460.688 972.379C457.376 971.773 453.659 970.306 451.728 967.379C450.716 965.846 450.302 963.806 450.709 962.006C451.435 958.797 454.396 957.14 457.011 955.605Z"/>
	<path fill="#F6A921" d="M379.589 468.26C384.187 468.189 388.784 467.965 393.383 467.935C395.72 467.92 399.094 467.959 400.707 469.965C403.639 473.612 402.127 485.388 402.05 490.116L380.198 490.214L358.996 490.266C359.037 486.195 357.431 472.458 360.337 469.833C363.363 467.099 375.257 468.308 379.589 468.26Z"/>
	<path fill="white" d="M565.613 955.561C582.88 954.508 600.636 955.384 617.952 955.434C618.333 958.208 618.763 960.987 618.169 963.768C617.282 967.922 614.58 970.117 611.124 972.249C605.13 973.749 571.793 973.802 566.186 971.747C563.381 970.719 560.773 968.135 559.576 965.418C558.85 963.769 558.55 961.653 559.394 959.977C560.682 957.418 563.053 956.477 565.613 955.561Z"/>
	<path fill="#6375B7" d="M471.736 915.884L510.101 915.982C509.436 928.253 508.299 940.494 507.73 952.775L507.373 953.174C502.724 953.797 497.65 953.215 492.941 953.128Q482.288 952.989 471.634 953.01C471.291 940.675 471.682 928.23 471.736 915.884Z"/>
	<path fill="#6375B7" d="M572.101 915.436Q591.656 915.741 611.214 915.657C613.199 927.993 615.755 940.235 617.717 952.577Q599.872 953.074 582.021 952.907C578.984 940.362 575.443 927.905 572.101 915.436Z"/>
	<path fill="#F28A20" d="M504.734 471.02C505.286 465.335 507.516 460.132 511.968 456.4C517.428 451.824 525.457 449.698 532.481 450.588C538.998 451.414 545.997 454.862 549.978 460.205C555.005 466.951 557.679 475.928 556.211 484.269C555.157 490.259 552.138 495.721 547.16 499.32C543.386 502.049 538.311 503.662 533.663 502.668C529.827 501.849 524.097 499.335 521.966 495.926C521.483 495.153 521.07 494.269 521.354 493.357C522.921 488.337 527.714 483.522 524.991 477.634C524.342 476.231 523.286 475.197 521.795 474.715C518.29 473.581 514.921 474.141 511.484 475.139C510.186 474.041 508.43 472.09 506.717 471.854L505.977 472.07L505.81 471.543L504.734 471.02Z"/>
	<path fill="#F28A20" d="M181.759 631.549C195.278 647.846 214.159 681.203 221.419 701.564L163.834 701.651C170.946 678.764 176.296 654.882 181.759 631.549Z"/>
	<path fill="#F6A921" d="M652.627 767.206L653.739 767.221C655.067 769.26 660.067 808.281 659.788 812.272C655.877 816.279 622.732 819.624 614.99 820.69L614.445 820.453C612.684 817.444 608.483 779.876 607.694 773.756C622.676 772.778 637.742 769.283 652.627 767.206Z"/>
	<path fill="white" d="M512.134 526.283C525.831 525.378 539.985 525.835 553.688 526.697C553.407 546.891 553.699 567.126 553.728 587.325C539.863 587.522 525.98 587.173 512.113 587.124C512.087 566.847 511.92 546.559 512.134 526.283Z"/>
	<path fill="#F28A20" d="M54.1602 784.575C89.294 798.882 123.317 816.464 157.97 831.938C158.028 847.3 157.466 862.875 158.188 878.205C153.561 877.452 149.139 876.317 144.713 874.762C103.079 860.133 72.5877 823.293 54.1602 784.575Z"/>
	<path fill="#D6E5F4" d="M414.712 632.545C420.655 639.613 427.403 646.13 437.091 647.061C444.073 647.733 450.011 645.495 455.289 640.987C461.592 635.603 466.212 627.959 470.524 620.947Q469.135 661.046 469.152 701.167L392.232 701.519C402.189 686.312 406.562 667.609 410.499 650.074C411.796 644.295 412.654 638.099 414.712 632.545Z"/>
	<path fill="white" d="M565.561 531.403C565.959 531.599 566.353 531.804 566.734 532.031C577.265 538.326 585.029 549.584 590.315 560.407C598.581 577.33 602.749 596.926 607.43 615.09Q617.807 656.014 627.524 697.099L604.091 701.701C599.173 690.658 594.565 679.759 590.341 668.417C589.174 664.937 587.913 661.442 587.337 657.806C586.225 650.792 586.731 643.236 586.704 636.147Q586.607 618.321 586.719 600.495C586.79 594.971 587.211 589.354 586.658 583.85L585.688 583.272L584.786 583.548C583.413 586.079 584.029 646.921 584 654.136C565.251 627.499 565.515 601.524 565.468 570.648C565.448 557.574 565.265 544.473 565.561 531.403Z"/>
	<path fill="white" d="M498.127 528.58L498.726 528.693C500.058 530.804 499.627 587.481 499.369 594.846Q499.176 600.743 498.231 606.567C495.396 623.974 487.183 643.429 472.407 653.974C472.205 645.056 471.644 624.875 473.724 617.187C474.924 612.751 477.408 608.631 479.559 604.606C482.44 599.216 487.107 592.987 489.005 587.248C489.364 586.163 489.47 585.65 488.902 584.622L488.124 584.653C484.182 587.942 477.758 603.085 474.701 608.575C469.775 617.426 464.44 627.114 457.784 634.776C453.021 640.258 447.29 644.018 439.873 644.53L439.201 644.571C437.277 644.462 435.238 644.187 433.366 643.711C429.662 642.769 426.648 640.857 423.878 638.272C414.724 629.727 407.932 617.614 401.033 607.219C396.81 600.856 392.321 594.631 388.336 588.118C396.801 583.369 401.773 578.979 407.724 571.23C411.61 575.765 415.004 580.918 418.496 585.769Q427.082 597.825 435.969 609.661C439.55 604.018 442.525 597.879 445.619 591.957C452.949 577.927 459.986 563.219 468.303 549.765C475.284 538.473 485.274 531.586 498.127 528.58Z"/>
	<path fill="#F28A20" d="M27.3347 632.095C35.1755 635.552 42.6861 640.455 50.0765 644.811L92.7881 669.917C98.3679 673.191 103.798 677.064 109.53 680.027Q120.367 707.34 132.137 734.263C136.013 743.249 139.514 752.507 143.74 761.324C104.652 740.85 66.0276 719.447 26.8033 699.251C25.0928 678.783 22.77 652.444 27.1301 632.319L27.3347 632.095Z"/>
	<path fill="#F28A20" d="M27.3628 703.552L97.3433 741.069C113.363 749.65 129.264 758.597 145.624 766.512C148.508 773.645 156.43 790.177 157.666 796.448C159.109 803.774 157.967 819.429 157.956 827.608C131.802 815.911 106.014 803.442 79.8939 791.68C71.0275 787.688 60.3206 781.552 51.2117 778.981C40.1223 754.356 32.5393 730.039 27.3628 703.552Z"/>
	<path fill="white" d="M530.621 763.612C533.814 774.348 536.14 785.421 538.889 796.288L557.63 870.823Q563.891 895.689 570.561 920.449C573.49 931.218 577.041 941.978 579.146 952.936C572.928 952.853 563.638 951.576 558.758 956.204C557.063 957.811 556.169 959.992 556.151 962.32C556.128 965.359 557.461 968.597 559.611 970.74C560.548 971.673 561.582 972.468 562.68 973.198C557.261 973.972 510.734 973.889 506.628 972.934C508.824 971.268 509.499 969.735 509.862 967.017C510.739 960.438 510.353 953.578 510.649 946.945Q511.529 928.599 513.046 910.295Q517.591 855.967 525.335 802.003C527.101 789.246 528.464 776.301 530.621 763.612Z"/>
	<path fill="#F6A921" d="M534.149 740.927L585.226 740.899C586.975 782.251 594.747 823.967 601.878 864.694L607.728 896.269C608.672 901.302 610.37 906.923 610.346 912.01L609.543 912.51Q590.394 912.974 571.247 912.467C568.4 902.967 566.177 893.211 563.701 883.604L547.365 818.971L537.92 782.264C535.883 774.185 533.57 765.924 532.611 757.636C531.99 752.274 533.428 746.244 534.149 740.927Z"/>
	<path fill="#F6A921" d="M471.56 740.602Q501.41 741.043 531.263 740.844C529.564 757.893 526.37 775.063 524.061 792.064C519.398 826.401 515.197 860.582 511.854 895.069Q511.041 904.044 510.387 913.033C497.483 913.227 484.545 913.015 471.637 912.999L471.56 740.602Z"/>
	<path fill="#F28A20" d="M68.2254 572.905C87.2904 566.149 101.863 566.615 120.33 575.451C127.389 578.829 134.571 583.215 140.735 588.077C152.774 597.661 162.855 608.04 172.889 619.687C174.937 622.065 178.908 625.925 179.781 628.906C179.829 629.067 179.806 629.241 179.818 629.409C178.841 629.996 178.421 630.367 177.992 631.451C175.116 638.727 173.85 647.437 172.041 655.064C169.304 666.601 166.248 678.05 163.34 689.544C162.458 693.027 161.916 698.02 160.281 701.172C160.023 701.219 159.265 701.339 159.055 701.45C157.919 702.049 158.082 702.599 157.961 703.728C157.528 707.773 158.266 711.962 157.621 715.99C156.89 720.558 155.255 725.264 154.073 729.757L146.567 758.589C142.245 750.189 139.168 740.761 135.486 732.037C128.274 714.945 120.717 697.991 114.149 680.638C117.668 659.513 123.014 638.474 127.48 617.514C128.657 611.989 131.847 601.224 131.689 595.958C131.652 594.725 131.564 594.207 130.661 593.311L129.47 593.745C128.244 595.094 127.549 596.364 127.093 598.149C125.283 605.219 124.212 612.729 122.752 619.895C119.034 638.15 115.457 656.496 111.127 674.613C106.152 666.07 102.575 653.738 98.9208 644.338C94.0669 631.853 88.659 619.65 83.5719 607.268C82.0627 603.595 79.1005 592.929 76.1174 590.981L74.9097 591.294L74.3723 592.39C74.3314 594.036 74.6484 595.349 75.1664 596.911C76.3143 600.371 78.014 603.713 79.3879 607.094L87.5802 627.24L106.113 673.162C100.274 670.046 94.6961 666.347 88.9449 663.055L28.7423 628.092C36.6816 601.522 43.2865 586.946 68.2254 572.905Z"/>
	<path fill="#F28A20" d="M506.829 526.665L509.014 526.603C510.499 528.586 509.583 582.298 509.591 589.756C514.78 590.169 520.156 589.948 525.367 589.976L556.362 590.001Q555.996 558.738 556.047 527.474C558.394 528.254 560.673 529.249 562.962 530.183C562.908 552.326 562.318 574.651 563.018 596.775C563.603 615.248 570.046 643.99 583.989 657.155Q583.872 683.759 584.068 710.362L585.153 737.957L471.818 737.969L472.38 656.804C478.154 653.642 482.503 648.539 486.327 643.282C501.301 622.696 502.002 602.562 501.95 578.29L501.863 548.405C501.848 543.199 500.87 532.528 502.246 527.858C503.508 526.733 505.22 526.822 506.829 526.665Z"/>
	<path fill="#F28A20" d="M687.894 482.589Q688.012 481.566 688.14 480.544C689.696 468.222 693.255 455.785 703.671 447.98C709.218 443.824 716.064 441.566 723 442.756C735.657 444.926 744.514 456.72 750.178 467.315C752.481 471.622 754.415 476.461 757.229 480.44C757.333 476.816 753.18 466.074 752.031 462.181C745.245 439.188 739.779 412.443 744.893 388.592C747.231 377.688 752.255 367.55 761.864 361.37Q762.575 360.909 763.307 360.484Q764.04 360.059 764.793 359.671Q765.546 359.283 766.317 358.933Q767.089 358.583 767.876 358.272Q768.664 357.962 769.467 357.69Q770.269 357.419 771.084 357.188Q771.899 356.957 772.724 356.767Q773.55 356.577 774.384 356.429Q775.218 356.28 776.058 356.173Q776.898 356.066 777.743 356.001Q778.587 355.937 779.434 355.914Q780.281 355.891 781.128 355.911Q781.974 355.931 782.819 355.993Q783.664 356.055 784.505 356.158Q785.345 356.262 786.179 356.408Q787.014 356.554 787.84 356.741C797.678 359.061 806.769 367.977 811.792 376.428C829.422 406.09 816.334 444.005 807.287 474.288C804.207 484.598 801.506 495.081 798.89 505.517C807.056 493.704 811.462 483.042 824.949 476.188C835.041 473.586 841.658 474.363 851.569 476.721L853.751 477.838C857.736 481.229 862.106 484.548 864.826 489.093L865.477 490.625L866.25 492.633L866.928 493.71C872.628 508.77 869.116 522.165 863.211 536.55C868.431 534.298 901.894 522.082 905.84 522.394L904.803 523.275C890.861 528.082 876.721 532.367 862.895 537.501Q858.812 545.737 854.048 553.599C851.004 558.674 844.593 567.035 843.128 572.401L842.396 573.519C842.926 574.645 842.514 574.314 843.572 574.695C848.592 576.504 852.522 576.665 855.281 581.99C858.446 588.098 857.242 597.193 855.03 603.511C849.97 617.968 837.861 629.012 828.941 641.111C828.35 642.203 827.662 643.304 827.179 644.445C818.61 659.284 817.667 672.439 818.601 689.271Q814.128 695.487 809.941 701.9Q796.781 701.72 783.619 701.74C791.018 679.385 799.621 657.588 814.288 638.861C822.213 628.743 831.717 619.315 842.176 611.825C844.375 610.25 848.586 608.079 849.208 605.355C848.402 604.279 848.395 604.395 847.051 604.17C843.201 605.595 838.961 609.656 835.76 612.308C815.681 628.946 802.504 647.342 791.669 670.909Q788.217 678.39 785.394 686.129Q782.571 693.869 780.396 701.816L768.224 701.976Q768.669 686.987 768.95 671.993C769.067 662.634 768.785 653.269 770.121 643.977C776.007 603.024 805.822 545.983 835.923 517.453C839 514.537 843.222 511.586 845.64 508.163C845.359 507.08 845.397 507.093 844.477 506.464C839.367 507.094 820.649 529.481 816.604 534.658Q810.967 541.934 805.837 549.576Q800.707 557.218 796.108 565.19Q791.509 573.162 787.461 581.429Q783.414 589.695 779.937 598.217C776.804 606.04 774.478 614.149 771.406 621.98C773.243 590.769 772.399 559.515 774.155 528.344Q774.762 516.568 776.155 504.859C779.849 473.023 785.617 441.258 784.213 409.077C784.03 404.877 784.271 399.266 782.124 395.544L781.096 394.995C780.48 395.228 780.064 395.18 779.808 395.863C778.967 398.109 780.402 405.692 780.537 408.672Q781.085 422.101 780.387 435.523C778.841 466.797 772.506 497.623 770.629 528.888C769.051 555.161 770.076 581.566 769.164 607.882C768.969 613.517 769.116 619.247 768.639 624.86C766.86 615.456 765.947 605.93 764.354 596.494C758.642 562.654 750.413 532.511 733.092 502.716C728.731 495.214 724.213 486.714 718.042 480.534L716.557 480.853L716.758 479.885C716.282 481.908 717.317 484.165 718.378 485.866C719.758 488.079 721.591 490.036 723.035 492.228Q729.635 502.318 735.101 513.064C765.199 571.936 767.995 637.178 765.06 701.888L751.208 701.95Q750.623 698.232 749.906 694.538Q749.188 690.843 748.338 687.177Q747.488 683.51 746.506 679.877Q745.525 676.244 744.414 672.648Q743.303 669.052 742.064 665.498Q740.824 661.945 739.458 658.438Q738.091 654.931 736.6 651.476Q735.109 648.02 733.494 644.621Q731.88 641.221 730.144 637.881Q728.408 634.542 726.554 631.267Q724.699 627.992 722.728 624.786Q720.758 621.58 718.673 618.446Q716.588 615.313 714.392 612.256Q712.196 609.2 709.892 606.224Q707.587 603.248 705.178 600.358Q702.768 597.467 700.256 594.664C696.801 590.87 693.114 586.018 689.109 582.84C688.271 582.176 688.26 582.055 687.164 582.208C686.441 583.223 686.37 583.175 686.51 584.398C689.018 588.213 692.724 591.436 695.871 594.756Q702.202 601.391 707.941 608.545C724.073 629.072 734.425 652.405 741.92 677.23C744.332 685.22 746.792 693.61 747.747 701.917L717.359 701.855C712.762 690.447 708.176 679.067 702.179 668.303C690.164 646.737 669.597 618.56 664.292 595.052Q663.921 593.466 663.644 591.861Q663.366 590.255 663.182 588.637Q662.998 587.018 662.908 585.392Q662.818 583.765 662.823 582.136Q662.828 580.507 662.927 578.881Q663.027 577.255 663.22 575.638Q663.414 574.02 663.702 572.417Q663.989 570.813 664.369 569.229C666.647 559.856 672.409 549.148 680.98 544.232C690.046 539.032 699.859 540.386 709.427 543.1C698.003 525.265 689.708 503.676 687.894 482.589Z"/>
	<path fill="white" d="M823.209 704.094C828.37 704.238 850.358 703.014 853.351 705.732C853.889 706.221 854.251 706.849 854.603 707.472L854.521 886.119L854.595 944.174C854.607 953.831 855.122 963.808 854.539 973.423L704.286 973.245L646.624 973.421C635.954 973.454 625.196 973.772 614.535 973.37C615.477 972.642 616.356 971.89 617.192 971.038C620.714 967.448 621.399 963.923 621.02 959.079C620.269 949.47 618.259 939.868 616.609 930.372C613.186 910.671 609.219 891.086 605.657 871.412C598.509 831.923 591.828 791.953 588.631 751.927C587.371 736.157 587.019 720.231 586.667 704.416C592.204 704.383 597.748 704.47 603.285 704.501C603.468 710.175 603.861 715.442 605.932 720.781C608.656 727.803 614.063 734.857 621.071 737.949C622.088 741.794 624.144 745.345 625.923 748.886C621.094 749.845 605.933 749.798 603.421 754.24C602.524 755.825 602.878 759.213 603.038 761.038C603.618 767.67 605.109 774.382 606.032 780.992L611.719 823.713Q626.997 821.685 642.244 819.429C647.426 818.68 653.467 818.386 658.406 816.71C659.65 816.288 660.526 815.712 661.323 814.675C662.151 813.596 662.406 812.617 662.438 811.282C662.599 804.571 660.808 796.985 659.929 790.297Q657.166 767.724 653.688 745.249C645.285 745.616 636.58 747.221 628.269 748.604L626.258 743.556C627.664 742.199 629.071 740.732 630.091 739.058C636.383 728.735 633.556 715.522 631.158 704.499L823.209 704.094Z"/>
	<path fill="#6375B7" d="M228.076 602.127C208.434 547.272 188.783 491.731 187.074 432.858C186.701 420.003 186.952 407.055 189.037 394.341C194.043 363.817 209.093 337.056 234.567 318.997Q235.374 318.415 236.195 317.854Q237.017 317.293 237.852 316.752Q238.687 316.212 239.535 315.692Q240.384 315.173 241.245 314.675Q242.106 314.176 242.979 313.7Q243.852 313.224 244.737 312.769Q245.622 312.315 246.518 311.882Q247.414 311.45 248.321 311.04Q249.227 310.631 250.144 310.244Q251.06 309.857 251.986 309.493Q252.912 309.129 253.846 308.788Q254.781 308.448 255.724 308.131Q256.667 307.813 257.617 307.52Q258.568 307.227 259.525 306.957Q260.483 306.687 261.447 306.442Q262.411 306.196 263.381 305.974Q264.35 305.753 265.326 305.556Q266.301 305.359 267.28 305.186Q268.26 305.013 269.244 304.865Q270.227 304.717 271.214 304.593Q272.201 304.47 273.191 304.371Q274.181 304.272 275.173 304.198Q276.165 304.124 277.159 304.075Q278.152 304.026 279.147 304.001Q280.141 303.977 281.136 303.977Q282.131 303.978 283.125 304.003Q284.12 304.028 285.113 304.078Q286.107 304.129 287.099 304.204Q288.091 304.279 289.081 304.378Q290.07 304.478 291.057 304.603Q292.044 304.727 293.028 304.876Q294.011 305.025 294.991 305.199C318.356 309.213 339.016 323.597 352.583 342.804C377.637 378.276 378.281 424.272 371.3 465.509C367.487 465.429 361.065 464.542 358.198 467.561C355.477 470.427 355.69 506.914 356.577 512.37C356.68 513.004 356.818 513.498 357.025 514.11C361.814 518.476 368.749 516.687 374.727 516.908C375.574 525.255 376.131 533.654 377.339 541.958C374.541 543.632 372.448 545.092 371.507 548.356C370.727 551.061 371.152 554.548 371.61 557.281C372.127 561.246 372.91 564.862 374.693 568.471C376.251 571.625 387.266 585.344 387.28 585.428C387.292 585.498 386.752 586.262 386.673 586.353C386.394 586.672 385.659 587.348 385.332 587.656C385.837 590.573 406.671 620.142 409.784 624.844C411.301 627.136 413.78 630.021 414.712 632.545C412.654 638.099 411.796 644.295 410.499 650.074C406.562 667.609 402.189 686.312 392.232 701.519L284.701 701.757L284.557 502.272L284.509 435.251C284.498 425.757 284.887 416.093 284.624 406.624C284.579 404.984 284.415 403.819 283.431 402.46L282.209 403.298C281.757 404.312 281.469 405.366 281.424 406.477C281.016 416.591 281.534 426.966 281.573 437.1L281.654 499.37L281.794 701.541L221.419 701.564C214.159 681.203 195.278 647.846 181.759 631.549L179.818 629.409C179.806 629.241 179.829 629.067 179.781 628.906C178.908 625.925 174.937 622.065 172.889 619.687C162.855 608.04 152.774 597.661 140.735 588.077C140.977 586.055 142.238 582.868 141.569 581.071C142.079 580.4 142.705 579.788 143.273 579.165C146.405 573.056 149.609 567.656 154.711 562.975C159.428 558.647 167.512 553.735 174.089 554.061C175.235 554.164 175.203 554.222 176.111 553.531L176.81 553.752C180.62 554.918 184.718 554.941 188.545 556.228C193.738 557.975 197.554 561.58 202.284 564.028C207.744 569.929 213.165 575.889 217.277 582.84C221.013 589.153 223.93 596.082 228.076 602.127Z"/>
	<path fill="#D6E5F4" d="M371.61 557.281C368.298 559.424 365.256 562.66 362.351 565.357C348.568 578.148 341.018 588.394 331.827 604.508L330.815 603.765L331.42 604.04Q343.317 570.066 352.409 535.237C354.261 528.275 355.028 520.968 357.025 514.11C361.814 518.476 368.749 516.687 374.727 516.908C375.574 525.255 376.131 533.654 377.339 541.958C374.541 543.632 372.448 545.092 371.507 548.356C370.727 551.061 371.152 554.548 371.61 557.281Z"/>
	<path fill="white" d="M160.947 704.205C210.059 703.348 259.283 704.083 308.409 704.01C361.919 703.931 415.571 703.114 469.068 703.982L468.945 952.859C462.871 952.676 455.989 951.836 451.177 956.41C449.247 958.245 448.133 960.712 448.105 963.381C448.072 966.565 449.444 969.412 451.728 971.58C452.435 972.251 453.204 972.787 454.009 973.333C443.034 974.029 431.713 973.392 420.697 973.378L353.761 973.232L160.937 973.458C160.937 945.067 161.349 916.625 160.896 888.242L160.985 769.456C160.923 747.721 160.519 725.933 160.947 704.205Z"/>
	<path fill="#D6E5F4" d="M355.465 34.9524C355.731 34.942 355.997 34.9359 356.263 34.9212C361.442 34.6345 367.692 31.9878 372.856 30.7911Q388.874 27.129 405.122 24.6775C425.189 21.6253 445.171 20.1325 465.425 19.1788C509.26 17.1147 575.539 17.0097 610.731 46.9846C624.368 58.6002 634.956 72.3487 645.642 86.5856C676.289 127.416 698.253 154.695 752.921 159.751L756.336 160.299C785.577 163.94 815.113 164.8 844.542 165.898C854.166 166.257 863.798 166.287 873.411 166.914Q886.535 167.777 899.488 170.059C906.137 171.18 912.883 172.655 919.607 173.209L922.244 174.181C948.242 180.328 973.287 197.155 987.405 220.001C1018.6 270.474 994.951 364.522 981.997 418.256C977.043 438.806 971.525 459.206 966.36 479.699C964.94 485.332 964.725 492.768 962.689 497.935L962.25 498.224C958.776 497.484 955.111 497.354 951.571 497.064C941.472 497.168 933.397 498.847 924.825 504.437L922.593 503.246C919.013 505.257 915.835 508.317 912.732 511.001C913.131 505.679 915.353 499.799 916.786 494.65C918.978 486.772 921.054 478.898 922.783 470.904C917.702 472.628 912.722 474.979 907.734 476.982L866.928 493.71L866.25 492.633L865.477 490.625L864.826 489.093C862.106 484.548 857.736 481.229 853.751 477.838L851.569 476.721C841.658 474.363 835.041 473.586 824.949 476.188C811.462 483.042 807.056 493.704 798.89 505.517C801.506 495.081 804.207 484.598 807.287 474.288C816.334 444.005 829.422 406.09 811.792 376.428C806.769 367.977 797.678 359.061 787.84 356.741Q787.014 356.554 786.18 356.408Q785.345 356.262 784.505 356.159Q783.664 356.055 782.819 355.993Q781.974 355.931 781.128 355.911Q780.281 355.891 779.434 355.914Q778.587 355.937 777.743 356.001Q776.898 356.066 776.058 356.173Q775.218 356.28 774.384 356.429Q773.55 356.577 772.724 356.767Q771.899 356.957 771.084 357.188Q770.269 357.419 769.467 357.69Q768.664 357.962 767.876 358.272Q767.089 358.583 766.317 358.933Q765.546 359.283 764.793 359.671Q764.04 360.059 763.307 360.484Q762.575 360.909 761.864 361.37C752.255 367.55 747.231 377.688 744.893 388.592C739.779 412.443 745.245 439.188 752.031 462.181C753.18 466.074 757.333 476.816 757.229 480.44C754.415 476.461 752.481 471.622 750.178 467.315C744.514 456.72 735.657 444.926 723 442.756C716.064 441.566 709.218 443.824 703.671 447.98C693.255 455.785 689.696 468.222 688.14 480.544Q688.012 481.566 687.894 482.589C689.708 503.676 698.003 525.265 709.427 543.1C699.859 540.386 690.046 539.032 680.98 544.232C672.409 549.148 666.647 559.856 664.369 569.229Q663.989 570.813 663.702 572.417Q663.414 574.02 663.22 575.638Q663.027 577.255 662.927 578.881Q662.828 580.507 662.823 582.136Q662.818 583.765 662.908 585.391Q662.998 587.018 663.182 588.637Q663.366 590.255 663.644 591.86Q663.921 593.466 664.292 595.052C669.597 618.56 690.164 646.737 702.179 668.303C708.176 679.067 712.762 690.447 717.359 701.855C688.667 701.346 659.9 701.897 631.194 701.722Q618.078 645.511 603.355 589.699C598.215 570.821 591.227 549.299 576.057 536.005C571.914 532.375 567.155 529.646 562.395 526.922C557.035 524.303 551.556 523.698 545.696 523.12Q545.417 513.371 545.648 503.621C548.793 501.777 551.47 499.705 553.728 496.807C559.204 489.776 559.867 482.044 558.871 473.555C561.061 473.47 563.559 473.392 565.617 472.616C569.374 471.198 572.439 468.018 574.068 464.395Q574.412 463.641 574.678 462.856Q574.944 462.071 575.129 461.263Q575.315 460.455 575.418 459.633Q575.521 458.81 575.54 457.982Q575.56 457.153 575.496 456.327Q575.432 455.5 575.285 454.685Q575.138 453.869 574.909 453.072Q574.681 452.276 574.373 451.506C572.93 447.851 570.148 444.814 566.491 443.307C562.635 441.718 557.707 441.778 553.927 443.575C549.739 445.566 547.921 449.094 546.475 453.247C544.071 451.845 541.661 450.567 539.058 449.568C531.761 446.771 523.781 446.826 516.664 450.195Q516.089 450.468 515.529 450.769Q514.968 451.07 514.423 451.398Q513.878 451.726 513.35 452.081Q512.822 452.435 512.312 452.815Q511.802 453.196 511.312 453.601Q510.821 454.006 510.351 454.434Q509.881 454.863 509.433 455.315Q508.985 455.766 508.559 456.239Q508.134 456.712 507.733 457.205Q507.331 457.699 506.954 458.211Q506.578 458.724 506.227 459.255Q505.876 459.785 505.552 460.333Q505.227 460.88 504.931 461.443Q504.634 462.005 504.365 462.582Q504.096 463.158 503.856 463.748Q503.617 464.337 503.406 464.937C501.69 469.778 499.405 486.051 499.708 491.082Q499.839 493.027 500.347 494.909Q500.856 496.792 501.722 498.538C503.966 503.082 507.713 506.253 512.487 507.823L512.515 523.451C507.939 523.576 503.652 524.116 499.216 525.282C489.422 527.856 480.177 532.317 472.959 539.537C465.386 547.112 460.656 557.946 455.691 567.34C449.054 579.895 442.8 592.781 435.671 605.057C427.583 594.359 419.99 583.312 412.042 572.514C407.732 566.658 402.815 561.137 398.971 554.958C396.807 551.48 396.306 547.202 394.241 543.655C388.028 532.982 383.454 530.101 382.515 516.787C387.801 516.67 393.392 517.084 398.623 516.501C399.983 516.35 402.061 516.049 402.907 514.887C404.11 513.235 404.551 510.305 404.755 508.309C405.35 502.479 405.594 475.599 404.699 470.436C404.269 467.955 402.406 466.919 400.492 465.574C390.916 464.76 380.925 465.411 371.3 465.509C378.281 424.272 377.637 378.276 352.583 342.804C339.016 323.597 318.356 309.213 294.991 305.199Q294.011 305.025 293.028 304.876Q292.044 304.727 291.057 304.603Q290.07 304.478 289.081 304.378Q288.091 304.279 287.099 304.204Q286.107 304.129 285.113 304.078Q284.12 304.028 283.125 304.003Q282.131 303.978 281.136 303.977Q280.141 303.977 279.147 304.001Q278.152 304.025 277.159 304.075Q276.165 304.124 275.173 304.198Q274.181 304.272 273.191 304.371Q272.201 304.47 271.214 304.593Q270.227 304.717 269.244 304.865Q268.26 305.013 267.28 305.186Q266.301 305.359 265.326 305.556Q264.35 305.753 263.381 305.974Q262.411 306.196 261.447 306.442Q260.483 306.687 259.525 306.957Q258.568 307.227 257.617 307.52Q256.667 307.813 255.724 308.131Q254.781 308.448 253.846 308.788Q252.912 309.129 251.986 309.493Q251.06 309.857 250.144 310.244Q249.227 310.631 248.321 311.04Q247.414 311.45 246.518 311.882Q245.622 312.315 244.737 312.769Q243.852 313.224 242.979 313.7Q242.106 314.176 241.245 314.675Q240.384 315.173 239.535 315.692Q238.687 316.212 237.852 316.752Q237.017 317.293 236.195 317.854Q235.374 318.415 234.567 318.997C209.093 337.056 194.043 363.817 189.037 394.341C186.952 407.055 186.701 420.003 187.074 432.858C188.783 491.731 208.434 547.272 228.076 602.127C223.93 596.082 221.013 589.153 217.277 582.84C213.165 575.889 207.744 569.929 202.284 564.028C197.554 561.58 193.738 557.975 188.545 556.228C184.718 554.941 180.62 554.918 176.81 553.752L176.111 553.531C175.203 554.222 175.235 554.164 174.089 554.061C167.512 553.735 159.428 558.647 154.711 562.975C149.609 567.656 146.405 573.056 143.273 579.165C142.705 579.788 142.079 580.4 141.569 581.071C142.238 582.868 140.977 586.055 140.735 588.077C134.571 583.215 127.389 578.829 120.33 575.451C101.863 566.615 87.2904 566.149 68.2254 572.905C43.2865 586.946 36.6816 601.522 28.7423 628.092L27.3347 632.095L27.1301 632.319C26.9514 631.982 26.6795 631.518 26.5543 631.135C24.8093 625.79 26.1157 592.449 26.124 584.022L26.3818 481.626C26.4813 454.485 26.1648 427.05 28.7326 400.011C30.8532 377.682 37.9167 322.924 47.9924 303.915C48.2412 302.99 48.5307 302.402 49.0766 301.615L49.6722 301.75L59.3766 326.312C61.4274 331.528 63.2339 337.251 66.0593 342.089C77.3493 328.673 89.7146 311.304 99.6248 296.847C85.2161 295.37 69.8956 296.57 55.735 293.136C54.3126 292.791 53.3218 292.763 52.5268 291.507L52.9525 289.755C55.4864 286.304 57.3437 281.966 59.5012 278.241C64.0102 270.456 69.2868 262.741 75.1615 255.931Q77.169 253.646 79.3054 251.481Q81.4418 249.317 83.6999 247.279Q85.9581 245.242 88.3304 243.339Q90.7027 241.435 93.1812 239.673Q95.6597 237.91 98.2362 236.294Q100.813 234.677 103.478 233.213Q106.144 231.749 108.89 230.441Q111.636 229.133 114.453 227.987C124.703 223.812 135.79 221.469 146.559 219.056C168.508 214.136 190.999 210.381 212.187 202.636C238.784 192.914 260.543 175.71 273.792 150.328C278.877 140.587 282.659 130.032 286.336 119.699C290.648 107.577 294.445 95.1515 299.899 83.4809C311.139 59.4257 328.553 45.5052 353.311 36.5548L355.465 34.9524Z"/>
	<path fill="#28266C" d="M945.371 494.892C950.262 494.146 957.525 494.24 962.086 496.314C962.65 497.425 962.469 496.877 962.689 497.935L962.25 498.224C958.776 497.484 955.111 497.354 951.571 497.064C949.379 495.52 948.017 495.156 945.371 494.892Z"/>
	<path fill="#2A2626" d="M922.593 503.246C929.593 498.449 936.951 495.714 945.371 494.892C948.017 495.156 949.379 495.52 951.571 497.064C941.472 497.168 933.397 498.847 924.825 504.437L922.593 503.246Z"/>
	<path fill="#343D95" d="M411.509 309.652C415.761 308.928 460.259 308.96 462.22 309.678C462.904 309.929 463.021 310.798 463.293 311.425C459.967 312.464 415.053 312.642 412.605 311.541C411.909 311.228 411.785 310.316 411.509 309.652Z"/>
	<path fill="#343D95" d="M824.949 476.188C828.005 468.725 830.313 460.967 832.742 453.283C838.463 461.665 845.44 468.716 851.569 476.721C841.658 474.363 835.041 473.586 824.949 476.188Z"/>
	<path fill="#2A2626" d="M176.111 553.531C180.338 542.702 185.381 531.678 188.629 520.531C192.985 535.069 197.185 549.73 202.284 564.028C197.554 561.58 193.738 557.975 188.545 556.228C184.718 554.941 180.62 554.918 176.81 553.752L176.111 553.531Z"/>
	<path fill="#343D95" d="M914.805 342.455L915.829 342.693C915.88 343.093 899.48 384.79 897.533 390.076L892.448 380.949C889.369 375.231 886.458 369.077 882.703 363.786C892.717 355.542 903.119 348.183 914.805 342.455Z"/>
	<path fill="#343D95" d="M917.314 342.904C921.364 347.872 926.055 371.29 927.837 378.951C920.781 382.038 913.89 385.598 906.967 388.977C904.109 390.433 901.07 391.477 898.068 392.592Q907.299 367.596 917.314 342.904Z"/>
	<path fill="#6375B7" d="M343.819 259.714C349.168 259.595 356.778 258.636 361.712 260.674C363.88 261.569 365.314 263.604 366.159 265.719C368.477 271.522 368.377 284.236 365.634 289.902C364.1 293.071 361.986 294.091 358.76 295.165C352.657 295.168 346.541 295.269 340.447 294.891C339.779 294.521 339.128 294.139 338.508 293.692C335.589 291.588 334.37 288.552 333.86 285.069C332.945 278.804 332.679 268.361 336.781 263.232C338.7 260.832 340.877 260.135 343.819 259.714Z"/>
	<path fill="#D6E5F4" d="M343.881 262.202C348.205 262.214 357.668 261.211 361.09 263.638C363.222 265.15 364.244 267.996 364.653 270.47C365.53 275.763 365.944 285.718 362.496 290.118C361.111 291.885 359.443 292.415 357.303 292.741C352.843 292.816 343.555 293.903 339.826 291.616C337.623 290.265 336.623 287.782 336.177 285.334C335.2 279.974 335.234 269.117 338.602 264.732C340.026 262.878 341.665 262.53 343.881 262.202Z"/>
	<path fill="#6375B7" d="M494.778 355.695C499.589 355.71 512.815 354.73 516.598 356.892C518.644 358.061 519.812 360.483 520.389 362.676C521.917 368.49 522.092 381.323 518.756 386.367C517.136 388.817 514.852 389.362 512.121 389.896C506.528 390.075 499.702 391.002 494.257 389.706C490.343 388.775 488.65 386.773 486.628 383.44C486.541 376.682 484.923 364.544 489.054 358.801C490.551 356.719 492.349 356.137 494.778 355.695Z"/>
	<path fill="#D6E5F4" d="M493.267 358.534C497.897 358.446 513.624 356.837 516.683 360.426C519.696 363.96 518.908 376.817 518.032 381.325C517.525 383.937 516.425 385.148 514.27 386.603C510.348 387.434 505.84 387.267 501.823 387.299C498.948 387.322 493 387.61 491.067 385.176C488.105 381.447 489.053 368.752 489.832 364.073C490.277 361.402 491.067 360.081 493.267 358.534Z"/>
	<path fill="#6375B7" d="M420.704 337.182C426.068 337.039 432.274 336.313 437.507 337.602C441.428 338.567 443.323 340.443 445.43 343.776C445.825 350.401 447.456 363.224 443.42 368.698C441.737 370.98 439.54 371.7 436.851 372.144C431.224 372.095 424.816 373.015 419.316 371.888C415.314 371.068 413.716 369.31 411.576 365.968C411.274 358.938 409.315 347.381 413.244 341.404C415.016 338.71 417.665 337.742 420.704 337.182Z"/>
	<path fill="#D6E5F4" d="M421.474 339.744C426.034 339.641 435.962 338.426 439.69 341.044C442.058 342.706 442.929 346.558 443.124 349.236C443.469 353.967 444.271 364.303 440.547 367.872C438.817 369.529 437.211 369.51 434.936 369.644C430.359 369.787 419.93 371.017 416.401 368.116C414.547 366.592 413.977 363.75 413.673 361.497C412.998 356.491 412.353 346.026 415.829 341.935C417.389 340.1 419.192 339.928 421.474 339.744Z"/>
	<path fill="#6375B7" d="M940.884 300.075Q941.785 299.971 942.689 299.905C948.126 299.491 964.165 298.368 967.878 301.973C971.803 305.782 970.566 318.078 970.323 323.255C970.111 327.77 969.681 330.786 966.218 333.9C962.101 335.303 947.973 334.999 943.152 334.515C941.454 334.344 939.508 333.922 938.433 332.479C935.274 328.238 935.812 310.328 936.963 305.001C937.51 302.47 938.734 301.372 940.884 300.075Z"/>
	<path fill="#D6E5F4" d="M945.693 302.234C951.62 302.192 959.916 301.09 965.49 303.174C966.809 304.668 967.24 306.982 967.485 308.913C968.098 313.746 969.021 327.37 965.703 330.975C964.624 332.146 963.005 332.19 961.523 332.368C955.267 332.255 946.87 333.638 941.03 331.448C940.293 330.564 939.895 329.832 939.57 328.715C938.519 325.095 937.876 306.46 939.876 303.911C941.165 302.269 943.837 302.349 945.693 302.234Z"/>
	<path fill="#343D95" d="M926.978 380.974L927.664 381.14C930.248 386.883 930.029 412.794 930 419.868C914.124 426.8 898.517 433.892 883.194 442.013C882.214 442.371 881.648 442.549 880.606 442.408L881.253 441.016L880.818 441.509C885.945 425.653 891.125 409.949 897.648 394.602C907.605 390.422 917.262 385.678 926.978 380.974Z"/>
	<path fill="#343D95" d="M881.56 364.866C882.79 365.561 895.101 388.43 897.068 391.895C890.001 405.46 883.549 426.488 879.466 441.547C877.817 439.12 876.277 436.618 874.711 434.136C867.354 423.569 860.432 412.617 852.422 402.515C859.702 387.796 869.847 376.164 881.56 364.866Z"/>
	<path fill="#343D95" d="M833.268 452.095C838.543 435.398 844.445 419.638 851.818 403.764C860.832 416.876 871.422 429.893 878.844 443.971C873.652 458.873 869.51 474.04 864.826 489.093C862.106 484.548 857.736 481.229 853.751 477.838C851.407 474.006 848.209 470.555 845.382 467.069C841.338 462.082 837.41 457.002 833.268 452.095Z"/>
	<path fill="#343D95" d="M880.057 444.98C896.355 436.718 912.804 428.582 929.662 421.512C929.109 436.707 927.295 454.259 923.269 468.902C909.876 474.613 896.323 479.846 882.88 485.424C877.443 487.681 871.337 489.695 866.25 492.633L865.477 490.625C868.057 485.138 869.547 478.889 871.314 473.088Q875.543 458.99 880.057 444.98Z"/>
	<path fill="white" d="M61.0508 399.789C65.4079 386.584 69.6546 365.148 78.5934 354.74L79.2028 355.038L80.941 355.584C87.3552 355.403 110.544 374.074 115.844 379.077C116.579 379.77 118.209 381.12 118.282 382.182L119.838 383.066C126.22 390.61 145.342 412.706 147.746 420.953C148.314 421.641 148.911 422.26 149.309 423.059C154.195 431.985 169.707 458.915 171.395 467.88L171.193 468.489C171.648 469.336 172.046 469.963 172.254 470.901C177.744 481.402 185.406 505.151 187.95 516.978C184.138 527.062 175.613 544.27 174.089 554.061C167.512 553.735 159.428 558.647 154.711 562.975C149.609 567.656 146.405 573.056 143.273 579.165C142.705 579.788 142.079 580.4 141.569 581.071C142.238 582.868 140.977 586.055 140.735 588.077C134.571 583.215 127.389 578.829 120.33 575.451C101.863 566.615 87.2904 566.149 68.2254 572.905C65.5697 562.659 62.5916 552.494 60.4296 542.124C58.2404 531.625 56.9359 520.871 55.5914 510.236C55.567 509.471 55.8511 508.766 56.0544 508.033C55.7495 507.891 55.6959 507.907 55.4725 507.596C52.8215 503.899 54.437 458.898 54.7682 451.834L54.689 449.191C55.5964 445.127 55.5923 440.445 55.983 436.277C57.0318 425.09 57.8968 413.018 61.0262 402.202L61.0508 399.789Z"/>
	<path fill="#2A2626" d="M61.0508 399.789C65.4079 386.584 69.6546 365.148 78.5934 354.74L79.2028 355.038C84.7549 377.741 90.3294 400.502 97.1545 422.868C84.9613 415.693 72.6657 407.852 61.0508 399.789Z"/>
	<path fill="#2A2626" d="M80.941 355.584C87.3552 355.403 110.544 374.074 115.844 379.077C116.579 379.77 118.209 381.12 118.282 382.182C111.222 395.129 105.914 409.281 99.2673 422.492C92.1767 400.578 87.4309 377.707 80.941 355.584Z"/>
	<path fill="#2A2626" d="M61.0262 402.202C69.075 407.641 77.2811 412.828 85.4104 418.143C89.4277 420.77 93.4435 423.923 97.6729 426.159C101.231 438.441 104.997 450.691 108.399 463.014C110.34 470.043 111.864 477.204 113.929 484.196C94.2917 472.338 74.1219 461.381 54.689 449.191C55.5964 445.127 55.5923 440.445 55.983 436.277C57.0318 425.09 57.8968 413.018 61.0262 402.202Z"/>
	<path fill="#2A2626" d="M119.838 383.066C126.22 390.61 145.342 412.706 147.746 420.953C138.077 442.676 127.274 464.116 116.203 485.163C111.835 465.331 105.346 446.263 100.379 426.621C106.482 411.982 114.19 397.867 119.838 383.066Z"/>
	<path fill="#2A2626" d="M172.254 470.901C177.744 481.402 185.406 505.151 187.95 516.978C184.138 527.062 175.613 544.27 174.089 554.061C167.512 553.735 159.428 558.647 154.711 562.975C149.609 567.656 146.405 573.056 143.273 579.165C139.97 569.416 137.334 559.226 134.557 549.302C139.643 539.964 143.736 529.818 148.43 520.239C156.441 503.89 165.036 487.616 172.254 470.901Z"/>
	<path fill="#2A2626" d="M55.5914 510.236C81.4536 524.198 106.549 540.337 133.033 553.044C134.882 558.665 139.355 577.318 141.569 581.071C142.238 582.868 140.977 586.055 140.735 588.077C134.571 583.215 127.389 578.829 120.33 575.451C101.863 566.615 87.2904 566.149 68.2254 572.905C65.5697 562.659 62.5916 552.494 60.4296 542.124C58.2404 531.625 56.9359 520.871 55.5914 510.236Z"/>
	<path fill="#2A2626" d="M149.309 423.059C154.195 431.985 169.707 458.915 171.395 467.88L171.193 468.489L147.407 517.192C143.004 526.349 139.204 536.555 133.737 545.076C130.407 536.174 128.19 526.771 125.698 517.607C123.035 507.815 120.152 498.082 117.617 488.255C124.648 472.96 132.442 457.844 139.874 442.726C143.077 436.21 146.496 429.754 149.309 423.059Z"/>
	<path fill="#2A2626" d="M54.7682 451.834C68.5476 460.425 82.6114 468.345 96.6052 476.554C102.513 480.02 108.818 484.839 115.117 487.404C121.041 508.333 126.326 529.453 132.502 550.311C114.758 541.424 97.5153 531.286 80.2728 521.462C72.2837 516.91 64.3746 511.959 56.0544 508.033C55.7495 507.891 55.6959 507.907 55.4725 507.596C52.8215 503.899 54.437 458.898 54.7682 451.834Z"/>
	<path fill="#6375B7" d="M562.395 526.922C565.486 522.232 567.407 516.693 569.573 511.528Q576.139 496.028 582.1 480.285L618.005 388.709C622.941 376.084 626.871 362.83 632.432 350.493Q650.769 393.501 668.122 436.916Q673.996 451.25 680.112 465.482C682.558 471.189 684.846 477.18 687.894 482.589C689.708 503.676 698.003 525.265 709.427 543.1C699.859 540.386 690.046 539.032 680.98 544.232C672.409 549.148 666.647 559.856 664.369 569.229Q663.989 570.813 663.702 572.417Q663.414 574.02 663.22 575.638Q663.027 577.255 662.927 578.881Q662.828 580.507 662.823 582.136Q662.818 583.765 662.908 585.391Q662.998 587.018 663.182 588.637Q663.366 590.255 663.644 591.86Q663.921 593.466 664.292 595.052C669.597 618.56 690.164 646.737 702.179 668.303C708.176 679.067 712.762 690.447 717.359 701.855C688.667 701.346 659.9 701.897 631.194 701.722Q618.078 645.511 603.355 589.699C598.215 570.821 591.227 549.299 576.057 536.005C571.914 532.375 567.155 529.646 562.395 526.922Z"/>
	<path fill="#2A2626" d="M355.465 34.9524C358.857 38.0334 361.618 42.5093 364.408 46.1668Q370.94 54.7712 377.921 63.0161C396.604 84.8895 419.469 105.412 443.15 121.713C452.388 107.936 460.526 93.3011 466.154 77.6528Q469.303 68.7662 471.658 59.6368C472.841 54.9395 474.245 40.6534 476.722 37.2322L477.317 37.2894C480.003 42.8363 471.555 70.6794 469.184 77.4822C463.502 93.7869 454.909 109.022 445.174 123.222C469.942 139.859 495.06 155.788 521.587 169.513C571.615 195.396 663.311 231.44 719.758 220.574C732.559 218.11 745.909 212.029 753.353 200.875C758.682 192.891 760.193 183.149 758.284 173.797C757.274 168.852 754.565 164.466 752.921 159.751L756.336 160.299C761.387 171.965 764.247 183.057 759.331 195.354C754.858 206.543 745.749 214.188 734.822 218.788C693.797 236.06 619.964 214.086 580.567 198.726L578.134 197.865C569.578 194.729 557.032 188.164 548.827 186.507C547.722 186.537 546.564 186.648 545.465 186.549C540.45 187.17 514.323 204.152 506.512 207.294C505.405 201.845 505.142 196.047 504.517 190.503Q502.788 176.12 501.332 161.707C500.004 160.806 498.563 160.06 497.163 159.276C481.567 166.982 466.655 176.017 451.116 183.827C450.466 166.234 451.272 148.396 451.359 130.774Q447.323 128.252 443.404 125.553C433.422 143.404 413.461 163.088 398.474 177.197Q398.099 208.863 398.948 240.519C440.201 254.55 483.475 264.883 526.42 272.119C540.781 274.538 555.107 277.127 569.571 278.866C631.342 286.294 695.427 285.061 756.239 271.432C789.532 263.97 821.243 253.361 851.487 237.451C863.318 231.227 874.786 224.544 884.895 215.701C898.862 203.484 909.726 188.806 919.607 173.209L922.244 174.181C924.724 190.876 926.297 207.704 928.123 224.48C929.217 234.525 931.149 245.216 930.97 255.285C922.881 251.712 915.11 247.333 907.252 243.28Q891.467 235.04 875.257 227.671C872.453 229.661 869.845 231.651 867.528 234.215Q867.305 259.875 867.499 285.535C867.517 294.223 868.009 303.248 867.161 311.883C866.983 311.779 866.804 311.677 866.628 311.57C860.634 307.901 855.085 302.232 849.743 297.605L816.981 269.16C814.744 267.238 809.265 261.62 807.133 260.59C806.764 260.412 806.317 260.511 805.909 260.472C804.579 261.455 804.434 262.838 804.168 264.423C802.803 272.551 801.659 337.116 798.691 339.581C794.097 335.566 790.094 330.855 785.802 326.522C770.042 310.612 755.159 293.634 738.882 278.257C735.215 278.854 731.517 279.375 727.869 280.071C719.777 297.921 713.602 317.009 706.469 335.293C704.008 341.599 701.789 349.692 697.961 355.206C696.588 355.564 696.059 355.707 694.673 355.178C689.34 349.547 685.425 340.485 681.571 333.719C672.487 317.771 663.754 301.092 653.292 286.004C639.529 286.021 625.793 285.569 612.035 285.386C599.759 301.194 588.134 317.6 576.303 333.748C571.297 340.582 566.309 348.869 560.453 354.945C556.215 346.76 553.138 337.836 549.732 329.273C542.58 311.292 535.815 292.95 528.098 275.222C493.918 269.242 459.269 262.141 426.068 251.939C381.09 238.119 337.743 220.535 291.098 212.769C294.951 229.76 301.959 251.358 303.792 268.092C284.459 261.352 265.619 253.001 246.001 247.121C244.674 248.066 243.289 248.98 242.03 250.013C250.653 257.849 256.234 268.659 256.744 280.418C257.105 288.761 254.786 297.284 249.107 303.562C243.317 309.962 234.821 313.55 226.258 313.789C203.804 314.417 190.427 297.336 174.74 283.975L166.749 285.888C163.796 296.984 160.408 307.986 157.144 318.995C154.798 326.909 152.744 335.467 149.293 342.969C149.129 342.825 148.963 342.683 148.8 342.538C144.371 338.579 140.475 333.896 136.471 329.502Q127.865 320.134 119.38 310.658C116.404 307.281 110.491 299.112 107.196 297.2C106.351 296.71 104.706 296.962 103.767 297.01C103.045 297.047 103.301 296.901 102.874 297.382C97.8324 303.061 93.4809 310.011 89.0801 316.223Q82.1767 325.831 74.8566 335.125C71.732 339.162 68.6788 343.608 64.7555 346.905C59.1095 334.222 51.977 317.092 47.9924 303.915C48.2412 302.99 48.5307 302.402 49.0766 301.615L49.6722 301.75L59.3766 326.312C61.4274 331.528 63.2339 337.251 66.0593 342.089C77.3493 328.673 89.7146 311.304 99.6248 296.847C85.2161 295.37 69.8956 296.57 55.735 293.136C54.3126 292.791 53.3218 292.763 52.5268 291.507L52.9525 289.755C61.026 290.399 69.0673 292.212 77.1996 292.907C126.799 297.145 183.107 284.186 225.38 257.605C246.339 244.425 264.618 228.136 283.503 212.257C266.993 210.632 248.08 213.484 233.72 222.171C228.675 225.222 224.208 229.265 219.255 232.315C218.186 232.974 216.945 233.414 215.711 233.04L215.728 232.374C218.418 227.789 226.454 223.418 230.918 220.796C262.646 202.159 296.97 209.672 330.412 218.35C338.008 215.281 345.285 210.853 352.333 206.701C381.945 189.256 407.849 167.471 429.427 140.656C433.563 135.517 438.568 129.846 441.483 123.919C433.564 117.806 425.487 112.23 417.82 105.754C401.432 112.182 386.301 121.821 370.207 128.88C370.363 122.303 371.611 115.565 372.522 109.045Q375.306 88.7475 379.079 68.6104C374.283 62.8885 369.419 57.1817 364.839 51.2862C361.032 46.3865 357.582 41.0616 353.311 36.5548L355.465 34.9524Z"/>
	<path fill="white" d="M504.141 163.419C510.953 166.23 517.475 170.594 524.049 174.015C530.724 177.487 537.681 180.38 544.381 183.805C539.8 185.693 535.568 188.106 531.257 190.53C523.687 194.654 516.226 199.016 508.727 203.27C506.365 190.258 505.583 176.577 504.141 163.419Z"/>
	<path fill="white" d="M454.099 132.733Q473.649 145.497 493.687 157.482C489.117 160.458 484.053 162.922 479.266 165.543Q466.591 172.405 454.002 179.423C453.84 163.868 454.056 148.29 454.099 132.733Z"/>
	<path fill="white" d="M381.361 71.7135C385.787 75.372 389.883 79.9506 394.007 83.9846Q404.179 94.0347 414.884 103.516L396.252 113.001C388.599 116.862 380.833 120.457 373.229 124.429Q376.591 97.9626 381.361 71.7135Z"/>
	<path fill="white" d="M224.497 261.489C224.564 261.561 224.648 261.621 224.699 261.705C226.118 264.057 218.801 304.595 217.86 310.397C207.692 308.205 201.62 303.266 193.742 296.859C188.468 292.409 182.925 288.024 178.225 282.965C188.024 279.101 197.922 275.477 207.401 270.852C213.226 268.009 218.772 264.539 224.497 261.489Z"/>
	<path fill="white" d="M287.102 212.854C287.185 212.881 287.278 212.887 287.349 212.935C289.744 214.57 298.966 257.354 300.372 263.79C290.83 260.653 281.49 256.869 272.121 253.252Q260.45 249.035 248.714 245.004Q260.942 235.141 272.982 225.049C277.719 221.022 282.169 216.642 287.102 212.854Z"/>
	<path fill="white" d="M161.792 287.559L162.72 287.62C163.435 291.095 150.226 332.306 148.452 338.177C142.49 332.305 136.895 326.102 131.263 319.917L110.475 296.411C118.409 295.399 126.378 294.847 134.293 293.629C143.627 292.194 152.658 289.918 161.792 287.559Z"/>
	<path fill="#D6E5F4" d="M239.383 251.912Q240.361 252.712 241.287 253.571Q242.213 254.43 243.083 255.346Q243.954 256.262 244.764 257.231Q245.575 258.199 246.324 259.217Q247.073 260.235 247.756 261.298Q248.439 262.36 249.054 263.464Q249.669 264.567 250.214 265.707Q250.758 266.847 251.23 268.019C254.576 276.289 255.138 286.439 251.442 294.688C248.018 302.33 242.003 306.394 234.55 309.368C229.859 310.757 225.7 311.037 220.818 310.977C221.275 305.752 222.466 300.423 223.319 295.237C225.273 283.353 227.402 271.41 228.664 259.434C232.128 256.729 235.691 254.294 239.383 251.912Z"/>
	<path fill="white" d="M919.372 178.893C921.515 181.628 927.423 242.396 928.123 250.959C918.969 247.138 909.869 241.743 900.981 237.25Q889.28 231.395 877.657 225.388C881.863 221.219 886.779 217.668 891.101 213.574C902.185 203.076 911.072 191.636 919.372 178.893Z"/>
	<path fill="white" d="M395.288 179.927C396.744 182.334 395.976 232.202 395.978 239.337Q373.78 231.417 351.25 224.496C345.729 222.679 340.083 221.133 334.514 219.461C356.485 209.503 376.662 195.103 395.288 179.927Z"/>
	<path fill="white" d="M863.985 233.468C864.063 233.544 864.16 233.603 864.219 233.694C865.708 235.985 864.935 298.531 864.728 306.497C854.409 299.127 844.726 289.964 835.223 281.561C826.513 274.215 818.001 266.614 809.365 259.18C828.101 251.336 846.636 244.226 863.985 233.468Z"/>
	<path fill="white" d="M800.965 262.1L801.028 262.157L800.826 262.645L801.314 262.267C802.222 267.609 800.703 278.353 800.372 284.063Q799.038 309.309 797.368 334.534C788.678 325.24 779.562 316.302 770.75 307.114L742.067 277.315C761.999 272.735 781.4 268.12 800.965 262.1Z"/>
	<path fill="white" d="M719.583 280.807C721.016 280.639 723.13 280.103 724.394 280.834C715.379 305.062 706.28 329.572 696.209 353.381C691.209 346.25 687.218 338.066 682.939 330.478C674.535 315.389 665.21 300.895 656.606 285.944C677.765 285.47 698.61 283.518 719.583 280.807Z"/>
	<path fill="white" d="M531.052 275.795C540.137 276.732 549.255 278.9 558.328 280.165Q583.519 283.601 608.9 285.066C599.064 297.096 590.275 310.186 581.087 322.73C574.401 331.688 568.144 341.19 561.089 349.842C557.593 343.462 555.32 336.077 552.54 329.343L531.052 275.795Z"/>
	<path fill="#D6E5F4" d="M52.9525 289.755C55.4864 286.304 57.3437 281.966 59.5012 278.241C64.0102 270.456 69.2868 262.741 75.1615 255.931Q77.169 253.646 79.3054 251.481Q81.4418 249.317 83.6999 247.279Q85.9581 245.242 88.3304 243.339Q90.7027 241.435 93.1812 239.673Q95.6597 237.91 98.2362 236.294Q100.813 234.677 103.478 233.213Q106.144 231.749 108.89 230.441Q111.636 229.133 114.453 227.987C124.703 223.812 135.79 221.469 146.559 219.056C168.508 214.136 190.999 210.381 212.187 202.636C238.784 192.914 260.543 175.71 273.792 150.328C278.877 140.587 282.659 130.032 286.336 119.699C290.648 107.577 294.445 95.1515 299.899 83.4809C311.139 59.4257 328.553 45.5052 353.311 36.5548C357.582 41.0616 361.032 46.3865 364.839 51.2862C369.419 57.1817 374.283 62.8885 379.079 68.6104Q375.306 88.7475 372.522 109.045C371.611 115.565 370.363 122.303 370.207 128.88C386.301 121.821 401.432 112.182 417.82 105.754C425.487 112.23 433.564 117.806 441.483 123.919C438.568 129.846 433.563 135.517 429.427 140.656C407.849 167.471 381.945 189.256 352.333 206.701C345.285 210.853 338.008 215.281 330.412 218.35C296.97 209.672 262.646 202.159 230.918 220.796C226.454 223.418 218.418 227.789 215.728 232.374L215.711 233.04C216.945 233.414 218.186 232.974 219.255 232.315C224.208 229.265 228.675 225.222 233.72 222.171C248.08 213.484 266.993 210.632 283.503 212.257C264.618 228.136 246.339 244.425 225.38 257.605C183.107 284.186 126.799 297.145 77.1996 292.907C69.0673 292.212 61.026 290.399 52.9525 289.755Z"/>
	<path fill="#6375B7" d="M332.831 135.688C338.826 135.582 349.869 133.944 355.025 136.888C357.1 138.073 358.375 140.617 359.034 142.817C360.562 147.923 360.842 162.103 358.031 166.707C356.746 168.811 354.749 169.354 352.476 169.836C346.959 169.823 333.987 171.33 329.406 168.78C327.411 167.67 326.375 164.36 326.029 162.274C325.252 157.593 324.763 141.89 327.623 138.153C328.961 136.403 330.771 136.052 332.831 135.688Z"/>
	<path fill="#D6E5F4" d="M332.193 138.156C338.164 137.809 345.763 137.142 351.59 138.526C353.254 138.921 354.596 139.521 355.504 141.056C358.084 145.413 358.021 158.993 356.52 163.907C355.952 165.766 354.843 166.485 353.27 167.397C347.078 167.511 339.964 168.238 333.878 167.302C332.132 167.033 330.609 166.663 329.597 165.135C327.444 161.884 327.733 145.134 328.937 141.337C329.529 139.47 330.553 138.946 332.193 138.156Z"/>
	<path fill="#6375B7" d="M127.44 233.202C133.073 233.12 148.041 231.204 152.161 235.607C155.718 239.408 154.028 257.22 153.959 263.148C151.754 265.747 150.384 267.068 147.043 267.896C142.034 267.974 127.767 269.272 124.124 266.825C122.235 265.557 121.176 262.347 120.748 260.246C119.715 255.176 119.28 239.671 122.256 235.621C123.637 233.742 125.275 233.513 127.44 233.202Z"/>
	<path fill="#D6E5F4" d="M128.824 235.721C135.094 235.585 143.619 234.354 149.577 236.403C150.084 236.774 150.377 237.094 150.62 237.683C151.923 240.837 152.77 259.866 150.91 262.942C149.945 264.537 147.398 265.003 145.759 265.417C140.889 265.495 129.503 266.659 125.509 264.666C124.234 264.03 123.465 261.841 123.12 260.549C121.918 256.041 121.229 241.94 123.939 238.133C125.248 236.296 126.757 236.07 128.824 235.721Z"/>
	<path fill="#D6E5F4" d="M443.404 125.553Q447.323 128.252 451.359 130.774C451.272 148.396 450.466 166.234 451.116 183.827C466.655 176.017 481.567 166.982 497.163 159.276C498.563 160.06 500.004 160.806 501.332 161.707Q502.788 176.12 504.517 190.503C505.142 196.047 505.405 201.845 506.512 207.294C514.323 204.152 540.45 187.17 545.465 186.549C546.564 186.648 547.722 186.537 548.827 186.507C557.032 188.164 569.578 194.729 578.134 197.865L580.567 198.726C619.964 214.086 693.797 236.06 734.822 218.788C745.749 214.188 754.858 206.543 759.331 195.354C764.247 183.057 761.387 171.965 756.336 160.299C785.577 163.94 815.113 164.8 844.542 165.898C854.166 166.257 863.798 166.287 873.411 166.914Q886.535 167.777 899.488 170.059C906.137 171.18 912.883 172.655 919.607 173.209C909.726 188.806 898.862 203.484 884.895 215.701C874.786 224.544 863.318 231.227 851.487 237.451C821.243 253.361 789.532 263.97 756.239 271.432C695.427 285.061 631.342 286.294 569.571 278.866C555.107 277.127 540.781 274.538 526.42 272.119C483.475 264.883 440.201 254.55 398.948 240.519Q398.099 208.862 398.474 177.197C413.461 163.088 433.422 143.404 443.404 125.553Z"/>
	<path fill="#8A9FCE" d="M578.134 197.865L580.567 198.726C580.657 203.588 581.644 210.442 577.828 214.14C576.031 215.883 573.301 216.565 570.983 217.359L570.226 217.194C570.222 216.131 570.361 215.321 570.65 214.299C572.456 213.993 574.131 213.83 575.571 212.61C579.167 209.565 578.128 202.15 578.134 197.865Z"/>
	<path fill="#8A9FCE" d="M545.465 186.549C546.564 186.648 547.722 186.537 548.827 186.507C548.339 191.33 547.268 206.186 549.694 209.885C548.306 211.568 547.265 213.225 546.252 215.155L545.552 215.174C545.404 214.526 545.432 213.64 545.392 212.991C546.23 210.449 545.502 190.622 545.465 186.549Z"/>
	<path fill="#6375B7" d="M537.064 219.223C539.284 215.664 541.256 213.957 545.392 212.991C545.432 213.64 545.404 214.526 545.552 215.174C544.501 215.558 543.528 215.971 542.631 216.646C540.25 218.435 539.587 221.676 539.307 224.478C538.843 229.107 538.046 238.23 541.358 241.936C543.897 244.776 551.261 243.826 554.916 243.921C573.312 244.4 563.424 232.049 568.927 226.834C569.293 227.366 569.433 227.742 569.495 228.391C569.95 233.089 569.742 240.12 566.415 243.761C564.877 245.443 562.828 246.227 560.575 246.26C555.192 246.339 543.003 247.467 539.187 243.46C535.173 239.246 536.897 225.08 537.064 219.223Z"/>
	<path fill="white" d="M548.827 186.507C557.032 188.164 569.578 194.729 578.134 197.865C578.128 202.15 579.167 209.565 575.571 212.61C574.131 213.83 572.456 213.993 570.65 214.299C564.306 215.243 558.209 214.202 552.493 211.305L549.694 209.885C547.268 206.186 548.339 191.33 548.827 186.507Z"/>
	<path fill="#6375B7" d="M442.951 201.601C449.415 200.918 458.873 200.335 465.12 202.074C467.499 202.737 469.167 203.758 470.313 205.997C472.962 211.175 472.448 225.116 470.413 230.486C469.33 233.343 467.487 234.667 464.806 235.922C458.564 236.62 450.112 237.063 444.013 235.646C441.597 235.084 439.811 233.791 438.511 231.661C435.549 226.811 436.043 213.902 437.449 208.373C438.343 204.857 439.913 203.435 442.951 201.601Z"/>
	<path fill="#D6E5F4" d="M444.721 203.673C450.649 203.509 457.981 203.024 463.727 204.296C465.524 204.694 466.892 205.296 467.852 206.961C470.489 211.533 469.885 223.713 468.22 228.703C467.379 231.22 465.994 232.239 463.717 233.438C457.514 233.529 447.863 234.675 442.292 232.173C441.12 231.646 440.621 230.776 440.187 229.623C438.6 225.412 438.41 211.255 440.477 206.99C441.389 205.107 442.851 204.388 444.721 203.673Z"/>
	<path fill="#6375B7" d="M820.071 185.745C824.859 185.661 838.224 184.208 841.877 186.702C844.25 188.323 845.423 191.586 845.812 194.307C846.586 199.725 847.105 215.357 843.741 219.424C842.218 221.264 840.335 221.607 838.079 221.93C833.383 221.999 818.054 223.126 814.873 220.549C813.086 219.102 812.129 215.877 811.734 213.725C810.735 208.281 810.392 192.93 813.758 188.662C815.341 186.654 817.662 186.076 820.071 185.745Z"/>
	<path fill="#D6E5F4" d="M820.152 188.223C824.737 188.191 836.646 186.859 840.247 188.781C842.053 189.745 842.89 192.924 843.218 194.746C844.031 199.255 844.731 214.445 841.888 217.896C840.916 219.075 839.532 219.229 838.125 219.474C831.936 219.465 822.199 220.572 816.595 218.326C815.277 216.815 814.746 215.156 814.392 213.193C813.537 208.452 812.966 193.435 816.058 189.835C817.161 188.551 818.59 188.433 820.152 188.223Z"/>
	<path fill="#D6E5F4" d="M355.465 34.9524C355.731 34.942 355.997 34.9359 356.263 34.9212C361.442 34.6345 367.692 31.9878 372.856 30.7911Q388.874 27.129 405.122 24.6775C425.189 21.6253 445.171 20.1325 465.425 19.1788C509.26 17.1147 575.539 17.0097 610.731 46.9846C624.368 58.6002 634.956 72.3487 645.642 86.5856C676.289 127.416 698.253 154.695 752.921 159.751C754.565 164.466 757.274 168.852 758.284 173.797C760.193 183.149 758.682 192.891 753.353 200.875C745.909 212.029 732.559 218.11 719.758 220.574C663.311 231.44 571.615 195.396 521.587 169.513C495.06 155.788 469.942 139.859 445.174 123.222C454.909 109.022 463.502 93.7869 469.184 77.4822C471.555 70.6794 480.003 42.8363 477.317 37.2894L476.722 37.2322C474.245 40.6534 472.841 54.9395 471.658 59.6368Q469.303 68.7662 466.154 77.6528C460.526 93.3011 452.388 107.936 443.15 121.713C419.469 105.412 396.604 84.8895 377.921 63.0161Q370.94 54.7712 364.408 46.1668C361.618 42.5093 358.857 38.0334 355.465 34.9524Z"/>
	<path fill="#343D95" d="M640.916 192.473Q658.798 193.043 676.689 192.937C683.949 192.897 691.75 192.213 698.948 192.979C699.799 194.091 699.488 194.271 699.368 195.607C680.985 193.707 660.678 195.716 642.015 195.245C640.915 194.409 641.123 193.776 640.916 192.473Z"/>
	<path fill="#6375B7" d="M639.183 125.194C645.263 125.064 660.785 123.071 664.944 127.396C668.558 131.155 667.298 148.776 667.432 154.384C665.771 157.391 664.594 158.995 661.496 160.553C655.994 160.622 641.093 161.926 636.833 159.676C635.163 158.794 634.205 156.933 633.667 155.188C632.099 150.097 632.007 132.68 634.686 128.142C635.776 126.298 637.192 125.719 639.183 125.194Z"/>
	<path fill="#D6E5F4" d="M638.227 128.077C644.517 127.614 654.165 126.948 660.292 127.87C661.515 128.054 662.247 128.294 662.981 129.336C665.39 132.752 665.02 149.82 664.189 154.135C663.817 156.069 663.013 156.661 661.466 157.643C657.482 158.199 640.362 159.141 637.532 156.789C634.107 153.942 635.33 139.663 635.551 135.149C635.7 132.112 635.869 130.194 638.227 128.077Z"/>
	<path fill="#6375B7" d="M569.569 60.5626C575.954 60.4717 590.703 58.5991 595.262 63.19C599.553 67.5122 597.655 84.4407 597.385 90.6278C595.849 93.2344 594.467 94.7211 591.706 96.026Q580.374 96.1115 569.042 95.9379C567.202 94.8725 564.859 93.491 564.019 91.4644C561.962 86.4993 562.069 69.1745 564.372 64.4461C565.496 62.1372 567.246 61.356 569.569 60.5626Z"/>
	<path fill="#D6E5F4" d="M571.026 63.1555C575.982 63.0637 588.18 61.8702 592.272 64.0602C593.723 64.8369 594.249 66.4928 594.628 68.0043C595.864 72.9373 596.226 87.2164 593.488 91.5177C592.631 92.8641 591.616 93.2613 590.126 93.5932C585.413 93.6828 573.403 94.8722 569.63 93.4337C567.924 92.7835 566.839 91.0628 566.233 89.4051C564.639 85.0457 564.15 69.5286 566.552 65.6767C567.684 63.8607 569.084 63.5556 571.026 63.1555Z"/>
</svg>
