<?xml version="1.0" encoding="utf-8" ?>
<svg xmlns="http://www.w3.org/2000/svg" xmlns:xlink="http://www.w3.org/1999/xlink" width="1024" height="1024">
	<path fill="white" d="M0 0L1024 0L1024 1024L0 1024L0 0Z"/>
	<path fill="#D7E4F3" d="M208.671 324.186C208.75 324.173 208.828 324.154 208.908 324.147C219.892 323.118 230.96 325.841 239.884 332.394Q240.818 333.082 241.718 333.815Q242.618 334.548 243.48 335.325Q244.343 336.101 245.166 336.919Q245.99 337.736 246.772 338.593Q247.555 339.451 248.294 340.345Q249.033 341.239 249.728 342.169Q250.423 343.098 251.071 344.061Q251.719 345.023 252.32 346.017Q252.92 347.01 253.471 348.031Q254.022 349.052 254.522 350.1Q255.022 351.147 255.471 352.217Q255.919 353.288 256.314 354.379Q256.709 355.47 257.051 356.579Q257.392 357.688 257.678 358.813Q257.965 359.937 258.196 361.075Q258.427 362.212 258.602 363.359C260.391 375.598 257.575 388.038 250.082 397.948C242.274 408.274 231.484 413.53 218.849 415.233C207.236 416.706 195.957 413.326 186.693 406.287C176.904 398.849 170.208 388.342 168.681 376.048C167.155 363.758 170.176 351.076 177.853 341.262C185.545 331.429 196.339 325.647 208.671 324.186Z"/>
	<path fill="#F4793D" d="M114.988 744.454C111.66 737.266 108.827 729.929 106.892 722.238C102.571 705.06 102.69 686.89 112.934 671.768C117.683 664.757 123.377 658.388 127.691 651.076C136.038 636.926 135.111 620.137 128.691 605.368C124.411 595.523 118.72 586.41 116.085 575.894C112.92 563.268 114.907 548.931 121.715 537.773C132.02 520.884 152.053 510.421 170.751 506.023C201.233 498.854 219.428 507.925 244.616 523.54C239.206 536.107 232.918 548.787 228.648 561.779C219.232 590.427 222.596 620.79 223.118 650.385C209.107 656.981 195.154 666.914 186.757 680.203C173.876 700.587 174.834 723.334 149.135 735.02C142.542 738.018 135.222 738.931 128.212 740.481C123.894 741.435 119.209 743.888 114.988 744.454Z"/>
	<path d="M798.504 588.889L882.496 589.098C896.863 589.119 911.484 588.647 925.819 589.382C925.939 601.267 925.692 613.172 925.94 625.051C929.033 627.789 932.403 631.41 936.441 632.551C937.033 632.719 937.93 632.783 938.209 633.386C939.496 636.167 938.666 721.22 938.525 731.628C927.419 732.054 916.269 731.883 905.155 731.898L828.71 731.829C817.697 731.823 803.411 732.714 792.809 731.728C790.793 731.54 789.253 731.291 787.678 729.917C786.435 728.831 785.691 727.599 785.372 725.977C784.106 719.544 784.929 712.011 784.942 705.445C784.978 687.937 785.876 669.869 784.688 652.437L784.638 651.774L784.576 633.155C785.288 633.12 789.245 633.165 789.572 632.905C792.576 630.514 795.558 628.154 798.326 625.489C798.318 613.307 798.141 601.064 798.504 588.889Z"/>
	<path fill="#F4793D" d="M935.845 635.917C936.881 640.649 936.064 656.903 936.076 662.665C936.119 683.726 937.136 705.344 935.751 726.355Q921.87 713.33 907.845 700.461C899.028 692.083 890.53 683.329 881.933 674.723C891.511 667.326 901.439 660.365 911.188 653.193C919.275 647.244 927.087 640.871 935.845 635.917Z"/>
	<path fill="#F4793D" d="M786.976 635.313C794.371 638.046 801.602 644.658 807.929 649.289Q824.656 661.449 841.056 674.046Q828.191 687.586 814.786 700.591C806.225 709.005 797.886 717.849 789.034 725.939L788.252 725.827C787.86 724.915 787.647 724.201 787.577 723.199C786.856 712.784 787.444 702.002 787.429 691.539Q787.526 663.423 786.976 635.313Z"/>
	<path fill="#F4793D" d="M843.521 675.807C847.205 676.701 858.458 686.083 862.288 688.761C867.666 684.068 873.437 680.039 879.404 676.146C890.526 687.956 902.486 699.077 914.378 710.104C921.083 716.323 927.971 722.386 934.288 729.003C921.08 729.476 907.781 729.262 894.56 729.346L828.853 729.408C816.142 729.409 803.157 729.915 790.486 729.092C795.98 721.297 807.953 710.791 815.111 703.842C824.658 694.573 833.94 685.037 843.521 675.807Z"/>
	<path fill="#F4793D" d="M800.732 591.335L923.398 591.874L923.362 621.466C923.378 627.174 923.884 633.247 923.14 638.908C922.572 643.225 902.481 656.236 898.256 659.271L861.81 685.34C853.338 678.286 843.756 672.364 834.789 665.967C823.197 657.699 811.907 648.978 800.465 640.502C800.359 624.114 800.938 607.736 800.732 591.335Z"/>
	<path fill="#D7E4F3" d="M114.988 744.454C119.209 743.888 123.894 741.435 128.212 740.481C135.222 738.931 142.542 738.018 149.135 735.02C174.834 723.334 173.876 700.587 186.757 680.203C195.154 666.914 209.107 656.981 223.118 650.385C224.848 677.44 224.487 704.907 225.155 732.028Q225.444 744.738 225.869 757.445C226.076 763.385 226.758 769.56 225.978 775.465C225.201 781.347 222.946 787.476 221.334 793.197L211.711 827.147L180.173 936.429C175.953 951.15 170.592 965.899 167.168 980.811C159.996 979.333 138.876 980.411 129.983 980.433L43.9454 980.499C43.9207 961.801 50.9649 941.349 61.9481 926.276C74.024 909.704 84.2155 901.919 88.3396 879.951C91.4154 863.569 88.2994 848.522 83.3697 832.916C81.3348 826.474 79.126 820.013 78.3862 813.265C77.481 805.007 78.6192 796.546 80.7865 788.566C86.0893 769.04 97.5374 754.484 114.988 744.454Z"/>
	<path fill="#F4793D" d="M784.638 651.774L784.688 652.437C785.876 669.869 784.978 687.937 784.942 705.445C784.929 712.011 784.106 719.544 785.372 725.977C785.691 727.599 786.435 728.831 787.678 729.917C789.253 731.291 790.793 731.54 792.809 731.728C803.411 732.714 817.697 731.823 828.71 731.829L905.155 731.898C901.594 745.734 906.037 769.689 913.209 781.93C922.502 797.793 937.715 805.081 951.533 815.946C982.198 840.055 985.782 882.598 976.765 918.052C971.797 937.585 959.256 965.869 944.518 980.223C917.053 979.407 889.402 979.986 861.917 979.952C853.636 979.942 831.079 978.911 824.863 980.434C826.755 975.167 826.975 967.962 827.723 962.371C829.937 945.833 831.719 929.26 833.776 912.706L839.613 868.004C840.622 860.022 842.022 851.829 842.217 843.78Q842.24 842.756 842.222 841.733Q842.203 840.709 842.143 839.687Q842.082 838.664 841.98 837.645Q841.877 836.627 841.733 835.613Q841.589 834.599 841.404 833.592Q841.218 832.585 840.992 831.586Q840.765 830.588 840.498 829.599Q840.23 828.611 839.923 827.634Q839.615 826.657 839.268 825.694Q838.92 824.731 838.534 823.782Q838.147 822.834 837.722 821.903Q837.297 820.971 836.834 820.057Q836.371 819.144 835.871 818.25Q835.371 817.357 834.835 816.484Q834.299 815.612 833.727 814.762Q833.156 813.913 832.55 813.087C825.581 803.642 814.634 795.891 805.833 788.171Q788.44 772.678 771.215 756.998C746.511 734.407 723.281 710.42 700.319 686.079C726.322 682.714 753.036 681.052 774.643 664.3C777.413 662.152 780.677 659.912 782.92 657.219C783.063 657.048 783.196 656.868 783.336 656.694C784.672 655.037 784.662 653.875 784.638 651.774Z"/>
	<path fill="#FED4CA" d="M625.238 196.401C625.326 196.271 625.417 196.143 625.503 196.012C628.526 191.376 630.21 185.257 632.351 180.136C634.452 175.111 637.06 170.271 639.827 165.584C649.134 149.811 661 134.49 674.704 122.284C694.834 104.355 722.222 90.745 748.415 84.8363C789.953 75.4662 836.274 82.722 872.308 105.64Q874.147 106.793 875.958 107.992Q877.768 109.19 879.549 110.433Q881.329 111.676 883.078 112.962Q884.827 114.248 886.544 115.577Q888.26 116.906 889.944 118.277Q891.627 119.648 893.276 121.06Q894.926 122.472 896.539 123.925Q898.153 125.377 899.73 126.869Q901.308 128.361 902.848 129.891Q904.388 131.421 905.89 132.989Q907.392 134.557 908.855 136.161Q910.317 137.766 911.74 139.406Q913.163 141.046 914.544 142.72Q915.926 144.395 917.266 146.103Q918.606 147.811 919.904 149.552Q921.201 151.293 922.455 153.065Q923.709 154.837 924.919 156.64Q926.129 158.443 927.294 160.275Q928.46 162.107 929.579 163.967Q930.699 165.827 931.772 167.714Q932.845 169.601 933.872 171.515Q934.898 173.428 935.877 175.366Q936.856 177.303 937.786 179.265Q938.717 181.226 939.599 183.21Q940.481 185.194 941.314 187.199Q942.147 189.204 942.93 191.229Q943.713 193.254 944.446 195.298Q945.179 197.341 945.861 199.402Q946.543 201.464 947.174 203.541Q947.805 205.618 948.385 207.711Q948.965 209.803 949.492 211.909Q950.02 214.015 950.496 216.133Q950.984 218.29 951.418 220.458Q951.853 222.627 952.234 224.805Q952.615 226.983 952.942 229.17Q953.269 231.358 953.542 233.552Q953.815 235.747 954.034 237.947Q954.253 240.148 954.417 242.353Q954.582 244.558 954.692 246.767Q954.802 248.976 954.858 251.186Q954.914 253.397 954.915 255.609Q954.916 257.82 954.863 260.031Q954.809 262.242 954.701 264.45Q954.594 266.659 954.431 268.865Q954.269 271.07 954.052 273.271Q953.836 275.472 953.565 277.667Q953.294 279.861 952.969 282.049Q952.644 284.236 952.266 286.415Q951.887 288.594 951.455 290.763Q951.023 292.931 950.537 295.089Q950.052 297.246 949.513 299.391Q948.974 301.536 948.383 303.667Q947.792 305.798 947.148 307.914Q946.504 310.029 945.808 312.128Q945.113 314.228 944.366 316.309Q943.618 318.39 942.82 320.453Q942.022 322.515 941.173 324.557Q940.324 326.599 939.425 328.619Q938.526 330.64 937.577 332.638Q936.629 334.635 935.631 336.609Q934.634 338.583 933.588 340.531Q932.542 342.48 931.449 344.402Q930.355 346.324 929.215 348.219Q928.074 350.113 926.887 351.979Q925.466 354.167 923.979 356.312Q922.492 358.456 920.941 360.555Q919.39 362.653 917.776 364.704Q916.163 366.755 914.488 368.756Q912.813 370.757 911.079 372.706Q909.344 374.656 907.552 376.552Q905.759 378.448 903.91 380.29Q902.061 382.131 900.158 383.916Q898.254 385.7 896.297 387.427Q894.34 389.153 892.332 390.82Q890.324 392.486 888.267 394.091Q886.21 395.696 884.105 397.238Q882 398.78 879.849 400.258Q877.699 401.736 875.504 403.149Q873.31 404.561 871.074 405.906Q868.838 407.252 866.563 408.529C858.821 412.957 849.255 416.212 843.028 422.627L843.171 352.381C843.141 342.395 844.166 328.663 842.332 319.221C841.563 315.26 840.043 312.406 837.136 309.573C833.734 306.256 829.692 304.395 825 303.806C818.186 302.95 810.825 303.502 803.934 303.516L765.084 303.57L632.591 303.524L632.556 245.616C632.565 235.285 633.57 223.959 631.817 213.8C630.744 207.581 628.271 201.892 625.238 196.401Z"/>
	<path d="M328.771 283.558L328.779 240.818C328.788 233.093 328.311 224.934 329.336 217.274C330.954 205.178 338.212 192.462 348.004 185.139C354.03 180.632 361.586 177.429 369.077 176.524C381.977 174.967 399.449 175.947 412.697 175.925L501.183 175.984L562.087 175.962C573.037 175.951 584.884 175.036 595.717 176.662C608.071 178.516 618.053 186.678 625.238 196.401C628.271 201.892 630.744 207.581 631.817 213.8C633.57 223.959 632.565 235.285 632.556 245.616L632.591 303.524L765.084 303.57L803.934 303.516C810.825 303.502 818.186 302.95 825 303.806C829.692 304.395 833.734 306.256 837.136 309.573C840.043 312.406 841.563 315.26 842.332 319.221C844.166 328.663 843.141 342.395 843.171 352.381L843.028 422.627L843 465.619C843.012 473.892 843.883 483.162 842.323 491.251C841.543 495.3 839.964 498.798 837.083 501.79C834.027 504.963 830.241 506.879 825.897 507.526C819.555 508.47 812.773 508.039 806.372 508.027L775.179 507.976L662.994 507.996C671.4 513.397 678.026 519.215 680.303 529.44C682.427 538.974 679.767 547.877 674.597 555.932C665.801 569.635 655.633 583.156 645.725 596.103C654.443 599.197 661.15 603.989 665.225 612.498C668.8 619.962 668.385 628.191 665.514 635.782C662.564 643.581 658.004 651.188 653.78 658.374C668.682 658.282 677.043 663.128 687.517 673.463C691.783 677.673 695.997 681.926 700.319 686.079C723.281 710.42 746.511 734.407 771.215 756.998Q788.44 772.678 805.833 788.171C814.634 795.891 825.581 803.642 832.55 813.087Q833.156 813.913 833.727 814.762Q834.299 815.612 834.835 816.484Q835.371 817.357 835.871 818.25Q836.371 819.144 836.834 820.057Q837.297 820.971 837.722 821.903Q838.147 822.834 838.534 823.782Q838.92 824.731 839.268 825.694Q839.615 826.657 839.923 827.634Q840.23 828.611 840.498 829.599Q840.765 830.588 840.992 831.586Q841.218 832.585 841.404 833.592Q841.589 834.599 841.733 835.613Q841.877 836.627 841.98 837.645Q842.082 838.664 842.143 839.687Q842.203 840.709 842.222 841.733Q842.24 842.756 842.217 843.78C842.022 851.829 840.622 860.022 839.613 868.004L833.776 912.706C831.719 929.26 829.937 945.833 827.723 962.371C826.975 967.962 826.755 975.167 824.863 980.434L823.005 979.948L822.549 979.089C816.75 981.105 788.21 979.873 779.722 979.85L694.029 979.402C686.57 979.355 679.114 979.801 671.656 979.845C652.449 979.96 633.275 979.9 614.073 980.352C609.023 980.471 595.535 979.093 591.381 980.791L589.641 981.197L588.405 980.142C580.94 979.485 573.217 979.913 565.714 979.926L525.459 979.945L469.437 979.947C459.982 979.956 447.818 978.862 438.671 980.906L437.308 981.029L436.733 980.307C435.996 974.275 440.166 949.869 441.074 941.995L444.948 909.264C446.291 898.219 447.142 886.925 451.121 876.437C456.42 862.468 466.795 854.666 474.776 842.792C490.449 819.475 498.099 790.757 504.956 763.846Q436.386 763.446 367.817 763.956C366.133 769.642 362.28 787.12 359.326 791.03C358.68 791.886 359.018 791.639 357.946 791.791C357.863 791.609 357.761 791.434 357.698 791.244C357.429 790.432 357.454 789.778 357.635 788.954C358.386 785.535 359.886 782.141 360.863 778.757C363.513 769.581 365.991 760.144 367.954 750.797Q370.133 740.555 371.192 730.137Q372.251 719.72 372.178 709.249Q372.13 703.392 371.663 697.553Q371.196 691.714 370.312 685.923Q369.429 680.132 368.133 674.42Q366.838 668.707 365.137 663.102C356.942 636.24 339.031 605.886 318.881 586.077C322.158 572.19 325.934 559.126 327.198 544.814C328.466 530.446 326.738 515.245 330.221 501.195C338.651 467.186 361.764 430.024 358.586 394.691C357.506 382.681 353.617 370.629 344.072 362.71C338.237 357.87 331.037 355.666 323.503 356.555C318.057 357.198 311.293 360.097 308.152 364.823C302.429 373.433 298.595 387.508 294.86 397.444L266.597 473.886C260.28 490.629 254.005 507.448 247.255 524.02C242.198 536.434 236.46 548.581 232.019 561.244Q230.139 566.584 228.796 572.084Q227.453 577.583 226.661 583.189C224.254 599.686 225.194 616.151 225.364 632.748Q226.201 683.203 227.767 733.641C228.07 747.429 229.244 761.791 228.56 775.535C228.239 781.987 225.143 789.029 223.338 795.3L215.693 822.511L180.996 941.993C179.194 948.085 171.695 978.123 169.387 980.533C168.832 981.113 167.913 980.828 167.168 980.811C170.592 965.899 175.953 951.15 180.173 936.429L211.711 827.147L221.334 793.197C222.946 787.476 225.201 781.347 225.978 775.465C226.758 769.56 226.076 763.385 225.869 757.445Q225.444 744.738 225.155 732.028C224.487 704.907 224.848 677.44 223.118 650.385C222.596 620.79 219.232 590.427 228.648 561.779C232.918 548.787 239.206 536.107 244.616 523.54Q255.999 494.819 266.697 465.835L292.075 397.725C295.712 388.183 300.865 369.696 307.382 362.203C313.193 355.521 320.141 354.207 328.497 353.564C328.596 349.572 328.587 345.572 328.626 341.578Q327.28 341.606 325.934 341.611C323.884 341.615 322.837 341.612 321.328 340.104C320.31 334.343 321.04 327.657 321.046 321.779L321.064 284.088L328.771 283.558Z"/>
	<path fill="white" d="M638.395 732.36C638.865 732.829 638.712 732.628 639.097 733.23C640.251 735.032 641.088 736.165 640.603 738.322C639.178 739.486 638.058 739.208 636.252 739.294C635.145 739.242 635.7 739.349 634.594 738.941C634.924 736.969 637.304 734.142 638.395 732.36Z"/>
	<path fill="#FEEEEB" d="M602.787 762.605L603.154 762.628L603.226 763.121C598.608 766.895 594.206 770.533 590.529 775.275L589.922 775.289L589.054 773.788C587.544 770.731 586.218 767.657 584.961 764.488C591.131 764.442 596.797 764.151 602.787 762.605Z"/>
	<path fill="#6D6B6C" d="M329.026 555.051C328.967 567.463 329.067 579.899 328.633 592.305L325.736 588.543L322.014 584.606C323.082 579.861 324.597 575.216 325.668 570.469C326.828 565.334 327.618 560.129 329.026 555.051Z"/>
	<path fill="#FEEEEB" d="M545.777 862.335C548.28 864.943 554.114 905.443 555.599 912.392C550.193 913.522 546.273 913.244 541.048 911.684C539.236 910.846 537.475 909.939 535.912 908.683C531.657 905.267 529.093 900.652 528.636 895.192C527.587 882.664 538.204 871.091 545.777 862.335Z"/>
	<path fill="#FEEEEB" d="M610.581 816.686C628.712 815.756 647.204 816.487 665.366 816.539C664.145 828.054 658.471 837.196 652.102 846.546L642.262 860.597C629.875 848.833 616.198 832.874 610.581 816.686Z"/>
	<path fill="#FEEEEB" d="M632.495 597.878C639.143 597.845 645.627 598.35 651.568 601.635C657.861 605.114 662.848 611.203 664.625 618.209C667.943 631.29 658.69 644.319 652.506 655.064L649.975 659.1C643.691 661.307 637.839 663.686 632.847 668.21C631.725 644.91 632.509 621.226 632.495 597.878Z"/>
	<path fill="#FEEEEB" d="M632.496 508.19C644.191 507.921 656.225 506.158 666.356 513.199C672.617 517.55 677.002 524.147 678.194 531.737C680.706 547.725 666.262 563.256 657.534 575.588C652.638 582.196 647.73 588.785 643.113 595.593C639.587 595.099 636.042 595.043 632.489 594.929C632.184 582.803 632.457 570.593 632.441 558.46Q632.3 533.325 632.496 508.19Z"/>
	<path fill="#FEEEEB" d="M638.585 742.255C639.962 742.129 641.092 742.023 642.456 742.367C646.896 747.773 660.458 787.296 662.871 796.925C664.288 802.577 665.044 808.102 665.437 813.911L617.375 813.955L608.512 813.715Q599.381 795.908 591.147 777.669C602.451 767.154 618.906 755.26 627.39 742.73C631.112 742.485 634.858 742.438 638.585 742.255Z"/>
	<path fill="#F6AFA4" d="M508.109 764.043L514.146 763.863L531.385 811.652C536.989 827.149 542.736 842.503 545.848 858.737C545.247 859.279 544.676 859.845 544.109 860.422C535.734 868.95 525.7 881.316 526.089 894.034C526.271 899.987 528.561 905.681 533.062 909.663C539.849 915.667 547.668 915.875 556.172 915.434C561.796 934.597 568.423 945.568 578.396 962.468C581.799 968.234 585.89 973.927 588.405 980.142C580.94 979.485 573.217 979.913 565.714 979.926L525.459 979.945L469.437 979.947C459.982 979.956 447.818 978.862 438.671 980.906C440.574 973.136 440.973 964.537 441.941 956.567Q444.923 932.8 447.631 909.001C448.722 899.581 449.467 889.888 452.363 880.813C456.822 866.833 465.434 859.113 474.094 847.998C477.44 843.704 480.324 838.972 482.888 834.176C490.781 819.418 496.551 803.608 501.321 787.596C503.652 779.769 505.443 771.764 508.109 764.043Z"/>
	<path fill="#78A1E3" d="M567.884 306.251L739.386 306.12L791.847 306.183C801.555 306.197 811.345 305.94 821.042 306.321C823.923 306.434 828.485 306.433 830.937 308.036C831.116 308.153 831.287 308.282 831.463 308.402C832.478 309.097 833.474 309.788 834.398 310.604C838.463 314.194 840.027 318.51 840.318 323.784C840.96 335.463 840.47 347.407 840.451 359.112L840.386 423.229L840.311 466.388C840.295 474.247 840.831 482.673 839.837 490.452C839.377 494.059 837.564 497.937 835.054 500.574C832.801 502.941 829.152 504.141 826.011 504.706C818.322 506.091 809.49 505.307 801.693 505.319L757.25 505.469L597.756 505.488C582.88 519.736 565.278 531.304 549.934 545.074C549.566 535.677 548.661 514.128 550.178 505.521C541.744 505.485 533.717 506.616 527.035 500.245C522.768 496.176 522.126 491.072 522.079 485.402L521.851 375.954L521.778 341.401C521.773 335.215 521.291 328.577 522.148 322.461C522.689 318.597 524.22 314.318 527.089 311.566Q527.937 310.764 528.88 310.076Q529.822 309.387 530.844 308.822Q531.865 308.257 532.95 307.825Q534.034 307.393 535.164 307.101C543.268 304.953 558.901 306.21 567.884 306.251Z"/>
	<path fill="white" d="M558.03 436.231C574.225 435.653 590.593 436.062 606.803 436.051L698.182 436.032L736.569 436.02C741.295 436.022 748.558 435.114 753.003 436.364C753.78 437.848 753.455 438.828 753.322 440.475L604.071 440.878C596.193 440.884 563.501 441.885 558.526 440.587C557.614 439.117 557.964 437.934 558.03 436.231Z"/>
	<path fill="white" d="M558.407 371.525L724.381 371.508L778.552 371.496C785.03 371.489 791.825 370.906 798.253 371.154C799.414 371.198 800.19 371.495 801.217 372.011C802.174 373.467 802.01 374.204 802.06 375.917C781.086 376.515 759.973 376.033 738.986 376.03L624.172 376.065L577.312 376.079C572.774 376.078 562.782 376.874 558.891 375.754C558.111 374.353 558.385 373.109 558.407 371.525Z"/>
	<path fill="white" d="M782.071 403.25C786.136 403.214 797.702 401.988 800.85 403.953C801.99 404.664 801.979 404.939 802.222 406.167L801.434 407.063C799.819 407.732 798.26 407.979 796.512 408.052C789.958 408.326 783.252 407.923 776.675 407.938L727.544 408.048L578.625 408.17C572.994 408.147 567.086 408.594 561.502 408.142C559.587 407.988 558.014 407.841 556.727 406.329C556.808 405.136 557.006 405.073 557.654 404.129C558.213 403.754 558.595 403.603 559.276 403.58C566.852 403.323 574.545 403.605 582.131 403.61L629.788 403.637L782.071 403.25Z"/>
	<path fill="white" d="M557.625 339.029L744.002 338.89L784.589 338.918C789.371 338.925 797.198 338.091 801.501 339.276C802.219 340.863 801.934 341.851 801.791 343.567C780.927 344.46 759.739 343.808 738.843 343.816L627.187 343.856L578.337 343.793C572.125 343.787 564.248 344.781 558.296 343.535C557.25 342.125 557.619 340.756 557.625 339.029Z"/>
	<path fill="#FEEEEB" d="M632.717 672.615Q633.768 671.176 635.034 669.923Q636.3 668.67 637.749 667.634C644.801 662.507 653.951 659.998 662.602 661.426C669.531 662.57 675.001 665.905 680.269 670.414C689.528 678.34 697.923 687.652 706.35 696.458C720.368 711.108 734.364 725.961 748.974 740.017C767.01 757.369 786.017 773.9 804.631 790.639C813.454 798.574 824.276 805.888 831.083 815.644Q831.995 816.939 832.818 818.294Q833.64 819.648 834.369 821.055Q835.098 822.462 835.729 823.915Q836.36 825.369 836.892 826.861Q837.423 828.354 837.852 829.879Q838.281 831.405 838.605 832.956Q838.929 834.507 839.148 836.076Q839.366 837.646 839.477 839.226C840.145 849.01 838.039 859.387 836.772 869.086L832.54 902.732L826.171 952.042C825.016 961.026 824.189 970.184 822.549 979.089C816.75 981.105 788.21 979.873 779.722 979.85L694.029 979.402C686.57 979.355 679.114 979.801 671.656 979.845C652.449 979.96 633.275 979.9 614.073 980.352C609.023 980.471 595.535 979.093 591.381 980.791C584.014 962.592 569.979 947.456 563.135 928.918C552.995 901.448 552.677 870.599 544.5 842.362C538.223 820.685 529.721 799.358 522.086 778.12C518.278 767.527 510.745 749.69 510.116 738.885C509.718 732.032 512.634 724.963 517.253 719.949C521.729 715.092 527.613 712.385 534.217 712.257C544.906 712.05 557.632 718.7 564.3 726.975C571.451 735.85 575.082 749.145 579.633 759.617C584.618 771.086 590.124 782.259 595.528 793.531C609.058 821.753 619.383 842.399 642.358 864.488C650.754 853.418 663.719 836.631 666.961 823.207C668.602 816.409 667.918 809.061 666.662 802.261C663.644 785.929 646.752 739.367 638.095 725.357C635.963 730.964 633.219 736.449 629.597 741.243C630.607 736.109 632.044 731.243 632.59 725.992C633.281 719.349 632.904 712.397 632.878 705.718L632.717 672.615Z"/>
	<path fill="white" d="M339.021 356.451C339.45 342.134 339.162 327.747 339.105 313.422L339.066 257.985C339.048 246.29 337.78 226.884 339.827 216.316C341.134 209.572 345.093 202.227 349.9 197.338C355.032 192.119 362.697 187.749 369.928 186.414C377.218 185.068 385.32 185.643 392.735 185.63L430.101 185.578L571.979 185.59C587.194 185.556 600.03 184.605 611.559 196.255C616.525 201.273 620.281 207.864 621.726 214.805C623.671 224.145 622.475 237.826 622.44 247.755L622.426 303.572C603.393 303.811 584.327 303.563 565.29 303.558C556.236 303.555 546.562 302.858 537.606 303.976C534.406 304.375 531.483 305.169 528.762 306.958C523.424 310.465 520.498 315.794 519.343 321.946C519.938 346.162 519.506 370.482 519.511 394.708C519.516 426.521 519.801 458.397 519.265 490.202C519.819 493.233 520.455 496.093 521.963 498.827C527.783 505.536 532.859 507.376 541.427 507.872C543.18 507.973 545.135 507.863 546.781 508.48C548.165 511.914 545.345 512.134 544.651 515.029C545.14 514.837 545.626 514.641 546.103 514.422L546.605 514.187C547.988 516.542 546.816 544.39 547.371 549.412L547.461 550.18C547.797 549.835 548.126 549.483 548.478 549.154C552.872 545.047 557.949 541.407 562.644 537.616C566.703 534.339 570.827 530.515 575.165 527.653C576.059 527.063 577.099 526.63 578.189 526.785C581.36 527.236 582.595 531.046 584.223 533.309L584.485 532.075C583.536 529.148 580.993 527.043 578.799 525.012C585.345 518.927 592.185 513.067 599.565 508.017C607.176 507.844 614.817 507.991 622.431 508.004L622.484 631.189C622.55 659.12 623.035 687.185 622.476 715.102C622.258 725.993 619.572 737.398 611.368 745.149C602.695 753.343 591.781 754.357 580.397 754.051C571.828 737.59 571.182 725.14 553.511 715.082C545.457 710.498 536.163 708.285 527.065 710.911C519.899 712.98 514.175 718.229 510.773 724.765C505.571 734.758 507.844 744.044 511.032 754.124L370.253 753.996C377.496 716.48 376.726 679.163 360.712 643.793C355.069 631.327 347.902 619.631 340.666 608.047Q340.961 564.122 340.596 520.198L340.538 494.747C340.528 489.429 340.237 483.849 340.826 478.563C341.663 471.046 345.708 463.254 348.498 456.268C357.227 434.404 365.088 409.541 359.89 385.891C356.856 372.087 350.815 363.979 339.021 356.451Z"/>
	<path fill="#F4793D" d="M431.769 324.358C432.465 323.261 433.167 322.153 433.995 321.149C436.65 317.929 440.582 315.771 444.775 315.528C449.075 315.279 453.276 317.08 456.378 320.006Q456.706 320.315 457.018 320.641Q457.33 320.966 457.625 321.307Q457.92 321.648 458.198 322.003Q458.475 322.359 458.734 322.728Q458.993 323.097 459.233 323.479Q459.473 323.861 459.693 324.254Q459.913 324.648 460.113 325.052Q460.312 325.456 460.491 325.87Q460.67 326.284 460.828 326.706Q460.985 327.129 461.121 327.559Q461.257 327.989 461.371 328.425Q461.485 328.861 461.576 329.303Q461.668 329.744 461.737 330.19Q461.806 330.635 461.852 331.084Q461.898 331.533 461.921 331.983Q461.945 332.433 461.945 332.884C461.886 343.574 451.879 350.197 444.863 356.847Q438.273 362.983 431.894 369.338C424.54 362.834 403.861 345.837 401.385 337.141C400.151 332.807 400.676 328.386 402.897 324.473C405.681 319.568 409.507 316.99 414.878 315.58C417.616 315.461 420.166 315.62 422.809 316.408C427.263 317.736 429.702 320.339 431.769 324.358Z"/>
	<path fill="#78A1E3" d="M519.046 440.187L519.051 359.487C519.028 349.408 518.024 331.137 519.343 321.946C519.938 346.162 519.506 370.482 519.511 394.708C519.516 426.521 519.801 458.397 519.265 490.202C517.849 490.321 516.291 491.337 514.861 491.743C508.636 493.508 502.858 493.202 496.909 490.673Q496.271 490.404 495.647 490.103Q495.023 489.801 494.416 489.467Q493.809 489.134 493.219 488.769Q492.63 488.405 492.061 488.01Q491.491 487.616 490.943 487.192Q490.394 486.769 489.869 486.317Q489.343 485.866 488.842 485.388Q488.34 484.91 487.864 484.407Q487.388 483.904 486.938 483.376Q486.489 482.849 486.067 482.299Q485.646 481.749 485.254 481.178Q484.861 480.607 484.499 480.017Q484.136 479.426 483.805 478.818Q483.474 478.209 483.175 477.584Q482.875 476.96 482.609 476.32Q482.342 475.681 482.109 475.028C479.82 468.78 479.957 462.353 482.815 456.319C486.828 447.847 493.374 444.043 501.871 440.995L357.576 441.06C357.212 453.018 357.397 465.035 357.396 477C357.395 483.119 357.767 489.509 357.079 495.578C355.412 493.313 357.148 452.71 356.342 444.997L356.241 444.104C356.29 442.59 356.373 441.232 356.733 439.758L415.825 439.943C413.421 436.532 411.259 432.849 410.171 428.791C408.322 421.894 409.807 414.031 413.536 407.986C416.942 402.466 422.018 398.588 428.369 397.133Q428.991 396.994 429.619 396.886Q430.247 396.778 430.88 396.701Q431.513 396.625 432.149 396.58Q432.785 396.536 433.422 396.523Q434.059 396.51 434.696 396.529Q435.334 396.548 435.969 396.599Q436.604 396.65 437.236 396.732Q437.868 396.815 438.495 396.929Q439.123 397.043 439.743 397.189Q440.364 397.334 440.976 397.51Q441.589 397.686 442.192 397.893Q442.795 398.099 443.387 398.336Q443.979 398.572 444.558 398.838Q445.137 399.104 445.703 399.398Q446.268 399.693 446.818 400.015Q447.368 400.338 447.901 400.687Q448.429 401.043 448.938 401.426Q449.447 401.809 449.935 402.218Q450.424 402.627 450.891 403.06Q451.358 403.493 451.801 403.95Q452.245 404.407 452.665 404.886Q453.085 405.365 453.479 405.865Q453.874 406.365 454.242 406.885Q454.61 407.405 454.951 407.943Q455.292 408.481 455.604 409.036Q455.917 409.591 456.2 410.161Q456.484 410.731 456.738 411.316Q456.992 411.9 457.215 412.496Q457.439 413.093 457.631 413.7Q457.823 414.307 457.984 414.923Q458.145 415.54 458.274 416.164Q458.402 416.787 458.499 417.417C459.896 426.172 456.69 433.05 451.829 439.962Q485.439 439.862 519.046 440.187Z"/>
	<path fill="white" d="M429.503 398.121C436.809 397.538 443.396 398.198 449.292 403.023C454.343 407.158 457.223 413.228 457.663 419.701C458.199 427.58 455.204 434.191 450.163 439.991L439.25 440.083L417.8 439.995C414.745 437.312 412.679 433.556 411.568 429.667C409.691 423.098 410.485 415.644 413.91 409.709C417.4 403.663 422.847 399.878 429.503 398.121Z"/>
	<path fill="#D7E4F3" d="M357.576 441.06L501.871 440.995C493.374 444.043 486.828 447.847 482.815 456.319C479.957 462.353 479.82 468.78 482.109 475.028Q482.342 475.681 482.609 476.32Q482.875 476.96 483.174 477.584Q483.474 478.209 483.805 478.818Q484.136 479.426 484.499 480.017Q484.861 480.607 485.254 481.178Q485.646 481.749 486.067 482.299Q486.489 482.849 486.938 483.376Q487.388 483.904 487.864 484.407Q488.34 484.91 488.842 485.388Q489.343 485.866 489.869 486.317Q490.395 486.769 490.943 487.192Q491.491 487.616 492.061 488.01Q492.63 488.405 493.219 488.769Q493.809 489.134 494.416 489.467Q495.023 489.801 495.647 490.103Q496.271 490.404 496.909 490.673C502.858 493.202 508.636 493.508 514.861 491.743C516.291 491.337 517.849 490.321 519.265 490.202C519.819 493.233 520.455 496.093 521.963 498.827C517.279 497.162 477.977 498.13 468.892 498.133L355.899 498.245L355.887 461.134C355.885 456.04 354.957 448.945 356.241 444.104L356.342 444.997C357.148 452.71 355.412 493.313 357.079 495.578C357.767 489.509 357.395 483.119 357.396 477C357.397 465.035 357.212 453.018 357.576 441.06Z"/>
	<path fill="#78A1E3" d="M361.908 562.649L519.786 562.839L571.061 562.616C579.321 562.603 588.067 562.034 596.271 562.853C600.026 563.228 601.203 564.658 603.512 567.525C603.585 575.674 604.71 591.286 603.208 598.516C602.623 601.334 601.584 602.623 599.194 604.16C590.712 605.454 580.091 604.547 571.42 604.562L513.458 604.496L407.627 604.565C393.768 604.588 379.854 604.957 366.001 604.73C363.464 604.688 361.146 604.493 358.776 603.512C358.273 603.008 357.974 602.574 357.756 601.889C356.331 597.419 355.924 568.354 357.98 564.494C359.267 563.303 360.214 563.03 361.908 562.649Z"/>
	<path fill="white" d="M359.836 564.08C373.135 563.176 386.969 563.903 400.313 563.902L480.409 563.899L561.758 563.85C569.805 563.851 593.525 562.865 599.632 564.657C601.43 566.731 601.958 569.276 602.132 571.975C602.523 578.038 603.245 594.098 601.685 599.628C601.332 600.879 600.591 601.791 599.744 602.744C592.094 604.211 582.972 603.279 575.133 603.311L522.709 603.392L360.104 603.425C358.97 602.263 358.692 600.96 358.413 599.407C357.432 593.952 357.36 572.331 358.345 567.074C358.566 565.897 359.164 565.049 359.836 564.08Z"/>
	<path fill="#D7E4F3" d="M356.514 234.443L608.137 234.255L608.119 301.035L356.368 300.089L356.514 234.443Z"/>
	<path fill="#78A1E3" d="M578.739 239.136C584.156 239.027 589.236 239.743 593.763 242.983C598.614 246.455 601.53 251.893 602.411 257.732C603.429 264.482 602.169 271.738 597.892 277.191C593.808 282.397 588.668 284.175 582.379 285.07C576.531 285.131 571.195 284.296 566.298 280.852Q565.847 280.533 565.413 280.193Q564.978 279.852 564.562 279.489Q564.145 279.127 563.747 278.744Q563.349 278.362 562.971 277.959Q562.593 277.557 562.235 277.136Q561.878 276.715 561.542 276.277Q561.206 275.839 560.893 275.384Q560.579 274.929 560.289 274.46Q559.999 273.99 559.733 273.506Q559.467 273.022 559.226 272.526Q558.984 272.029 558.768 271.521Q558.552 271.013 558.362 270.494Q558.172 269.976 558.008 269.449Q557.844 268.922 557.706 268.387Q557.569 267.852 557.459 267.311Q557.349 266.77 557.266 266.224Q557.171 265.65 557.104 265.072Q557.038 264.494 557.001 263.913Q556.964 263.333 556.956 262.751Q556.948 262.169 556.97 261.588Q556.992 261.007 557.043 260.427Q557.094 259.847 557.175 259.271Q557.255 258.695 557.364 258.124Q557.474 257.552 557.612 256.987Q557.75 256.422 557.916 255.864Q558.083 255.307 558.277 254.758Q558.471 254.21 558.693 253.672Q558.915 253.134 559.164 252.609Q559.413 252.083 559.688 251.57Q559.963 251.057 560.263 250.559Q560.564 250.061 560.889 249.579Q561.215 249.096 561.564 248.631C565.823 242.958 571.858 240.083 578.739 239.136Z"/>
</svg>
