<?xml version="1.0" encoding="utf-8" ?>
<svg xmlns="http://www.w3.org/2000/svg" xmlns:xlink="http://www.w3.org/1999/xlink" width="1024" height="1024">
	<path fill="#FEFEFE" d="M0 0L1024 0L1024 1024L0 1024L0 0Z"/>
	<path fill="#5475B9" d="M248.613 301.629C249.888 302.636 251.162 303.786 252.247 304.993C253.756 306.672 254.503 308.558 254.342 310.817C253.926 316.656 245.566 352.368 243.227 358.48C242.581 360.167 241.169 362.011 239.773 363.153C236.603 365.746 194.989 364.925 187.607 364.476C184.454 364.284 181.865 364.29 179.687 361.741C178.025 359.797 176.899 357.534 176.056 355.132C174.349 350.27 164.201 309.624 164.611 307.434C165.177 304.408 168.987 302.358 171.396 300.968C172.791 302.337 174.145 302.163 176.029 302.15L225.972 302.079C232.55 302.077 242.321 303.037 248.613 301.629Z"/>
	<path fill="#020202" d="M468.422 307.945C469.108 296.274 474.578 284.359 483.361 276.546Q484.124 275.868 484.919 275.228Q485.715 274.588 486.54 273.988Q487.366 273.388 488.221 272.829Q489.075 272.27 489.956 271.755Q490.837 271.239 491.743 270.767Q492.648 270.295 493.575 269.868Q494.503 269.442 495.45 269.061Q496.398 268.681 497.362 268.348Q498.327 268.015 499.308 267.729Q500.288 267.444 501.281 267.207Q502.274 266.971 503.277 266.783Q504.281 266.596 505.292 266.458Q506.304 266.32 507.321 266.232Q508.338 266.145 509.358 266.107Q510.379 266.069 511.399 266.082Q512.42 266.095 513.439 266.158Q514.419 266.223 515.394 266.338Q516.369 266.452 517.338 266.614Q518.306 266.776 519.265 266.987Q520.224 267.197 521.172 267.455Q522.119 267.712 523.053 268.017Q523.986 268.321 524.903 268.672Q525.821 269.022 526.719 269.417Q527.618 269.813 528.496 270.253Q529.374 270.692 530.229 271.175Q531.084 271.658 531.914 272.183Q532.744 272.707 533.547 273.273Q534.35 273.838 535.123 274.442Q535.897 275.047 536.64 275.689Q537.383 276.331 538.093 277.009Q538.803 277.687 539.478 278.4Q540.154 279.113 540.793 279.858C554.133 295.226 550.847 315.639 550.978 334.438L541.142 334.545C540.825 341.753 539.407 348.323 534.67 354.053C529.948 359.764 523.051 363.128 515.739 363.893C507.397 364.766 499.216 362.476 492.744 357.057C485.415 350.92 482.503 343.565 481.669 334.203C477.288 334.115 472.894 334.194 468.511 334.203Q468.598 321.074 468.422 307.945Z"/>
	<path fill="#FEFEFE" d="M515.356 286.892C519.894 286.676 525.107 289.026 529.391 290.468C529.524 295.959 530.037 301.908 529.001 307.315C528.297 310.99 526.623 314.852 523.368 316.95C518.681 319.97 514.69 317.652 509.899 316.567L509.402 316.985C509.624 317.455 509.644 317.578 510.063 318.004C512.907 320.902 517.729 321.495 521.502 321.071C521.521 325.539 521.627 329.941 521.991 334.397C527.709 334.522 533.443 334.477 539.163 334.513C538.703 340.233 537.744 345.477 534.484 350.373C530.213 356.79 523.809 359.918 516.528 361.508Q516.015 361.585 515.499 361.644C507.627 362.533 500.056 360.34 493.953 355.3C487.137 349.672 484.573 342.989 483.8 334.376C489.535 334.001 495.449 334.26 501.201 334.244C501.604 330.145 502.492 311.198 500.904 308.566C500.001 307.069 495.926 306.711 494.354 303.936C493.548 302.513 493.107 300.209 493.695 298.659C494.123 297.531 495.303 296.416 496.501 296.099C497.833 295.746 498.102 295.936 499.223 296.568C500.428 298.301 500.687 300.274 501.123 302.301C505.679 297.037 510.247 291.628 515.356 286.892Z"/>
	<path fill="#020202" d="M501.311 69.1948C519.115 67.3858 537.797 73.3003 551.775 84.3615Q553.13 85.438 554.43 86.5795Q555.73 87.721 556.973 88.9248Q558.215 90.1286 559.397 91.3918Q560.58 92.655 561.699 93.9746Q562.818 95.2942 563.871 96.667Q564.924 98.0398 565.908 99.4625Q566.893 100.885 567.807 102.354Q568.72 103.824 569.561 105.336Q570.402 106.848 571.167 108.4Q571.933 109.951 572.622 111.538Q573.31 113.125 573.921 114.744Q574.531 116.363 575.061 118.01Q575.591 119.657 576.04 121.328Q576.489 122.999 576.855 124.69Q577.222 126.381 577.505 128.088Q577.789 129.794 577.988 131.513Q578.205 133.277 578.334 135.049Q578.462 136.822 578.501 138.599Q578.54 140.376 578.49 142.152Q578.44 143.929 578.3 145.7Q578.161 147.472 577.932 149.235Q577.703 150.997 577.387 152.746Q577.07 154.495 576.665 156.225Q576.261 157.956 575.77 159.664Q575.279 161.372 574.703 163.053Q574.127 164.735 573.467 166.385Q572.807 168.035 572.065 169.65Q571.323 171.265 570.5 172.84Q569.678 174.416 568.777 175.948Q567.877 177.48 566.9 178.965Q565.924 180.45 564.874 181.884Q563.824 183.318 562.703 184.697C550.072 200.378 532.408 208.824 512.62 210.908Q510.935 211.038 509.246 211.09Q507.558 211.142 505.868 211.117Q504.178 211.091 502.492 210.988Q500.805 210.884 499.125 210.704Q497.445 210.523 495.776 210.265Q494.106 210.007 492.449 209.672Q490.793 209.338 489.154 208.927Q487.515 208.517 485.896 208.031Q484.278 207.546 482.684 206.987Q481.089 206.427 479.522 205.795Q477.955 205.163 476.419 204.459Q474.883 203.756 473.381 202.982Q471.878 202.208 470.413 201.367Q468.948 200.525 467.524 199.616Q466.099 198.708 464.718 197.735Q463.336 196.762 462.001 195.726C447.08 184.039 437.601 166.222 435.469 147.458Q435.279 145.738 435.175 144.01Q435.07 142.283 435.051 140.552Q435.032 138.822 435.098 137.093Q435.164 135.363 435.315 133.639Q435.466 131.915 435.702 130.201Q435.938 128.486 436.258 126.786Q436.578 125.085 436.982 123.402Q437.385 121.719 437.872 120.058Q438.358 118.397 438.925 116.762Q439.492 115.127 440.14 113.522Q440.787 111.917 441.512 110.346Q442.238 108.775 443.04 107.241Q443.842 105.708 444.719 104.216Q445.596 102.724 446.545 101.277Q447.494 99.8294 448.514 98.4309Q449.533 97.0324 450.62 95.6858C463.554 79.7213 481.072 71.3238 501.311 69.1948Z"/>
	<path fill="#FEFEFE" d="M502.267 71.1906C502.758 71.1229 503.251 71.0685 503.745 71.037C521.994 69.8732 540.347 77.1275 553.898 89.1484Q555.123 90.2531 556.292 91.4163Q557.461 92.5796 558.572 93.7986Q559.683 95.0177 560.733 96.2897Q561.783 97.5617 562.77 98.8835Q563.756 100.205 564.677 101.574Q565.598 102.942 566.45 104.354Q567.303 105.766 568.085 107.218Q568.868 108.67 569.578 110.159Q570.289 111.647 570.926 113.169Q571.562 114.69 572.124 116.241Q572.686 117.792 573.171 119.368Q573.656 120.945 574.063 122.543Q574.471 124.141 574.799 125.757Q575.128 127.374 575.377 129.004Q575.626 130.635 575.795 132.275Q575.964 133.916 576.053 135.563C577.086 154.835 570.996 172.07 558.1 186.421Q556.982 187.665 555.804 188.853Q554.626 190.04 553.39 191.167Q552.154 192.295 550.864 193.359Q549.574 194.424 548.232 195.423Q546.891 196.422 545.501 197.353Q544.112 198.285 542.678 199.146Q541.244 200.007 539.769 200.796Q538.294 201.584 536.781 202.299Q535.269 203.013 533.723 203.652Q532.177 204.291 530.601 204.851Q529.025 205.412 527.424 205.894Q525.822 206.376 524.198 206.778Q522.574 207.18 520.933 207.501Q519.291 207.821 517.635 208.06Q515.98 208.299 514.314 208.455Q512.649 208.611 510.978 208.684C493.812 210.095 475.975 203.864 462.667 193.156C448.676 181.899 439.503 164.471 437.691 146.654Q437.517 144.981 437.427 143.301Q437.338 141.621 437.332 139.939Q437.327 138.257 437.405 136.577Q437.484 134.897 437.646 133.222Q437.809 131.548 438.055 129.884Q438.301 128.22 438.63 126.571Q438.96 124.921 439.371 123.29Q439.782 121.659 440.275 120.051Q440.767 118.442 441.339 116.86Q441.912 115.279 442.562 113.727Q443.213 112.176 443.941 110.66Q444.668 109.143 445.471 107.665Q446.273 106.186 447.149 104.75Q448.024 103.314 448.971 101.923Q449.917 100.532 450.932 99.1908Q451.946 97.8492 453.027 96.5601C465.597 81.4275 482.806 73.0286 502.267 71.1906Z"/>
	<path fill="#020202" d="M505.309 101.613C506.288 101.846 506.457 101.903 507.262 102.594C508.318 113.915 507.39 127.813 507.402 139.462C513.005 139.465 536.029 138.496 539.732 140.34L540.153 141.882C528.53 142.312 516.738 141.898 505.098 141.871C505.227 128.614 504.202 114.782 505.309 101.613Z"/>
	<path fill="#D1E1DD" d="M723.807 97.7015C732.999 98.2289 742.3 97.9104 751.508 97.923Q776.74 97.9072 801.97 98.2204C801.892 107.096 802.352 115.887 802.483 124.749Q802.588 143.295 802.5 161.841C802.486 169.781 802.865 177.957 802.22 185.869L802.081 188.789C802.906 205.43 802.432 222.323 802.445 238.995L802.42 326.131L724.377 326.434C725.078 299.219 724.086 271.82 724.036 244.588L723.807 97.7015Z"/>
	<path fill="#020202" d="M802.081 188.789Q781.266 209.335 760.679 230.11C754.251 236.59 747.97 243.811 741.154 249.835C740.216 250.664 739.26 251.467 737.979 251.59L737.976 250.72C741.127 245.426 797.502 188.797 802.22 185.869L802.081 188.789Z"/>
	<path fill="#D1E1DD" d="M818.403 97.688C847.319 98.0457 876.322 97.7066 905.244 97.579L905.51 326.022L818.53 326.299L818.427 215.461L818.346 189.056C818.376 183.673 818.89 177.75 818.152 172.422C818.023 171.914 817.893 171.508 817.875 170.97C817.826 169.563 819.347 168.25 820.227 167.286C817.455 159.491 818.245 109.433 818.403 97.688Z"/>
	<path fill="#020202" d="M820.227 167.286Q844.85 142.178 869.84 117.437C875.404 111.927 880.627 105.57 886.465 100.426C887.44 99.5665 888.278 98.9646 889.544 98.6779L889.555 99.8443L889.656 99.622C889.58 99.7439 889.506 99.8672 889.428 99.9878C886.257 104.896 881.307 109.053 877.174 113.168L857.449 132.838L831.239 159.478C827.008 163.75 822.786 168.606 818.152 172.422C818.023 171.914 817.893 171.508 817.875 170.97C817.826 169.563 819.347 168.25 820.227 167.286Z"/>
	<path fill="#FEFEFE" d="M865.5 210.388C868.617 212.805 871.452 215.911 874.314 218.637C881.04 225.043 887.687 231.661 894.909 237.51C884.654 237.646 874.382 237.496 864.125 237.47Q849.071 237.482 834.018 237.34C843.322 227.279 855.177 219.406 865.5 210.388Z"/>
	<path fill="#D1E1DD" d="M218.679 165.11C223.483 144.663 225.113 112.377 242.376 98.6689C250.948 91.8615 263.056 89.0167 273.842 90.2943C284.246 91.5265 293.559 97.1784 299.938 105.416C306.952 114.472 309.843 125.102 308.296 136.474C307.143 144.956 304.65 153.526 302.667 161.85L293.713 199.815L286.875 228.165C285.534 233.648 284.419 239.681 282.245 244.879C279.613 251.172 274.815 256.854 269.383 260.919C258.191 269.294 245.706 270.091 232.291 268.177C230.437 271.046 226.074 293.955 224.406 299.771C230.392 299.787 242.177 298.37 247.401 300.335L248.613 301.629C242.321 303.037 232.55 302.077 225.972 302.079L176.029 302.15C174.145 302.163 172.791 302.337 171.396 300.968C172.186 300.206 172.422 300.152 173.559 300.033C178.89 299.477 184.645 299.875 190.021 299.862L222.146 299.716C222.928 297.25 223.955 294.602 224.302 292.039C225.324 284.499 220.278 275.332 217.54 268.406Q216.616 268.859 215.667 269.257Q214.806 269.606 213.93 269.913Q213.053 270.22 212.162 270.483Q211.271 270.747 210.369 270.966Q209.466 271.186 208.554 271.361Q207.641 271.536 206.722 271.666Q205.802 271.796 204.877 271.881Q203.952 271.965 203.024 272.005Q202.096 272.044 201.167 272.038Q200.238 272.032 199.311 271.98Q198.383 271.928 197.459 271.831Q196.536 271.734 195.618 271.592Q194.7 271.45 193.79 271.263Q192.88 271.076 191.98 270.844Q191.081 270.613 190.193 270.338Q189.306 270.063 188.434 269.744Q187.561 269.426 186.705 269.065C174.749 264.128 167.761 254.033 162.945 242.499C153.726 220.421 144.983 197.781 136.824 175.284C134.098 167.767 130.108 159.24 129.14 151.323C128.341 144.785 129.45 137.466 131.985 131.406C135.913 122.012 143.133 113.963 152.689 110.121C162.59 106.14 174.388 106.646 184.112 110.9C198.322 117.117 203.861 128.173 209.48 141.765C212.677 149.496 215.606 157.33 218.679 165.11Z"/>
	<path fill="#020202" d="M263.939 137.149C264.58 137.398 264.902 137.641 265.432 138.063C265.911 141.023 246.726 215.925 244.204 222.44C243.433 221.797 243.047 221.345 242.601 220.444C245.144 208.007 249.073 195.662 252.092 183.311C255.702 168.545 258.901 151.301 263.939 137.149Z"/>
	<path fill="#020202" d="M217.54 268.406C207.53 246.052 198.424 223.169 188.799 200.636C185.227 192.273 181.847 183.821 178.243 175.477C175.522 169.177 172.313 162.83 170.318 156.265L171.316 155.766C172.55 156.492 172.992 157.085 173.599 158.392C174.961 161.323 175.91 164.552 177.194 167.549L191.327 200.945L219.949 268.006L222.193 266.792C222.923 265.029 234.954 257.755 237.817 254.089C241.924 248.829 244.182 242.237 246.291 235.998C245.449 245.073 242.215 251.005 236.209 257.739C234.946 259.154 232.982 261.051 232.263 262.786C231.641 264.285 232.121 266.577 232.291 268.177C230.437 271.046 226.074 293.955 224.406 299.771C230.392 299.787 242.177 298.37 247.401 300.335L248.613 301.629C242.321 303.037 232.55 302.077 225.972 302.079L176.029 302.15C174.145 302.163 172.791 302.337 171.396 300.968C172.186 300.206 172.422 300.152 173.559 300.033C178.89 299.477 184.645 299.875 190.021 299.862L222.146 299.716C222.928 297.25 223.955 294.602 224.302 292.039C225.324 284.499 220.278 275.332 217.54 268.406Z"/>
	<path fill="#FEFEFE" d="M222.193 266.792C222.385 266.739 222.578 266.687 222.77 266.632C225.045 265.975 227.484 263.635 229.675 264.302C229.808 267.22 226.657 280.815 225.799 284.362C223.885 278.903 222.055 273.395 219.949 268.006L222.193 266.792Z"/>
	<path fill="#020202" d="M468.422 307.945Q468.598 321.074 468.511 334.203C472.894 334.194 477.288 334.115 481.669 334.203C482.503 343.565 485.415 350.92 492.744 357.057C499.216 362.476 507.397 364.766 515.739 363.893C523.051 363.128 529.948 359.764 534.67 354.053C539.407 348.323 540.825 341.753 541.142 334.545L550.978 334.438C567.985 334.193 582.314 337.805 594.865 349.993C603.531 358.409 607.226 367.688 610.743 378.957L687.787 378.933C700.553 378.929 713.476 378.519 726.225 379.095C753.879 378.874 777.084 385.85 797.65 405.174C816.175 422.579 827.047 445.341 829.587 470.568C830.447 479.117 830.281 487.878 830.357 496.47C830.517 514.465 829.975 532.505 830.515 550.487C834.047 539.499 838.359 530.049 846.195 521.411Q847.306 520.162 848.478 518.971Q849.65 517.78 850.881 516.648Q852.111 515.517 853.397 514.45Q854.683 513.382 856.021 512.38Q857.358 511.378 858.745 510.444Q860.131 509.511 861.562 508.648Q862.994 507.785 864.467 506.995Q865.94 506.206 867.451 505.491Q868.961 504.776 870.506 504.138Q872.051 503.499 873.625 502.94Q875.2 502.38 876.801 501.9Q878.402 501.42 880.025 501.021Q881.648 500.622 883.289 500.305Q884.93 499.988 886.585 499.753Q888.24 499.519 889.904 499.368Q891.569 499.217 893.239 499.15C913.253 498.312 930.892 504.891 945.55 518.565C960.018 532.061 966.759 549.957 967.412 569.496C967.944 585.432 967.561 601.508 967.581 617.459L967.587 704.751L967.587 747.551C967.648 764.274 968.435 780.918 964.758 797.368Q964.332 799.25 963.842 801.117Q963.352 802.984 962.799 804.833Q962.245 806.682 961.629 808.511Q961.013 810.34 960.335 812.147Q959.657 813.954 958.918 815.736Q958.178 817.519 957.379 819.276Q956.579 821.032 955.72 822.76Q954.861 824.489 953.943 826.187Q953.026 827.885 952.051 829.55Q951.076 831.216 950.045 832.847Q949.014 834.479 947.928 836.074Q946.842 837.669 945.702 839.227Q944.562 840.784 943.369 842.302Q942.177 843.819 940.934 845.295Q939.69 846.771 938.397 848.204Q937.104 849.637 935.763 851.025C913.862 874.108 886.053 886.133 854.496 887.833C839.562 888.637 824.505 887.761 809.542 888.128C813.899 893.103 819.012 897.636 823.724 902.296C838.573 916.978 854.15 930.95 868.662 945.966Q800.547 945.669 732.433 946.088C730.93 948.982 729.161 951.9 725.899 953.012C720.774 954.76 643.97 953.672 631.969 953.668C618.413 953.664 604.723 954.24 591.186 953.818C589.26 953.758 586.899 953.776 585.165 952.87C582.195 951.317 581.118 948.522 580.116 945.51Q542.09 945.141 504.064 945.414L471.828 945.462C466.33 945.455 460.355 944.979 454.919 945.576C451.539 945.948 448.194 946.979 444.837 947.558C441.083 948.206 439.152 947.728 436.072 945.546C389.787 944.692 343.399 945.412 297.101 945.378C277.656 945.363 257.758 946.209 238.359 945.076C232.034 939.668 226.166 933.548 220.136 927.799C212.903 920.904 205.457 914.235 198.272 907.292C191.572 900.817 184.944 893.295 177.153 888.162C157.977 888.441 139.813 885.381 122.475 876.895Q121.154 876.258 119.85 875.588Q118.546 874.918 117.258 874.215Q115.971 873.513 114.702 872.778Q113.433 872.044 112.183 871.277Q110.932 870.511 109.702 869.714Q108.471 868.917 107.261 868.089Q106.05 867.261 104.861 866.403Q103.672 865.545 102.505 864.657Q101.338 863.77 100.193 862.853Q99.0483 861.936 97.9271 860.991Q96.8058 860.046 95.7085 859.074Q94.6113 858.101 93.5388 857.101Q92.4663 856.101 91.4192 855.074Q90.3721 854.047 89.3511 852.995Q88.3301 851.942 87.3358 850.865Q86.3416 849.787 85.3746 848.685Q84.4077 847.582 83.4687 846.456Q82.5297 845.329 81.6193 844.18Q80.7088 843.03 79.8275 841.859Q78.9462 840.687 78.0945 839.493Q77.2428 838.299 76.4214 837.084Q75.5999 835.87 74.8092 834.635Q74.0184 833.4 73.2589 832.145Q72.4994 830.891 71.7716 829.618Q71.0438 828.345 70.3481 827.054Q69.6525 825.763 68.9894 824.455Q68.3263 823.147 67.6963 821.823Q67.0662 820.499 66.4696 819.16Q65.8729 817.82 65.31 816.466Q64.7472 815.112 64.2184 813.744Q63.6897 812.377 63.1954 810.996Q62.7012 809.615 62.2417 808.223C58.8025 798.088 57.0657 787.983 56.416 777.314C55.6857 765.319 56.4435 753.012 56.4157 740.985L56.2671 662.961L56.1561 601.133C56.1366 589.044 55.5055 576.54 56.6811 564.508C57.5722 555.387 59.7279 546.862 63.8275 538.637Q64.6062 537.038 65.464 535.48Q66.3217 533.922 67.2564 532.409Q68.191 530.896 69.2001 529.432Q70.2093 527.968 71.2905 526.556Q72.3717 525.144 73.5221 523.788Q74.6726 522.432 75.8895 521.135Q77.1064 519.838 78.3867 518.604Q79.6669 517.369 81.0074 516.201Q82.3478 515.032 83.745 513.932Q85.1423 512.831 86.5928 511.802Q88.0433 510.774 89.5435 509.819Q91.0437 508.864 92.5898 507.985Q94.1359 507.106 95.7241 506.306Q97.3122 505.505 98.9384 504.786Q100.565 504.066 102.225 503.428Q103.885 502.791 105.575 502.237C122.99 496.523 141.761 498.817 158.001 507.022C176.258 516.248 187.565 531.463 193.788 550.671Q194.002 527.714 193.962 504.757C193.975 495.479 193.611 486.015 194.34 476.768Q194.52 474.393 194.805 472.029Q195.091 469.665 195.482 467.316Q195.873 464.967 196.368 462.638Q196.864 460.309 197.464 458.004Q198.063 455.699 198.765 453.424Q199.467 451.148 200.27 448.906Q201.073 446.664 201.975 444.461Q202.878 442.257 203.878 440.096Q204.878 437.935 205.974 435.82Q207.07 433.706 208.259 431.643Q209.448 429.58 210.729 427.572Q212.009 425.564 213.378 423.616Q214.747 421.667 216.201 419.782Q217.656 417.896 219.194 416.078Q220.731 414.259 222.349 412.512Q223.966 410.764 225.66 409.09Q226.908 407.83 228.198 406.614Q229.489 405.398 230.821 404.228Q232.154 403.058 233.526 401.935Q234.898 400.811 236.308 399.737Q237.718 398.662 239.165 397.637Q240.612 396.611 242.093 395.637Q243.575 394.663 245.089 393.74Q246.604 392.818 248.149 391.949Q249.695 391.08 251.27 390.265Q252.845 389.45 254.447 388.691Q256.049 387.931 257.677 387.228Q259.305 386.524 260.956 385.878Q262.607 385.231 264.28 384.643Q265.952 384.054 267.644 383.524Q269.336 382.994 271.046 382.523Q272.755 382.051 274.48 381.64C294.297 376.741 315.751 378.638 336.036 378.629L408.927 378.529C410.757 374.987 414.147 371.299 416.444 367.948C421.352 360.785 425.273 352.918 431.425 346.661C442.411 335.485 453.272 334.282 468.135 334.088C468.123 325.562 467.38 316.384 468.422 307.945Z"/>
	<path fill="#FEFEFE" d="M572.873 623.429L575.195 624.127C576.203 629.528 575.401 636.178 575.422 641.75C575.472 655.171 575.72 668.612 575.448 682.03C574.452 681.854 573.559 681.833 572.744 681.201C572.272 669.111 572.505 656.924 572.453 644.823C572.426 638.587 571.412 629.253 572.873 623.429Z"/>
	<path fill="#FEFEFE" d="M430.516 592.051C433.016 592.279 435.372 592.751 437.747 593.56C446.614 596.582 452.659 602.518 456.748 610.812C459.24 615.867 460.884 621.361 462.757 626.666L471.072 649.94C473.857 657.744 479.251 670.391 480.777 677.892C480.953 678.758 480.832 679.328 480.554 680.145C480.109 680.008 479.209 679.706 478.887 679.355C476.61 676.873 475.119 670.141 473.96 666.808Q467.747 649.029 461.269 631.345C459.06 625.198 457.267 618.711 454.43 612.828Q453.51 610.892 452.341 609.096Q451.172 607.301 449.774 605.676C446.121 601.452 441.108 598.078 436 595.874C434.615 595.277 432.964 594.97 431.695 594.188C430.627 593.531 430.742 593.218 430.516 592.051Z"/>
	<path fill="#F16E6D" d="M658.843 490.983C671.092 502.83 679.312 522.851 679.567 539.872C679.813 556.229 673.107 568.535 662.227 580.292C656.641 576.96 651.408 574.301 645.083 572.72C646.481 571.464 647.908 570.08 648.753 568.374C649.61 566.643 649.864 564.689 649.228 562.843C648.108 559.59 645.112 558.023 642.264 556.518C643.975 555.604 645.629 554.685 647.168 553.494C649.617 551.6 651.542 549.44 652.652 546.521C655.774 538.305 655.471 527.083 656.197 518.338Q657.244 504.634 658.843 490.983Z"/>
	<path fill="#F16E6D" d="M590.282 855.812C616.183 855.81 642.145 855.523 668.038 856.019C668.018 865.026 667.872 874.051 668.025 883.056L590.582 883.051C590.022 874.071 590.405 864.829 590.282 855.812Z"/>
	<path fill="#FEFEFE" d="M425.311 557.573L582.704 557.452L622.277 557.436C627.297 557.436 634.064 556.666 638.934 557.703C641.618 558.275 644.833 560.063 646.292 562.451C647.164 563.878 647.288 565.338 646.752 566.931C645.902 569.456 642.861 570.891 640.633 571.868C628.311 572.347 615.896 572.113 603.563 572.136L537.703 572.153L468.503 572.047C455.523 572.036 442.458 572.324 429.487 571.928C427.319 571.862 424.619 571.86 422.61 570.992C420.71 570.17 419.103 568.756 418.466 566.738C417.901 564.949 418.224 562.978 419.143 561.365C420.544 558.906 422.701 558.2 425.311 557.573Z"/>
	<path fill="#D1E1DD" d="M481.549 682.435C502.788 682.063 524.093 682.392 545.337 682.413C551.385 682.419 557.438 682.473 563.485 682.396C566.447 682.358 569.812 681.954 572.73 682.316C573.626 682.427 574.503 683.584 575.165 684.201C574.53 691.418 574.905 698.912 574.945 706.163Q575.15 726.238 575.114 746.315L504.356 746.512C495.556 725.678 489.81 703.505 481.549 682.435Z"/>
	<path fill="#FEFEFE" d="M590.582 883.051L668.025 883.056L668.097 886.494Q671.303 896.922 673.889 907.521C668.524 907.479 663.051 907.267 657.694 907.535C656.584 907.59 654.413 907.462 653.707 908.253C658.333 910.01 663.075 909.621 667.916 909.572C679.01 909.457 699.043 907.55 709.058 912.019C717.571 915.818 724.804 922.744 728.031 931.58C729.633 935.965 731.184 942.937 728.997 947.246Q728.83 947.569 728.632 947.873Q728.433 948.178 728.205 948.46Q727.976 948.743 727.72 949.001Q727.464 949.259 727.183 949.49Q726.902 949.72 726.599 949.921Q726.297 950.122 725.975 950.291Q725.653 950.461 725.316 950.596Q724.979 950.732 724.63 950.833C718.694 952.611 673.434 951.422 663.457 951.416C639.529 951.4 615.336 952.257 591.439 951.491C589.43 951.426 587.375 951.328 585.6 950.29C583.86 949.273 582.859 947.642 582.427 945.69C580.695 937.868 586.876 928.487 590.826 922.282C591.359 910.389 591.069 898.154 590.617 886.253L590.582 883.051Z"/>
	<path fill="#5475B9" d="M575.165 684.201C576.13 690.809 575.443 698.389 575.462 705.114Q575.67 728.627 575.326 752.138C574.823 786.674 575.025 821.309 575.211 855.849L590.282 855.812C590.405 864.829 590.022 874.071 590.582 883.051L590.617 886.253C579.208 885.7 567.509 886.932 556.17 885.908C550.557 885.401 546.628 882.845 541.516 881.06C535.376 878.916 528.877 879.825 522.613 880.753C520.84 872.342 518.159 864.064 515.785 855.804C512.123 846.428 509.856 835.575 507.724 825.738C515.415 824.44 523.022 822.603 530.629 820.887C521.899 796.092 513.615 771.115 504.356 746.512L575.114 746.315Q575.15 726.238 574.945 706.163C574.905 698.912 574.53 691.418 575.165 684.201Z"/>
	<path fill="#D1E1DD" d="M686.423 682.724L766.778 682.836C777.988 682.841 797.254 681.687 807.461 683.748C812.652 684.797 817.612 687.561 821.328 691.343C824.078 694.142 825.976 697.167 827.033 700.962C829.399 709.46 828.012 734.886 827.99 745.073C827.001 745.959 826.6 745.854 825.263 745.968C820 746.415 814.534 746.188 809.242 746.221L779.49 746.364L686.348 746.607C686.59 725.323 686.39 704.01 686.423 682.724Z"/>
	<path fill="#FEFEFE" d="M310.408 580.355C312.571 581.87 312.684 584.231 313.032 586.643C316.566 611.075 322.216 634.757 331.307 657.749C333.855 664.195 338.158 669.866 340.425 676.406L340.645 677.058C330.616 680.007 319.28 680.54 308.954 682.56C291.037 686.064 273.908 691.062 256.526 696.557C252.205 697.923 247.983 699.333 243.428 699.617C242.818 698.909 242.419 698.478 242.288 697.511C241.993 695.319 242.331 692.634 242.363 690.401C242.44 684.857 242.219 679.152 241.015 673.722C237.264 656.8 230.382 640.334 223.643 624.436C220.532 617.096 216.837 609.591 214.479 601.988C214.416 601.783 214.356 601.577 214.295 601.371C220.218 601.044 226.122 601.497 232.053 601.041C250.748 599.603 283.259 594.016 300.164 586.452C303.809 584.822 307.101 582.568 310.408 580.355Z"/>
	<path fill="#D1E1DD" d="M239.981 681.993C240.562 687.511 238.714 695.919 241.232 700.637C243.511 702.136 246.575 701.527 249.163 701.034C257.485 699.449 265.818 695.788 273.953 693.33C289.01 688.781 305.077 684.958 320.63 682.617C331.777 680.939 343.505 681.452 354.748 681.435C358.202 689.833 360.754 699.041 363.454 707.715L375.861 747.617C372.171 749.007 215.861 748.101 196.496 748.123C196.441 738.527 195.133 709.548 197.086 701.764C198.178 697.411 200.701 693.055 203.814 689.84C213.402 679.934 227.474 681.956 239.981 681.993Z"/>
	<path fill="#FEFEFE" d="M424.902 844.209C452.204 837.257 480.116 831.364 507.724 825.738C509.856 835.575 512.123 846.428 515.785 855.804C518.159 864.064 520.84 872.342 522.613 880.753C517.659 881.684 502.981 883.43 499.481 885.748L499.468 886.414C502.369 887.492 506.818 885.893 509.73 885.278C515.826 883.99 524.001 881.992 530.073 881.765C544.11 881.242 556.59 888.696 562.487 901.497C565.306 907.617 565.709 913.522 565.688 920.15L478.877 938.2C467.45 940.476 455.577 943.997 444.032 945.204C441.679 945.45 439.773 945.411 437.71 944.116C435.74 942.88 434.755 940.924 434.309 938.699C432.951 931.911 434.858 925.072 438.82 919.509C439.855 918.056 441.066 916.765 442.305 915.486Q438.218 900.833 434.754 886.02Q433.409 880.623 432.202 875.193Q428.643 859.679 424.902 844.209Z"/>
	<path fill="#F16E6D" d="M424.902 844.209C452.204 837.257 480.116 831.364 507.724 825.738C509.856 835.575 512.123 846.428 515.785 855.804C494.287 862.368 471.568 865.873 449.661 870.955C443.873 872.298 437.878 873.451 432.202 875.193Q428.643 859.679 424.902 844.209Z"/>
	<path fill="#F16E6D" d="M468.422 307.945Q468.598 321.074 468.511 334.203C472.894 334.194 477.288 334.115 481.669 334.203C482.503 343.565 485.415 350.92 492.744 357.057C499.216 362.476 507.397 364.766 515.739 363.893C523.051 363.128 529.948 359.764 534.67 354.053C539.407 348.323 540.825 341.753 541.142 334.545L550.978 334.438C567.985 334.193 582.314 337.805 594.865 349.993C603.531 358.409 607.226 367.688 610.743 378.957L687.787 378.933C700.553 378.929 713.476 378.519 726.225 379.095C715.953 379.836 705.41 379.349 695.103 379.348L636.72 379.396C629.8 379.427 617.45 378.321 611.193 379.799L610.721 380.463C610.79 380.716 610.947 381.509 611.099 381.705L611.85 384.119C570.058 383.244 528.112 384.051 486.301 383.989L448.491 383.884C440.79 383.854 432.475 383.152 424.891 384.484C419.102 385.501 413.923 388.663 409.743 392.708C404.242 398.029 400.49 406.017 400.458 413.723C400.42 422.802 401.743 432.224 402.493 441.282Q404.947 470.846 407.752 500.38Q408.834 512.559 409.669 524.758C410.053 530.499 410.048 536.775 411.425 542.375C412.342 546.102 414.527 549.756 417.22 552.465C418.811 554.065 420.724 555.266 422.685 556.357C420.072 557.126 418.359 557.8 416.988 560.267C415.882 562.256 415.499 564.303 416.174 566.507C416.811 568.588 418.197 570.209 419.724 571.702C397.937 572.019 380.493 568.362 360.941 580.594C358.078 579.203 354.751 578.454 351.796 577.04C340.231 571.504 331.295 560.808 327.154 548.775Q326.805 547.757 326.495 546.726Q326.185 545.696 325.915 544.654Q325.645 543.612 325.414 542.561Q325.184 541.51 324.993 540.45Q324.803 539.391 324.653 538.325Q324.503 537.259 324.394 536.189Q324.285 535.118 324.217 534.044Q324.149 532.97 324.121 531.894Q324.094 530.818 324.108 529.742Q324.122 528.666 324.176 527.591Q324.231 526.516 324.326 525.444Q324.422 524.372 324.558 523.305Q324.695 522.237 324.872 521.175Q325.048 520.114 325.266 519.06Q325.483 518.006 325.74 516.961Q325.997 515.916 326.294 514.881C330.309 501.025 339.764 489.419 347.099 477.196C361.476 453.237 375.702 429.374 390.795 405.847Q395.662 398.172 400.756 390.646C402.704 387.769 405.296 384.743 406.716 381.611C406.801 381.424 406.865 381.228 406.94 381.036C408.043 380.325 408.308 379.64 408.927 378.529C410.757 374.987 414.147 371.299 416.444 367.948C421.352 360.785 425.273 352.918 431.425 346.661C442.411 335.485 453.272 334.282 468.135 334.088C468.123 325.562 467.38 316.384 468.422 307.945Z"/>
	<path fill="#5475B9" d="M827.99 745.073C827.26 762.514 827.778 780.152 827.792 797.613L827.918 885.824C811.203 885.519 794.437 886.211 777.709 886.173L696.658 885.973C690.655 885.978 672.456 885.139 668.097 886.494L668.025 883.056C667.872 874.051 668.018 865.026 668.038 856.019C674.148 856.237 680.272 856.168 686.386 856.178L686.348 746.607L779.49 746.364L809.242 746.221C814.534 746.188 820 746.415 825.263 745.968C826.6 745.854 827.001 745.959 827.99 745.073Z"/>
	<path fill="#5475B9" d="M375.861 747.617C386.289 781.189 398.01 814.388 408.336 847.981C413.853 846.741 419.424 845.603 424.902 844.209Q428.643 859.679 432.202 875.193Q433.409 880.623 434.754 886.02C425.822 885.641 416.756 885.928 407.813 885.91L354.094 885.849L196.444 886.018C196.103 870.295 196.44 854.487 196.455 838.753L196.496 748.123C215.861 748.101 372.171 749.007 375.861 747.617Z"/>
	<path fill="#D1E1DD" d="M196.298 697.529C196.844 645.053 196.216 592.539 196.358 540.057L196.47 502.374C196.502 488.726 196.062 475.146 199.035 461.719Q199.437 459.946 199.9 458.189Q200.364 456.431 200.888 454.69Q201.413 452.95 201.998 451.229Q202.582 449.508 203.227 447.808Q203.871 446.108 204.575 444.432Q205.278 442.756 206.039 441.105Q206.801 439.455 207.619 437.831Q208.438 436.208 209.312 434.615Q210.187 433.021 211.116 431.459Q212.046 429.897 213.029 428.368Q214.012 426.839 215.049 425.346Q216.085 423.852 217.172 422.396Q218.26 420.939 219.398 419.521Q220.535 418.104 221.722 416.726Q222.908 415.349 224.142 414.014Q225.376 412.679 226.655 411.388Q227.941 410.092 229.273 408.842Q230.604 407.592 231.978 406.39Q233.353 405.188 234.769 404.035Q236.185 402.883 237.642 401.781Q239.098 400.679 240.592 399.629Q242.086 398.58 243.616 397.583Q245.147 396.587 246.711 395.646Q248.276 394.704 249.873 393.818Q251.47 392.933 253.097 392.104Q254.724 391.276 256.38 390.505Q258.035 389.735 259.717 389.023Q261.399 388.311 263.104 387.66Q264.81 387.008 266.538 386.417Q268.266 385.826 270.013 385.297Q271.761 384.767 273.526 384.3Q275.291 383.833 277.072 383.428C294.906 379.273 315.092 381.007 333.357 381.024L406.94 381.036C406.865 381.228 406.801 381.424 406.716 381.611C405.296 384.743 402.704 387.769 400.756 390.646Q395.662 398.172 390.795 405.847C375.702 429.374 361.476 453.237 347.099 477.196C339.764 489.419 330.309 501.025 326.294 514.881Q325.997 515.916 325.74 516.961Q325.483 518.006 325.266 519.06Q325.048 520.114 324.872 521.175Q324.695 522.237 324.558 523.305Q324.422 524.372 324.326 525.444Q324.231 526.516 324.176 527.591Q324.122 528.666 324.108 529.742Q324.094 530.818 324.121 531.894Q324.149 532.97 324.217 534.044Q324.285 535.118 324.394 536.189Q324.503 537.259 324.653 538.325Q324.803 539.391 324.993 540.45Q325.184 541.51 325.414 542.561Q325.645 543.612 325.915 544.654Q326.185 545.696 326.495 546.726Q326.805 547.757 327.154 548.775C331.295 560.808 340.231 571.504 351.796 577.04C354.751 578.454 358.078 579.203 360.941 580.594C355.526 585.003 351.315 590.091 347.706 596.075C330.271 624.973 346.749 650.566 353.914 679.404C349.399 679.489 344.554 679.939 340.08 679.34C339.422 679.252 339.718 679.374 339.224 678.713C339.628 678.663 340.195 678.608 340.573 678.489C341.954 678.053 341.972 677.762 342.486 676.512C342.182 671.931 334.214 659.673 332.094 654.28C325.998 638.773 321.909 622.179 318.499 605.901C317.623 601.718 315.27 582.052 313.298 579.702C312.496 578.746 311.756 578.513 310.559 578.475C307.395 578.377 303.14 582.776 300.02 584.079C292.738 587.124 284.897 589.15 277.248 591.057C263.794 594.412 249.999 597.069 236.161 598.196C229.566 598.734 221.932 597.774 215.537 599.061C214.346 599.301 213.745 599.905 212.89 600.722C212.056 602.912 213.007 605.167 213.764 607.267C216.493 614.844 220.31 622.254 223.526 629.651C230.438 645.548 236.694 662.416 239.841 679.495C231.468 679.499 221.915 678.592 213.868 681.094C205.074 683.829 200.418 689.756 196.298 697.529Z"/>
	<path fill="#FEFEFE" d="M429.504 386.161C441.856 385.498 454.553 386.169 466.948 386.179L542.993 386.205L603.105 386.176C613.716 386.18 624.793 385.564 635.338 386.601C640.23 387.083 645.116 388.846 649.254 391.495Q649.901 391.904 650.527 392.345Q651.154 392.785 651.757 393.257Q652.36 393.728 652.939 394.229Q653.518 394.73 654.072 395.259Q654.625 395.788 655.151 396.344Q655.677 396.9 656.175 397.482Q656.673 398.064 657.141 398.67Q657.609 399.275 658.047 399.904Q658.484 400.532 658.89 401.182Q659.295 401.831 659.668 402.5Q660.04 403.169 660.379 403.856Q660.718 404.542 661.022 405.245Q661.326 405.948 661.594 406.665Q661.863 407.382 662.095 408.111Q662.328 408.841 662.524 409.581Q662.719 410.321 662.878 411.07C663.416 413.715 663.52 416.222 663.39 418.905C663.086 425.165 662.042 431.427 661.459 437.674Q659.366 462.08 656.878 486.448C655.166 504.155 654.595 522.473 651.819 540.016C651.344 543.018 650.838 545.835 649.045 548.368C646.221 552.361 641.939 554.487 637.24 555.372C627.037 556.064 616.338 555.311 606.075 555.298L540.751 555.272L468.28 555.327C456.01 555.354 443.421 556.07 431.196 555.359C427.636 555.152 423.891 554.617 420.984 552.402C416.6 549.062 413.911 544.084 413.174 538.657C412.009 530.079 411.831 521.174 411.104 512.536L406.41 457.246C405.333 444.016 401.812 421.932 403.021 409.599C403.449 405.239 405.85 400.917 408.529 397.487C413.89 390.62 420.973 387.208 429.504 386.161Z"/>
	<path fill="#5475B9" d="M529.595 445.166C534.084 444.912 538.403 445.636 542.314 447.933C547.389 450.915 550.907 455.931 552.274 461.628C553.713 467.622 552.919 474.266 549.492 479.461C545.826 485.017 540.413 487.385 534.111 488.543C528.164 488.696 522.986 488.104 517.987 484.496Q517.54 484.175 517.109 483.832Q516.679 483.489 516.266 483.124Q515.854 482.76 515.46 482.375Q515.067 481.989 514.693 481.585Q514.32 481.181 513.967 480.758Q513.615 480.335 513.284 479.895Q512.954 479.454 512.646 478.998Q512.338 478.542 512.054 478.07Q511.77 477.599 511.51 477.113Q511.25 476.628 511.014 476.13Q510.779 475.633 510.57 475.124Q510.36 474.614 510.177 474.095Q509.993 473.576 509.836 473.049Q509.679 472.521 509.549 471.986Q509.419 471.451 509.317 470.91Q509.214 470.369 509.139 469.824Q509.069 469.286 509.025 468.745Q508.982 468.205 508.964 467.663Q508.947 467.121 508.957 466.578Q508.966 466.036 509.002 465.495Q509.039 464.953 509.101 464.415Q509.164 463.876 509.253 463.341Q509.342 462.806 509.457 462.276Q509.572 461.746 509.713 461.222Q509.854 460.698 510.02 460.182Q510.187 459.665 510.378 459.158Q510.57 458.651 510.786 458.153Q511.002 457.656 511.242 457.169Q511.483 456.683 511.747 456.209Q512.011 455.735 512.297 455.275Q512.584 454.815 512.893 454.369Q513.203 453.923 513.533 453.493C517.589 448.218 523.178 445.955 529.595 445.166Z"/>
	<path fill="#D1E1DD" d="M611.099 381.705Q651.738 381.37 692.377 381.452C710.376 381.436 736.275 379.785 753.272 383.808C769.47 387.642 785.639 396.411 797.574 408.026Q799.113 409.534 800.585 411.107Q802.058 412.68 803.462 414.314Q804.866 415.949 806.198 417.642Q807.531 419.335 808.789 421.084Q810.048 422.833 811.23 424.634Q812.413 426.435 813.517 428.285Q814.621 430.135 815.645 432.031Q816.669 433.927 817.61 435.865Q818.552 437.803 819.409 439.78Q820.267 441.756 821.039 443.768Q821.811 445.78 822.496 447.822Q823.181 449.865 823.777 451.936Q824.374 454.006 824.882 456.1Q825.389 458.194 825.806 460.308Q826.223 462.422 826.549 464.551Q826.875 466.681 827.11 468.823C828.066 477.724 827.827 486.883 827.906 495.831L827.948 695.559C822.597 687.969 816.027 682.674 806.674 681.055C795.924 679.193 780.993 680.282 769.791 680.286C742.054 680.297 714.179 681.009 686.458 680.302L686.374 644.504C686.342 621.17 686.453 603.541 668.768 586.031Q665.642 582.997 662.227 580.292C673.107 568.535 679.813 556.229 679.567 539.872C679.312 522.851 671.092 502.83 658.843 490.983C660.692 477.403 661.396 463.468 662.617 449.799C663.516 439.743 665.046 429.564 665.45 419.493C665.821 410.242 662.812 401.097 656.43 394.301C644.205 381.283 627.862 384.717 611.85 384.119L611.099 381.705Z"/>
	<path fill="#5475B9" d="M893.266 501.699C902.198 501 911.915 502.368 920.321 505.467C937.023 511.625 951.627 524.982 958.957 541.235Q960.174 543.968 961.16 546.792Q962.145 549.617 962.893 552.514Q963.641 555.41 964.146 558.359Q964.651 561.308 964.909 564.288C966.074 577.585 965.493 591.25 965.5 604.603L965.508 671.248L965.473 739.854C965.461 753.919 965.998 768.217 964.819 782.236Q964.49 785.926 963.917 789.587Q963.343 793.247 962.527 796.861Q961.71 800.475 960.654 804.026Q959.599 807.578 958.309 811.051C947.012 841.073 924.178 863.427 895.304 876.562C874.581 885.873 852.535 885.873 830.343 885.841L830.456 658.907L830.503 595.515C830.514 583.293 829.686 570.397 831.47 558.315C833.235 546.356 838.665 533.688 846.523 524.472C858.573 510.34 875.048 503.216 893.266 501.699Z"/>
	<path fill="#5475B9" d="M120.202 501.682C120.75 501.593 121.278 501.549 121.834 501.534C140.896 501.035 159.538 507.232 173.382 520.645C183.413 530.365 190.185 543.728 192.663 557.435C194.831 569.422 193.895 582.828 193.917 595.013L193.975 654.093C194.067 731.401 193.375 808.779 194.258 886.075C174.334 886.221 157.021 886.579 137.633 880.546C124.932 876.191 113.097 870.235 102.507 861.929Q101.383 861.042 100.281 860.128Q99.1792 859.214 98.1004 858.272Q97.0216 857.331 95.9665 856.363Q94.9114 855.395 93.8806 854.401Q92.8498 853.408 91.844 852.389Q90.8382 851.37 89.8579 850.326Q88.8777 849.282 87.9236 848.215Q86.9696 847.147 86.0423 846.056Q85.115 844.965 84.2151 843.851Q83.3151 842.738 82.4431 841.602Q81.5711 840.467 80.7274 839.31Q79.8838 838.153 79.0692 836.976Q78.2545 835.798 77.4693 834.601Q76.6841 833.403 75.9288 832.187Q75.1736 830.971 74.4487 829.736Q73.7238 828.501 73.0298 827.249Q72.3358 825.996 71.6731 824.727Q71.0103 823.458 70.3793 822.173Q69.7482 820.888 69.1492 819.587Q68.5502 818.287 67.9837 816.972Q67.4171 815.657 66.8833 814.328Q66.3496 813 65.8489 811.658Q65.3483 810.317 64.8811 808.963Q64.4138 807.61 63.9803 806.245Q63.5468 804.881 63.1473 803.506Q62.7477 802.131 62.3824 800.746Q62.0171 799.362 61.6862 797.969Q61.3554 796.576 61.0592 795.175Q60.7629 793.774 60.5015 792.367Q60.2402 790.959 60.0138 789.545Q59.7874 788.131 59.5961 786.712Q59.4049 785.293 59.2489 783.87C57.5024 769.115 58.3638 753.609 58.3746 738.736L58.4629 661.565L58.4226 599.117C58.4136 586.773 57.4948 573.702 59.3502 561.504C61.2272 549.164 65.7749 537.298 73.5675 527.481C85.4683 512.488 101.239 503.846 120.202 501.682Z"/>
</svg>
